Halibut-Condensed.ufo
<glyph name="exclam" format="2">
	<advance width="216"/>
	<unicode hex="0021"/>
	<outline>
		<contour>
			<point x="151" y="713" type="line"/>
			<point x="108" y="145" type="line"/>
			<point x="88" y="145" type="line"/>
			<point x="45" y="713" type="line"/>
		</contour>
		<component base="dotaccentcomb" xOffset="17" yOffset="-540"/>
	</outline>
</glyph>
<glyph name="numbersign" format="2">
	<advance width="485"/>
	<unicode hex="0023"/>
	<outline>
		<contour>
			<point x="8" y="173" type="line"/>
			<point x="123" y="173" type="line"/>
			<point x="88" y="0" type="line"/>
			<point x="130" y="0" type="line"/>
			<point x="165" y="173" type="line"/>
			<point x="269" y="173" type="line"/>
			<point x="233" y="0" type="line"/>
			<point x="275" y="0" type="line"/>
			<point x="310" y="173" type="line"/>
			<point x="420" y="173" type="line"/>
			<point x="420" y="211" type="line"/>
			<point x="318" y="211" type="line"/>
			<point x="353" y="384" type="line"/>
			<point x="477" y="384" type="line"/>
			<point x="477" y="422" type="line"/>
			<point x="360" y="422" type="line"/>
			<point x="397" y="600" type="line"/>
			<point x="355" y="600" type="line"/>
			<point x="319" y="422" type="line"/>
			<point x="215" y="422" type="line"/>
			<point x="252" y="600" type="line"/>
			<point x="210" y="600" type="line"/>
			<point x="174" y="422" type="line"/>
			<point x="65" y="422" type="line"/>
			<point x="65" y="384" type="line"/>
			<point x="166" y="384" type="line"/>
			<point x="131" y="211" type="line"/>
			<point x="8" y="211" type="line"/>
		</contour>
		<contour>
			<point x="173" y="211" type="line"/>
			<point x="208" y="384" type="line"/>
			<point x="311" y="384" type="line"/>
			<point x="276" y="211" type="line"/>
		</contour>
	</outline>
</glyph>
<glyph name="dollar" format="2">
  <advance width="392"/>
  <unicode hex="0024"/>
  <outline>
    <contour>
      <point x="181" y="692" type="line"/>
      <point x="181" y="-92" type="line"/>
      <point x="217" y="-92" type="line"/>
      <point x="217" y="692" type="line"/>
    </contour>
    <contour>
      <point x="14" y="12" type="line"/>
      <point x="60" y="-6"/>
      <point x="124" y="-20"/>
      <point x="194" y="-20" type="curve" smooth="yes"/>
      <point x="296" y="-20"/>
      <point x="378" y="63"/>
      <point x="378" y="167" type="curve" smooth="yes"/>
      <point x="378" y="242"/>
      <point x="337" y="291"/>
      <point x="242" y="337" type="curve" smooth="yes"/>
      <point x="184" y="365" type="line" smooth="yes"/>
      <point x="127" y="392"/>
      <point x="101" y="434"/>
      <point x="101" y="486" type="curve" smooth="yes"/>
      <point x="101" y="544"/>
      <point x="131" y="577"/>
      <point x="188" y="577" type="curve" smooth="yes"/>
      <point x="220" y="577"/>
      <point x="257" y="568"/>
      <point x="272" y="557" type="curve"/>
      <point x="288" y="415" type="line"/>
      <point x="296" y="413" type="line"/>
      <point x="346" y="587" type="line"/>
      <point x="312" y="607"/>
      <point x="246" y="620"/>
      <point x="191" y="620" type="curve" smooth="yes"/>
      <point x="103" y="620"/>
      <point x="38" y="564"/>
      <point x="36" y="464" type="curve" smooth="yes"/>
      <point x="35" y="390"/>
      <point x="69" y="328"/>
      <point x="146" y="291" type="curve" smooth="yes"/>
      <point x="214" y="258" type="line" smooth="yes"/>
      <point x="281" y="225"/>
      <point x="312" y="184"/>
      <point x="312" y="132" type="curve" smooth="yes"/>
      <point x="312" y="64"/>
      <point x="270" y="27"/>
      <point x="204" y="27" type="curve" smooth="yes"/>
      <point x="166" y="27"/>
      <point x="121" y="33"/>
      <point x="88" y="45" type="curve"/>
      <point x="73" y="210" type="line"/>
      <point x="65" y="212" type="line"/>
    </contour>
  </outline>
</glyph>
<glyph name="percent" format="2">
  <advance width="644"/>
  <unicode hex="0025"/>
  <outline>
    <contour>
      <point x="486" y="-4" type="curve" smooth="yes"/>
      <point x="543" y="-4"/>
      <point x="589" y="56"/>
      <point x="589" y="131" type="curve" smooth="yes"/>
      <point x="589" y="205"/>
      <point x="544" y="263"/>
      <point x="486" y="263" type="curve" smooth="yes"/>
      <point x="429" y="263"/>
      <point x="382" y="205"/>
      <point x="382" y="131" type="curve" smooth="yes"/>
      <point x="382" y="56"/>
      <point x="429" y="-4"/>
    </contour>
    <contour>
      <point x="486" y="37" type="curve" smooth="yes"/>
      <point x="453" y="37"/>
      <point x="434" y="71"/>
      <point x="434" y="131" type="curve" smooth="yes"/>
      <point x="434" y="189"/>
      <point x="452" y="222"/>
      <point x="486" y="222" type="curve" smooth="yes"/>
      <point x="519" y="222"/>
      <point x="537" y="189"/>
      <point x="537" y="131" type="curve" smooth="yes"/>
      <point x="537" y="71"/>
      <point x="518" y="37"/>
    </contour>
    <contour>
      <point x="320" y="314" type="line"/>
      <point x="335" y="312" type="line"/>
      <point x="499" y="600" type="line"/>
      <point x="401" y="600" type="line"/>
    </contour>
    <contour>
      <point x="159" y="333" type="curve" smooth="yes"/>
      <point x="216" y="333"/>
      <point x="262" y="393"/>
      <point x="262" y="468" type="curve" smooth="yes"/>
      <point x="262" y="542"/>
      <point x="217" y="600"/>
      <point x="159" y="600" type="curve" smooth="yes"/>
      <point x="102" y="600"/>
      <point x="55" y="542"/>
      <point x="55" y="468" type="curve" smooth="yes"/>
      <point x="55" y="393"/>
      <point x="102" y="333"/>
    </contour>
    <contour>
      <point x="159" y="374" type="curve" smooth="yes"/>
      <point x="126" y="374"/>
      <point x="107" y="408"/>
      <point x="107" y="468" type="curve" smooth="yes"/>
      <point x="107" y="526"/>
      <point x="125" y="559"/>
      <point x="159" y="559" type="curve" smooth="yes"/>
      <point x="192" y="559"/>
      <point x="210" y="526"/>
      <point x="210" y="468" type="curve" smooth="yes"/>
      <point x="210" y="408"/>
      <point x="191" y="374"/>
    </contour>
    <contour>
      <point x="324" y="286" type="line"/>
      <point x="309" y="288" type="line"/>
      <point x="145" y="0" type="line"/>
      <point x="243" y="0" type="line"/>
    </contour>
  </outline>
</glyph>
<glyph name="ampersand" format="2">
  <advance width="491"/>
  <unicode hex="0026"/>
  <outline>
    <contour>
      <point x="-3" y="157" type="curve" smooth="yes"/>
      <point x="-3" y="51"/>
      <point x="85" y="-20"/>
      <point x="216" y="-20" type="curve" smooth="yes"/>
      <point x="400" y="-20"/>
      <point x="499" y="114"/>
      <point x="454" y="312" type="curve"/>
      <point x="534" y="331" type="line"/>
      <point x="532" y="339" type="line"/>
      <point x="231" y="354" type="line"/>
      <point x="270" y="158" type="line"/>
      <point x="278" y="160" type="line"/>
      <point x="307" y="311" type="line"/>
      <point x="451" y="326" type="line"/>
      <point x="370" y="332" type="line"/>
      <point x="453" y="161"/>
      <point x="383" y="23"/>
      <point x="244" y="23" type="curve" smooth="yes"/>
      <point x="154" y="23"/>
      <point x="88" y="91"/>
      <point x="88" y="187" type="curve" smooth="yes"/>
      <point x="88" y="263"/>
      <point x="129" y="313"/>
      <point x="190" y="311" type="curve"/>
      <point x="193" y="341" type="line"/>
      <point x="155" y="356"/>
      <point x="123" y="419"/>
      <point x="123" y="475" type="curve" smooth="yes"/>
      <point x="123" y="541"/>
      <point x="156" y="579"/>
      <point x="217" y="579" type="curve" smooth="yes"/>
      <point x="247" y="579"/>
      <point x="279" y="566"/>
      <point x="301" y="551" type="curve"/>
      <point x="316" y="408" type="line"/>
      <point x="324" y="406" type="line"/>
      <point x="378" y="575" type="line"/>
      <point x="358" y="600"/>
      <point x="291" y="620"/>
      <point x="235" y="620" type="curve" smooth="yes"/>
      <point x="121" y="620"/>
      <point x="32" y="546"/>
      <point x="32" y="451" type="curve" smooth="yes"/>
      <point x="32" y="396"/>
      <point x="81" y="339"/>
      <point x="146" y="320" type="curve"/>
      <point x="153" y="338" type="line"/>
      <point x="71" y="325"/>
      <point x="-3" y="240"/>
    </contour>
  </outline>
</glyph>
<glyph name="quotesingle" format="2">
  <advance width="181"/>
  <unicode hex="0027"/>
  <outline>
    <contour>
      <point x="143" y="692" type="line"/>
      <point x="58" y="692" type="line"/>
      <point x="93" y="501" type="line"/>
      <point x="109" y="501" type="line"/>
    </contour>
  </outline>
</glyph>
<glyph name="parenleft" format="2">
	<advance width="335"/>
	<unicode hex="0028"/>
	<outline>
		<contour>
			<point x="259" y="690" type="line"/>
			<point x="158" y="572"/>
			<point x="98" y="434"/>
			<point x="98" y="291" type="curve" smooth="yes"/>
			<point x="98" y="151"/>
			<point x="155" y="14"/>
			<point x="259" y="-108" type="curve"/>
			<point x="277" y="-95" type="line"/>
			<point x="213" y="2"/>
			<point x="177" y="137"/>
			<point x="177" y="291" type="curve" smooth="yes"/>
			<point x="177" y="445"/>
			<point x="213" y="580"/>
			<point x="277" y="677" type="curve"/>
		</contour>
	</outline>
</glyph>
<glyph name="asterisk" format="2">
  <advance width="264"/>
  <unicode hex="002A"/>
  <outline>
    <contour>
      <point x="94" y="693" type="line"/>
      <point x="121" y="573" type="line"/>
      <point x="19" y="619" type="line"/>
      <point x="1" y="552" type="line"/>
      <point x="114" y="549" type="line"/>
      <point x="26" y="459" type="line"/>
      <point x="89" y="419" type="line"/>
      <point x="131" y="540" type="line"/>
      <point x="176" y="419" type="line"/>
      <point x="237" y="459" type="line"/>
      <point x="149" y="549" type="line"/>
      <point x="261" y="552" type="line"/>
      <point x="244" y="619" type="line"/>
      <point x="142" y="573" type="line"/>
      <point x="169" y="693" type="line"/>
    </contour>
  </outline>
</glyph>
<glyph name="plus" format="2">
  <advance width="492"/>
  <unicode hex="002B"/>
  <outline>
    <contour>
      <point x="58" y="257" type="line"/>
      <point x="222" y="257" type="line"/>
      <point x="221" y="93" type="line"/>
      <point x="271" y="93" type="line"/>
      <point x="271" y="257" type="line"/>
      <point x="434" y="256" type="line"/>
      <point x="434" y="303" type="line"/>
      <point x="271" y="303" type="line"/>
      <point x="271" y="468" type="line"/>
      <point x="222" y="468" type="line"/>
      <point x="222" y="303" type="line"/>
      <point x="58" y="303" type="line"/>
    </contour>
  </outline>
</glyph>
<glyph name="comma" format="2">
	<advance width="248"/>
	<unicode hex="002C"/>
	<outline>
		<contour>
			<point x="188" y="88" type="line"/>
			<point x="103" y="88" type="line"/>
			<point x="60" y="-108" type="line"/>
			<point x="76" y="-108" type="line"/>
		</contour>
	</outline>
</glyph>
<glyph name="hyphen" format="2">
  <advance width="396"/>
  <unicode hex="002D"/>
  <outline>
    <contour>
      <point x="78" y="249" type="line"/>
      <point x="78" y="235" type="line"/>
      <point x="318" y="213" type="line"/>
      <point x="318" y="271" type="line"/>
    </contour>
  </outline>
</glyph>
<glyph name="slash" format="2">
  <advance width="405"/>
  <unicode hex="002F"/>
  <outline>
    <contour>
      <point x="8" y="-92" type="line"/>
      <point x="44" y="-111" type="line"/>
      <point x="428" y="693" type="line"/>
      <point x="391" y="713" type="line"/>
    </contour>
  </outline>
</glyph>
<glyph name="zero" format="2">
	<advance width="446"/>
	<unicode hex="0030"/>
	<outline>
		<contour>
			<point x="212" y="-20" type="curve" smooth="yes"/>
			<point x="343" y="-20"/>
			<point x="418" y="103"/>
			<point x="418" y="322" type="curve" smooth="yes"/>
			<point x="418" y="510"/>
			<point x="351" y="620"/>
			<point x="242" y="620" type="curve" smooth="yes"/>
			<point x="104" y="620"/>
			<point x="28" y="501"/>
			<point x="28" y="290" type="curve" smooth="yes"/>
			<point x="28" y="91"/>
			<point x="94" y="-20"/>
		</contour>
		<contour>
			<point x="228" y="24" type="curve" smooth="yes"/>
			<point x="154" y="24"/>
			<point x="113" y="128"/>
			<point x="113" y="320" type="curve" smooth="yes"/>
			<point x="113" y="484"/>
			<point x="156" y="578"/>
			<point x="232" y="578" type="curve" smooth="yes"/>
			<point x="296" y="578"/>
			<point x="333" y="475"/>
			<point x="333" y="293" type="curve" smooth="yes"/>
			<point x="333" y="121"/>
			<point x="295" y="24"/>
		</contour>
	</outline>
</glyph>
<glyph name="one" format="2">
	<advance width="302"/>
	<unicode hex="0031"/>
	<outline>
		<contour>
			<point x="20" y="475" type="line"/>
			<point x="115" y="504" type="line"/>
			<point x="115" y="45" type="line"/>
			<point x="25" y="8" type="line"/>
			<point x="27" y="0" type="line"/>
			<point x="282" y="0" type="line"/>
			<point x="284" y="8" type="line"/>
			<point x="194" y="45" type="line"/>
			<point x="194" y="620" type="line"/>
			<point x="18" y="483" type="line"/>
		</contour>
	</outline>
</glyph>
<glyph name="two" format="2">
  <advance width="483"/>
  <unicode hex="0032"/>
  <outline>
    <contour>
      <point x="216" y="576" type="curve" smooth="yes"/>
      <point x="268" y="576"/>
      <point x="302" y="527"/>
      <point x="301" y="421" type="curve" smooth="yes"/>
      <point x="300" y="287"/>
      <point x="221" y="182"/>
      <point x="28" y="35" type="curve"/>
      <point x="46" y="0" type="line"/>
      <point x="425" y="0" type="line"/>
      <point x="405" y="220" type="line"/>
      <point x="397" y="218" type="line"/>
      <point x="341" y="51" type="line"/>
      <point x="83" y="36" type="line"/>
      <point x="78" y="16" type="line"/>
      <point x="309" y="203"/>
      <point x="396" y="317"/>
      <point x="395" y="442" type="curve" smooth="yes"/>
      <point x="394" y="549"/>
      <point x="330" y="620"/>
      <point x="234" y="620" type="curve" smooth="yes"/>
      <point x="170" y="620"/>
      <point x="110" y="602"/>
      <point x="70" y="587" type="curve"/>
      <point x="119" y="385" type="line"/>
      <point x="127" y="387" type="line"/>
      <point x="148" y="567" type="line"/>
      <point x="169" y="573"/>
      <point x="199" y="576"/>
    </contour>
  </outline>
</glyph>
<glyph name="three" format="2">
	<advance width="463"/>
	<unicode hex="0033"/>
	<outline>
		<contour>
			<point x="241" y="315" type="curve" smooth="yes"/>
			<point x="311" y="315"/>
			<point x="346" y="266"/>
			<point x="346" y="176" type="curve" smooth="yes"/>
			<point x="346" y="94"/>
			<point x="291" y="26"/>
			<point x="217" y="26" type="curve" smooth="yes"/>
			<point x="177" y="26"/>
			<point x="133" y="38"/>
			<point x="99" y="58" type="curve"/>
			<point x="82" y="221" type="line"/>
			<point x="74" y="223" type="line"/>
			<point x="20" y="23" type="line"/>
			<point x="49" y="3"/>
			<point x="147" y="-20"/>
			<point x="200" y="-20" type="curve" smooth="yes"/>
			<point x="332" y="-20"/>
			<point x="425" y="80"/>
			<point x="425" y="204" type="curve" smooth="yes"/>
			<point x="425" y="298"/>
			<point x="361" y="362"/>
			<point x="280" y="362" type="curve" smooth="yes"/>
			<point x="250" y="362"/>
			<point x="226" y="353"/>
			<point x="170" y="323" type="curve"/>
			<point x="170" y="313" type="line"/>
			<point x="405" y="555" type="line"/>
			<point x="370" y="600" type="line"/>
			<point x="41" y="612" type="line"/>
			<point x="89" y="406" type="line"/>
			<point x="97" y="408" type="line"/>
			<point x="120" y="556" type="line"/>
			<point x="381" y="563" type="line"/>
			<point x="368" y="600" type="line"/>
			<point x="95" y="317" type="line"/>
			<point x="136" y="271" type="line"/>
			<point x="168" y="300"/>
			<point x="205" y="315"/>
		</contour>
	</outline>
</glyph>
<glyph name="four" format="2">
	<advance width="512"/>
	<unicode hex="0034"/>
	<outline>
		<contour>
			<point x="446" y="158" type="line"/>
			<point x="446" y="192" type="line"/>
			<point x="81" y="192" type="line"/>
			<point x="99" y="168" type="line"/>
			<point x="297" y="592" type="line"/>
			<point x="282" y="576" type="line"/>
			<point x="282" y="45" type="line"/>
			<point x="147" y="8" type="line"/>
			<point x="149" y="0" type="line"/>
			<point x="472" y="0" type="line"/>
			<point x="474" y="8" type="line"/>
			<point x="364" y="45" type="line"/>
			<point x="364" y="557" type="line"/>
			<point x="474" y="592" type="line"/>
			<point x="472" y="600" type="line"/>
			<point x="242" y="600" type="line"/>
			<point x="43" y="189" type="line"/>
			<point x="70" y="158" type="line"/>
		</contour>
	</outline>
</glyph>
<glyph name="five" format="2">
  <advance width="463"/>
  <unicode hex="0035"/>
  <outline>
    <contour>
      <point x="425" y="204" type="curve" smooth="yes"/>
      <point x="425" y="309"/>
      <point x="362" y="372"/>
      <point x="265" y="372" type="curve" smooth="yes"/>
      <point x="201" y="372"/>
      <point x="149" y="342"/>
      <point x="120" y="290" type="curve"/>
      <point x="148" y="293" type="line"/>
      <point x="178" y="592" type="line"/>
      <point x="126" y="571" type="line"/>
      <point x="312" y="564" type="line"/>
      <point x="343" y="403" type="line"/>
      <point x="351" y="401" type="line"/>
      <point x="389" y="612" type="line"/>
      <point x="109" y="600" type="line"/>
      <point x="80" y="305" type="line"/>
      <point x="128" y="271" type="line"/>
      <point x="153" y="298"/>
      <point x="191" y="313"/>
      <point x="237" y="313" type="curve" smooth="yes"/>
      <point x="302" y="313"/>
      <point x="348" y="255"/>
      <point x="348" y="176" type="curve" smooth="yes"/>
      <point x="348" y="75"/>
      <point x="302" y="26"/>
      <point x="222" y="26" type="curve" smooth="yes"/>
      <point x="177" y="26"/>
      <point x="162" y="31"/>
      <point x="127" y="43" type="curve"/>
      <point x="110" y="209" type="line"/>
      <point x="102" y="211" type="line"/>
      <point x="48" y="11" type="line"/>
      <point x="92" y="-6"/>
      <point x="148" y="-20"/>
      <point x="205" y="-20" type="curve" smooth="yes"/>
      <point x="335" y="-20"/>
      <point x="425" y="72"/>
    </contour>
  </outline>
</glyph>
<glyph name="six" format="2">
  <advance width="488"/>
  <unicode hex="0036"/>
  <outline>
    <contour>
      <point x="129" y="277" type="curve"/>
      <point x="134" y="217" type="line"/>
      <point x="174" y="296"/>
      <point x="216" y="333"/>
      <point x="257" y="333" type="curve" smooth="yes"/>
      <point x="311" y="333"/>
      <point x="350" y="268"/>
      <point x="350" y="176" type="curve" smooth="yes"/>
      <point x="350" y="89"/>
      <point x="309" y="25"/>
      <point x="254" y="25" type="curve" smooth="yes"/>
      <point x="178" y="25"/>
      <point x="138" y="132"/>
      <point x="138" y="299" type="curve" smooth="yes"/>
      <point x="138" y="483"/>
      <point x="176" y="578"/>
      <point x="250" y="578" type="curve" smooth="yes"/>
      <point x="277" y="578"/>
      <point x="320" y="566"/>
      <point x="329" y="555" type="curve"/>
      <point x="345" y="415" type="line"/>
      <point x="353" y="413" type="line"/>
      <point x="408" y="579" type="line"/>
      <point x="386" y="600"/>
      <point x="313" y="620"/>
      <point x="262" y="620" type="curve" smooth="yes"/>
      <point x="140" y="620"/>
      <point x="58" y="489"/>
      <point x="58" y="276" type="curve" smooth="yes"/>
      <point x="58" y="96"/>
      <point x="126" y="-20"/>
      <point x="239" y="-20" type="curve" smooth="yes"/>
      <point x="350" y="-20"/>
      <point x="430" y="76"/>
      <point x="430" y="204" type="curve" smooth="yes"/>
      <point x="430" y="315"/>
      <point x="382" y="382"/>
      <point x="295" y="382" type="curve" smooth="yes"/>
      <point x="227" y="382"/>
      <point x="163" y="342"/>
    </contour>
  </outline>
</glyph>
<glyph name="seven" format="2">
	<advance width="429"/>
	<unicode hex="0037"/>
	<outline>
		<contour>
			<point x="33" y="612" type="line"/>
			<point x="61" y="377" type="line"/>
			<point x="69" y="379" type="line"/>
			<point x="110" y="556" type="line"/>
			<point x="356" y="562" type="line"/>
			<point x="315" y="588" type="line"/>
			<point x="158" y="45" type="line"/>
			<point x="38" y="8" type="line"/>
			<point x="40" y="0" type="line"/>
			<point x="348" y="0" type="line"/>
			<point x="350" y="8" type="line"/>
			<point x="230" y="45" type="line"/>
			<point x="381" y="562" type="line"/>
			<point x="373" y="600" type="line"/>
		</contour>
	</outline>
</glyph>
<glyph name="eight" format="2">
  <advance width="469"/>
  <unicode hex="0038"/>
  <outline>
    <contour>
      <point x="205" y="297" type="curve" smooth="yes"/>
      <point x="259" y="270" type="line" smooth="yes"/>
      <point x="317" y="241"/>
      <point x="353" y="195"/>
      <point x="353" y="159" type="curve" smooth="yes"/>
      <point x="353" y="78"/>
      <point x="317" y="23"/>
      <point x="262" y="23" type="curve" smooth="yes"/>
      <point x="190" y="23"/>
      <point x="141" y="87"/>
      <point x="141" y="185" type="curve" smooth="yes"/>
      <point x="141" y="245"/>
      <point x="182" y="293"/>
      <point x="242" y="301" type="curve"/>
      <point x="235" y="329" type="line"/>
      <point x="130" y="310"/>
      <point x="63" y="241"/>
      <point x="63" y="154" type="curve" smooth="yes"/>
      <point x="63" y="51"/>
      <point x="133" y="-20"/>
      <point x="247" y="-20" type="curve" smooth="yes"/>
      <point x="361" y="-20"/>
      <point x="431" y="62"/>
      <point x="431" y="184" type="curve" smooth="yes"/>
      <point x="431" y="226"/>
      <point x="389" y="286"/>
      <point x="321" y="325" type="curve" smooth="yes"/>
      <point x="253" y="364" type="line" smooth="yes"/>
      <point x="200" y="394"/>
      <point x="157" y="441"/>
      <point x="157" y="477" type="curve" smooth="yes"/>
      <point x="157" y="538"/>
      <point x="188" y="578"/>
      <point x="234" y="578" type="curve" smooth="yes"/>
      <point x="293" y="578"/>
      <point x="332" y="529"/>
      <point x="332" y="456" type="curve" smooth="yes"/>
      <point x="332" y="413"/>
      <point x="306" y="363"/>
      <point x="269" y="340" type="curve"/>
      <point x="278" y="317" type="line"/>
      <point x="360" y="359"/>
      <point x="410" y="428"/>
      <point x="410" y="485" type="curve" smooth="yes"/>
      <point x="410" y="565"/>
      <point x="350" y="620"/>
      <point x="253" y="620" type="curve" smooth="yes"/>
      <point x="144" y="620"/>
      <point x="79" y="559"/>
      <point x="79" y="466" type="curve" smooth="yes"/>
      <point x="79" y="408"/>
      <point x="125" y="337"/>
    </contour>
  </outline>
</glyph>
<glyph name="nine" format="2">
	<advance width="491"/>
	<unicode hex="0039"/>
	<outline>
		<contour>
			<point x="362" y="324" type="curve"/>
			<point x="357" y="383" type="line"/>
			<point x="329" y="311"/>
			<point x="282" y="268"/>
			<point x="234" y="268" type="curve" smooth="yes"/>
			<point x="178" y="268"/>
			<point x="142" y="329"/>
			<point x="142" y="424" type="curve" smooth="yes"/>
			<point x="142" y="518"/>
			<point x="178" y="575"/>
			<point x="237" y="575" type="curve" smooth="yes"/>
			<point x="318" y="575"/>
			<point x="353" y="493"/>
			<point x="353" y="304" type="curve" smooth="yes"/>
			<point x="353" y="100"/>
			<point x="312" y="26"/>
			<point x="226" y="26" type="curve" smooth="yes"/>
			<point x="204" y="26"/>
			<point x="177" y="31"/>
			<point x="151" y="40" type="curve"/>
			<point x="134" y="186" type="line"/>
			<point x="126" y="188" type="line"/>
			<point x="72" y="8" type="line"/>
			<point x="116" y="-10"/>
			<point x="175" y="-21"/>
			<point x="219" y="-20" type="curve" smooth="yes"/>
			<point x="349" y="-18"/>
			<point x="433" y="107"/>
			<point x="433" y="327" type="curve" smooth="yes"/>
			<point x="433" y="519"/>
			<point x="371" y="620"/>
			<point x="252" y="620" type="curve" smooth="yes"/>
			<point x="138" y="620"/>
			<point x="61" y="530"/>
			<point x="61" y="396" type="curve" smooth="yes"/>
			<point x="61" y="283"/>
			<point x="116" y="219"/>
			<point x="214" y="219" type="curve" smooth="yes"/>
			<point x="286" y="219"/>
			<point x="334" y="253"/>
		</contour>
	</outline>
</glyph>
<glyph name="equal" format="2">
	<advance width="487"/>
	<unicode hex="003D"/>
	<outline>
		<contour>
			<point x="58" y="379" type="line"/>
			<point x="58" y="329" type="line"/>
			<point x="429" y="327" type="line"/>
			<point x="429" y="379" type="line"/>
		</contour>
		<contour>
			<point x="58" y="234" type="line"/>
			<point x="58" y="184" type="line"/>
			<point x="429" y="182" type="line"/>
			<point x="429" y="234" type="line"/>
		</contour>
	</outline>
</glyph>
<glyph name="greater" format="2">
  <advance width="477"/>
  <unicode hex="003E"/>
  <outline>
    <contour>
      <point x="58" y="125" type="line"/>
      <point x="419" y="264" type="line"/>
      <point x="419" y="325" type="line"/>
      <point x="58" y="465" type="line"/>
      <point x="58" y="405" type="line"/>
      <point x="399" y="275" type="line"/>
      <point x="399" y="314" type="line"/>
      <point x="58" y="185" type="line"/>
    </contour>
  </outline>
</glyph>
<glyph name="question" format="2">
	<advance width="425"/>
	<unicode hex="003F"/>
	<outline>
		<contour>
			<point x="196" y="668" type="curve" smooth="yes"/>
			<point x="256" y="668"/>
			<point x="282" y="627"/>
			<point x="281" y="533" type="curve" smooth="yes"/>
			<point x="280" y="421"/>
			<point x="251" y="341"/>
			<point x="120" y="168" type="curve"/>
			<point x="138" y="143" type="line"/>
			<point x="305" y="141" type="line"/>
			<point x="307" y="149" type="line"/>
			<point x="175" y="194" type="line"/>
			<point x="170" y="159" type="line"/>
			<point x="334" y="357"/>
			<point x="376" y="451"/>
			<point x="375" y="554" type="curve" smooth="yes"/>
			<point x="374" y="658"/>
			<point x="319" y="712"/>
			<point x="214" y="712" type="curve" smooth="yes"/>
			<point x="166" y="712"/>
			<point x="110" y="701"/>
			<point x="50" y="679" type="curve"/>
			<point x="99" y="497" type="line"/>
			<point x="107" y="499" type="line"/>
			<point x="128" y="659" type="line"/>
			<point x="146" y="664"/>
			<point x="177" y="668"/>
		</contour>
		<component base="dotaccentcomb" xOffset="126" yOffset="-540"/>
	</outline>
</glyph>
<glyph name="at" format="2">
	<advance width="676"/>
	<unicode hex="0040"/>
	<outline>
		<contour>
			<point x="67" y="183" type="curve" smooth="yes"/>
			<point x="67" y="24"/>
			<point x="171" y="-84"/>
			<point x="327" y="-86" type="curve" smooth="yes"/>
			<point x="414" y="-87"/>
			<point x="481" y="-55"/>
			<point x="536" y="16" type="curve"/>
			<point x="522" y="26" type="line"/>
			<point x="472" y="-24"/>
			<point x="407" y="-52"/>
			<point x="343" y="-51" type="curve" smooth="yes"/>
			<point x="226" y="-49"/>
			<point x="140" y="63"/>
			<point x="140" y="214" type="curve" smooth="yes"/>
			<point x="140" y="358"/>
			<point x="224" y="458"/>
			<point x="346" y="458" type="curve" smooth="yes"/>
			<point x="454" y="458"/>
			<point x="538" y="366"/>
			<point x="538" y="248" type="curve" smooth="yes"/>
			<point x="538" y="169"/>
			<point x="506" y="113"/>
			<point x="462" y="113" type="curve" smooth="yes"/>
			<point x="437" y="113"/>
			<point x="429" y="132"/>
			<point x="431" y="179" type="curve" smooth="yes"/>
			<point x="440" y="365" type="line"/>
			<point x="382" y="355" type="line"/>
			<point x="378" y="342" type="line"/>
			<point x="363" y="349"/>
			<point x="351" y="352"/>
			<point x="338" y="352" type="curve" smooth="yes"/>
			<point x="271" y="352"/>
			<point x="201" y="267"/>
			<point x="201" y="186" type="curve" smooth="yes"/>
			<point x="201" y="127"/>
			<point x="239" y="87"/>
			<point x="293" y="87" type="curve" smooth="yes"/>
			<point x="339" y="87"/>
			<point x="370" y="116"/>
			<point x="401" y="186" type="curve"/>
			<point x="388" y="191" type="line"/>
			<point x="377" y="102"/>
			<point x="397" y="82"/>
			<point x="443" y="82" type="curve" smooth="yes"/>
			<point x="540" y="82"/>
			<point x="611" y="161"/>
			<point x="611" y="267" type="curve" smooth="yes"/>
			<point x="611" y="396"/>
			<point x="504" y="494"/>
			<point x="363" y="494" type="curve" smooth="yes"/>
			<point x="195" y="494"/>
			<point x="67" y="359"/>
		</contour>
		<contour>
			<point x="275" y="195" type="curve" smooth="yes"/>
			<point x="275" y="277"/>
			<point x="294" y="321"/>
			<point x="330" y="321" type="curve" smooth="yes"/>
			<point x="349" y="321"/>
			<point x="367" y="314"/>
			<point x="375" y="304" type="curve"/>
			<point x="369" y="180" type="line"/>
			<point x="355" y="140"/>
			<point x="344" y="121"/>
			<point x="313" y="121" type="curve" smooth="yes"/>
			<point x="283" y="121"/>
			<point x="275" y="135"/>
		</contour>
	</outline>
</glyph>
<glyph name="A" format="2">
  <advance width="540"/>
  <unicode hex="0041"/>
  <anchor x="247" y="0" name="bottom"/>
  <anchor x="408" y="10" name="ogonek"/>
  <anchor x="228" y="600" name="top"/>
  <outline>
    <contour>
      <point x="385" y="190" type="line"/>
      <point x="385" y="227" type="line"/>
      <point x="116" y="227" type="line"/>
      <point x="116" y="190" type="line"/>
    </contour>
    <contour>
      <point x="225" y="572" type="line"/>
      <point x="384" y="45" type="line"/>
      <point x="264" y="8" type="line"/>
      <point x="266" y="0" type="line"/>
      <point x="538" y="0" type="line"/>
      <point x="540" y="8" type="line"/>
      <point x="470" y="45" type="line"/>
      <point x="283" y="600" type="line"/>
      <point x="103" y="600" type="line"/>
      <point x="101" y="592" type="line"/>
      <point x="210" y="555" type="line"/>
      <point x="37" y="44" type="line"/>
      <point x="-33" y="8" type="line"/>
      <point x="-31" y="0" type="line"/>
      <point x="206" y="0" type="line"/>
      <point x="208" y="8" type="line"/>
      <point x="88" y="44" type="line"/>
      <point x="260" y="572" type="line"/>
    </contour>
  </outline>
</glyph>
<glyph name="B" format="2">
  <advance width="525"/>
  <unicode hex="0042"/>
  <guideline x="401" y="293" angle="270"/>
  <anchor x="303" y="0" name="bottom"/>
  <anchor x="303" y="300" name="center"/>
  <anchor x="264" y="600" name="top"/>
  <outline>
    <contour>
      <point x="8" y="9" type="line"/>
      <point x="10" y="0" type="line"/>
      <point x="251" y="1" type="line" smooth="yes"/>
      <point x="396" y="2"/>
      <point x="482" y="67"/>
      <point x="482" y="181" type="curve" smooth="yes"/>
      <point x="482" y="260"/>
      <point x="415" y="330"/>
      <point x="312" y="334" type="curve"/>
      <point x="319" y="319" type="line"/>
      <point x="391" y="330"/>
      <point x="437" y="391"/>
      <point x="437" y="465" type="curve" smooth="yes"/>
      <point x="437" y="548"/>
      <point x="374" y="600"/>
      <point x="266" y="600" type="curve" smooth="yes"/>
      <point x="10" y="600" type="line"/>
      <point x="8" y="591" type="line"/>
      <point x="118" y="555" type="line"/>
      <point x="118" y="46" type="line"/>
    </contour>
    <contour>
      <point x="197" y="46" type="line"/>
      <point x="197" y="297" type="line"/>
      <point x="232" y="297" type="line" smooth="yes"/>
      <point x="329" y="297"/>
      <point x="397" y="238"/>
      <point x="397" y="164" type="curve" smooth="yes"/>
      <point x="397" y="78"/>
      <point x="347" y="35"/>
      <point x="266" y="41" type="curve" smooth="yes"/>
    </contour>
    <contour>
      <point x="198" y="334" type="line"/>
      <point x="198" y="567" type="line"/>
      <point x="232" y="570" type="line" smooth="yes"/>
      <point x="303" y="576"/>
      <point x="352" y="526"/>
      <point x="352" y="449" type="curve" smooth="yes"/>
      <point x="352" y="383"/>
      <point x="315" y="334"/>
      <point x="266" y="334" type="curve" smooth="yes"/>
    </contour>
  </outline>
</glyph>
<glyph name="C" format="2">
  <advance width="493"/>
  <unicode hex="0043"/>
  <anchor x="273" y="0" name="bottom"/>
  <anchor x="242" y="600" name="top"/>
  <outline>
    <contour>
      <point x="269" y="576" type="curve" smooth="yes"/>
      <point x="316" y="577"/>
      <point x="348" y="567"/>
      <point x="371" y="556" type="curve"/>
      <point x="388" y="389" type="line"/>
      <point x="396" y="387" type="line"/>
      <point x="447" y="592" type="line"/>
      <point x="384" y="612"/>
      <point x="339" y="621"/>
      <point x="286" y="621" type="curve" smooth="yes"/>
      <point x="114" y="621"/>
      <point x="26" y="492"/>
      <point x="26" y="288" type="curve" smooth="yes"/>
      <point x="26" y="109"/>
      <point x="108" y="-20"/>
      <point x="250" y="-20" type="curve" smooth="yes"/>
      <point x="328" y="-20"/>
      <point x="386" y="11"/>
      <point x="455" y="94" type="curve"/>
      <point x="443" y="109" type="line"/>
      <point x="387" y="56"/>
      <point x="346" y="37"/>
      <point x="291" y="37" type="curve" smooth="yes"/>
      <point x="178" y="37"/>
      <point x="110" y="151"/>
      <point x="110" y="306" type="curve" smooth="yes"/>
      <point x="110" y="474"/>
      <point x="169" y="576"/>
    </contour>
  </outline>
</glyph>
<glyph name="D" format="2">
	<advance width="553"/>
	<unicode hex="0044"/>
	<anchor x="271" y="0" name="bottom"/>
	<anchor x="271" y="300" name="center"/>
	<anchor x="273" y="600" name="top"/>
	<outline>
		<contour>
			<point x="10" y="0" type="line"/>
			<point x="238" y="1" type="line" smooth="yes"/>
			<point x="427" y="2"/>
			<point x="520" y="101"/>
			<point x="520" y="300" type="curve" smooth="yes"/>
			<point x="520" y="496"/>
			<point x="431" y="600"/>
			<point x="263" y="600" type="curve" smooth="yes"/>
			<point x="10" y="600" type="line"/>
			<point x="8" y="591" type="line"/>
			<point x="118" y="555" type="line"/>
			<point x="118" y="45" type="line"/>
			<point x="8" y="8" type="line"/>
		</contour>
		<contour>
			<point x="196" y="48" type="line"/>
			<point x="197" y="566" type="line"/>
			<point x="228" y="568" type="line" smooth="yes"/>
			<point x="356" y="576"/>
			<point x="432" y="479"/>
			<point x="432" y="287" type="curve" smooth="yes"/>
			<point x="432" y="121"/>
			<point x="374" y="42"/>
			<point x="253" y="46" type="curve" smooth="yes"/>
		</contour>
	</outline>
</glyph>
<glyph name="E" format="2">
  <advance width="537"/>
  <unicode hex="0045"/>
  <anchor x="304" y="0" name="bottom"/>
  <anchor x="395" y="10" name="ogonek"/>
  <anchor x="284" y="600" name="top"/>
  <anchor x="-26" y="600" name="topleft"/>
  <outline>
    <contour>
      <point x="8" y="8" type="line"/>
      <point x="10" y="0" type="line"/>
      <point x="489" y="0" type="line"/>
      <point x="468" y="219" type="line"/>
      <point x="460" y="217" type="line"/>
      <point x="412" y="43" type="line"/>
      <point x="197" y="33" type="line"/>
      <point x="197" y="275" type="line"/>
      <point x="300" y="273" type="line"/>
      <point x="360" y="151" type="line"/>
      <point x="368" y="153" type="line"/>
      <point x="349" y="293" type="line"/>
      <point x="366" y="435" type="line"/>
      <point x="358" y="437" type="line"/>
      <point x="300" y="315" type="line"/>
      <point x="197" y="313" type="line"/>
      <point x="197" y="570" type="line"/>
      <point x="408" y="564" type="line"/>
      <point x="439" y="403" type="line"/>
      <point x="447" y="401" type="line"/>
      <point x="486" y="612" type="line"/>
      <point x="10" y="600" type="line"/>
      <point x="8" y="592" type="line"/>
      <point x="118" y="555" type="line"/>
      <point x="118" y="45" type="line"/>
    </contour>
  </outline>
</glyph>
<glyph name="F" format="2">
  <advance width="474"/>
  <unicode hex="0046"/>
  <anchor x="255" y="0" name="bottom"/>
  <anchor x="267" y="600" name="top"/>
  <outline>
    <contour>
      <point x="10" y="600" type="line"/>
      <point x="8" y="592" type="line"/>
      <point x="118" y="555" type="line"/>
      <point x="118" y="45" type="line"/>
      <point x="8" y="8" type="line"/>
      <point x="10" y="0" type="line"/>
      <point x="367" y="0" type="line"/>
      <point x="369" y="8" type="line"/>
      <point x="197" y="45" type="line"/>
      <point x="197" y="265" type="line"/>
      <point x="291" y="263" type="line"/>
      <point x="351" y="141" type="line"/>
      <point x="359" y="143" type="line"/>
      <point x="340" y="283" type="line"/>
      <point x="357" y="425" type="line"/>
      <point x="349" y="427" type="line"/>
      <point x="291" y="305" type="line"/>
      <point x="198" y="303" type="line"/>
      <point x="198" y="570" type="line"/>
      <point x="398" y="564" type="line"/>
      <point x="430" y="403" type="line"/>
      <point x="438" y="401" type="line"/>
      <point x="477" y="612" type="line"/>
    </contour>
  </outline>
</glyph>
<glyph name="G" format="2">
  <advance width="522"/>
  <unicode hex="0047"/>
  <anchor x="301" y="0" name="bottom"/>
  <anchor x="280" y="600" name="top"/>
  <outline>
    <contour>
      <point x="400" y="214" type="line"/>
      <point x="443" y="-16" type="line"/>
      <point x="455" y="-18" type="line"/>
      <point x="474" y="269" type="line"/>
      <point x="264" y="269" type="line"/>
      <point x="266" y="261" type="line"/>
    </contour>
    <contour>
      <point x="288" y="576" type="curve" smooth="yes"/>
      <point x="335" y="577"/>
      <point x="367" y="567"/>
      <point x="390" y="556" type="curve"/>
      <point x="407" y="389" type="line"/>
      <point x="415" y="387" type="line"/>
      <point x="466" y="594" type="line"/>
      <point x="403" y="612"/>
      <point x="358" y="621"/>
      <point x="305" y="621" type="curve" smooth="yes"/>
      <point x="132" y="621"/>
      <point x="26" y="493"/>
      <point x="26" y="288" type="curve" smooth="yes"/>
      <point x="26" y="107"/>
      <point x="123" y="-20"/>
      <point x="266" y="-20" type="curve" smooth="yes"/>
      <point x="339" y="-20"/>
      <point x="392" y="6"/>
      <point x="448" y="64" type="curve"/>
      <point x="436" y="85" type="line"/>
      <point x="392" y="49"/>
      <point x="353" y="36"/>
      <point x="307" y="36" type="curve" smooth="yes"/>
      <point x="194" y="36"/>
      <point x="116" y="147"/>
      <point x="116" y="306" type="curve" smooth="yes"/>
      <point x="116" y="446"/>
      <point x="156" y="574"/>
    </contour>
  </outline>
</glyph>
<glyph name="H" format="2">
  <advance width="652"/>
  <unicode hex="0048"/>
  <anchor x="331" y="0" name="bottom"/>
  <anchor x="321" y="300" name="center"/>
  <anchor x="321" y="600" name="top"/>
  <anchor x="-72" y="600" name="topleft"/>
  <outline>
    <contour>
      <point x="197" y="45" type="line"/>
      <point x="197" y="555" type="line"/>
      <point x="307" y="592" type="line"/>
      <point x="305" y="600" type="line"/>
      <point x="10" y="600" type="line"/>
      <point x="8" y="592" type="line"/>
      <point x="118" y="555" type="line"/>
      <point x="118" y="45" type="line"/>
      <point x="8" y="8" type="line"/>
      <point x="10" y="0" type="line"/>
      <point x="305" y="0" type="line"/>
      <point x="307" y="8" type="line"/>
    </contour>
    <contour>
      <point x="518" y="282" type="line"/>
      <point x="518" y="319" type="line"/>
      <point x="148" y="319" type="line"/>
      <point x="148" y="282" type="line"/>
    </contour>
    <contour>
      <point x="455" y="555" type="line"/>
      <point x="455" y="45" type="line"/>
      <point x="345" y="8" type="line"/>
      <point x="347" y="0" type="line"/>
      <point x="642" y="0" type="line"/>
      <point x="644" y="8" type="line"/>
      <point x="534" y="45" type="line"/>
      <point x="534" y="555" type="line"/>
      <point x="644" y="592" type="line"/>
      <point x="642" y="600" type="line"/>
      <point x="347" y="600" type="line"/>
      <point x="345" y="592" type="line"/>
    </contour>
  </outline>
</glyph>
<glyph name="I" format="2">
	<advance width="315"/>
	<unicode hex="0049"/>
	<anchor x="146" y="13" name="ogonek"/>
	<anchor x="157" y="600" name="top"/>
	<anchor x="-42" y="600" name="topleft"/>
	<outline>
		<contour>
			<point x="9" y="8" type="line"/>
			<point x="11" y="0" type="line"/>
			<point x="305" y="0" type="line"/>
			<point x="307" y="8" type="line"/>
			<point x="197" y="45" type="line"/>
			<point x="197" y="555" type="line"/>
			<point x="305" y="592" type="line"/>
			<point x="303" y="600" type="line"/>
			<point x="10" y="600" type="line"/>
			<point x="8" y="592" type="line"/>
			<point x="118" y="555" type="line"/>
			<point x="118" y="45" type="line"/>
		</contour>
	</outline>
</glyph>
<glyph name="J" format="2">
	<advance width="431"/>
	<unicode hex="004A"/>
	<anchor x="192" y="-1" name="bottom"/>
	<anchor x="202" y="600" name="top"/>
	<outline>
		<contour>
			<point x="13" y="82" type="curve"/>
			<point x="22" y="94" type="line"/>
			<point x="73" y="55"/>
			<point x="141" y="33"/>
			<point x="198" y="33" type="curve" smooth="yes"/>
			<point x="233" y="33"/>
			<point x="264" y="59"/>
			<point x="264" y="123" type="curve" smooth="yes"/>
			<point x="264" y="588" type="line"/>
			<point x="299" y="562" type="line"/>
			<point x="149" y="559" type="line"/>
			<point x="118" y="392" type="line"/>
			<point x="110" y="390" type="line"/>
			<point x="71" y="607" type="line"/>
			<point x="343" y="600" type="line"/>
			<point x="343" y="195" type="line" smooth="yes"/>
			<point x="343" y="51"/>
			<point x="285" y="-20"/>
			<point x="194" y="-20" type="curve" smooth="yes"/>
			<point x="147" y="-20"/>
			<point x="82" y="8"/>
		</contour>
	</outline>
</glyph>
<glyph name="K" format="2">
  <advance width="605"/>
  <unicode hex="004B"/>
  <anchor x="321" y="0" name="bottom"/>
  <anchor x="301" y="600" name="top"/>
  <outline>
    <contour>
      <point x="313" y="374" type="line"/>
      <point x="266" y="313" type="line"/>
      <point x="411" y="45" type="line"/>
      <point x="322" y="8" type="line"/>
      <point x="324" y="0" type="line"/>
      <point x="598" y="0" type="line"/>
      <point x="600" y="8" type="line"/>
      <point x="495" y="45" type="line"/>
    </contour>
    <contour>
      <point x="164" y="198" type="line"/>
      <point x="164" y="132" type="line"/>
      <point x="463" y="555" type="line"/>
      <point x="575" y="592" type="line"/>
      <point x="573" y="600" type="line"/>
      <point x="323" y="600" type="line"/>
      <point x="321" y="592" type="line"/>
      <point x="409" y="555" type="line"/>
    </contour>
    <contour>
      <point x="197" y="45" type="line"/>
      <point x="197" y="555" type="line"/>
      <point x="289" y="592" type="line"/>
      <point x="287" y="600" type="line"/>
      <point x="10" y="600" type="line"/>
      <point x="8" y="592" type="line"/>
      <point x="118" y="555" type="line"/>
      <point x="118" y="45" type="line"/>
      <point x="10" y="8" type="line"/>
      <point x="12" y="0" type="line"/>
      <point x="305" y="0" type="line"/>
      <point x="307" y="8" type="line"/>
    </contour>
  </outline>
</glyph>
<glyph name="L" format="2">
  <advance width="512"/>
  <unicode hex="004C"/>
  <anchor x="254" y="0" name="bottom"/>
  <anchor x="414" y="300" name="center"/>
  <anchor x="164" y="600" name="top"/>
  <anchor x="367" y="600" name="topright"/>
  <outline>
    <contour>
      <point x="8" y="8" type="line"/>
      <point x="10" y="0" type="line"/>
      <point x="449" y="0" type="line"/>
      <point x="428" y="220" type="line"/>
      <point x="420" y="218" type="line"/>
      <point x="372" y="42" type="line"/>
      <point x="197" y="32" type="line"/>
      <point x="197" y="555" type="line"/>
      <point x="305" y="592" type="line"/>
      <point x="303" y="600" type="line"/>
      <point x="10" y="600" type="line"/>
      <point x="8" y="592" type="line"/>
      <point x="118" y="555" type="line"/>
      <point x="118" y="45" type="line"/>
    </contour>
  </outline>
</glyph>
<glyph name="M" format="2">
  <advance width="765"/>
  <unicode hex="004D"/>
  <anchor x="382" y="0" name="bottom"/>
  <anchor x="390" y="600" name="top"/>
  <outline>
    <contour>
      <point x="-4" y="8" type="line"/>
      <point x="-2" y="0" type="line"/>
      <point x="267" y="0" type="line"/>
      <point x="269" y="8" type="line"/>
      <point x="159" y="45" type="line"/>
      <point x="211" y="550" type="line"/>
      <point x="200" y="543" type="line"/>
      <point x="334" y="0" type="line"/>
      <point x="395" y="0" type="line"/>
      <point x="528" y="582" type="line"/>
      <point x="504" y="590" type="line"/>
      <point x="571" y="45" type="line"/>
      <point x="462" y="8" type="line"/>
      <point x="464" y="0" type="line"/>
      <point x="761" y="0" type="line"/>
      <point x="763" y="8" type="line"/>
      <point x="653" y="45" type="line"/>
      <point x="578" y="557" type="line"/>
      <point x="682" y="592" type="line"/>
      <point x="680" y="600" type="line"/>
      <point x="484" y="600" type="line"/>
      <point x="359" y="28" type="line"/>
      <point x="394" y="61" type="line"/>
      <point x="256" y="600" type="line"/>
      <point x="63" y="600" type="line"/>
      <point x="61" y="592" type="line"/>
      <point x="172" y="554" type="line"/>
      <point x="106" y="45" type="line"/>
    </contour>
  </outline>
</glyph>
<glyph name="N" format="2">
	<advance width="586"/>
	<unicode hex="004E"/>
	<anchor x="289" y="0" name="bottom"/>
	<anchor x="289" y="600" name="top"/>
	<outline>
		<contour>
			<point x="404" y="-11" type="line"/>
			<point x="466" y="0" type="line"/>
			<point x="468" y="555" type="line"/>
			<point x="578" y="592" type="line"/>
			<point x="576" y="600" type="line"/>
			<point x="301" y="600" type="line"/>
			<point x="299" y="592" type="line"/>
			<point x="409" y="555" type="line"/>
			<point x="417" y="80" type="line"/>
			<point x="438" y="81" type="line"/>
			<point x="191" y="600" type="line"/>
			<point x="12" y="600" type="line"/>
			<point x="10" y="592" type="line"/>
			<point x="120" y="555" type="line"/>
			<point x="114" y="45" type="line"/>
			<point x="4" y="8" type="line"/>
			<point x="6" y="0" type="line"/>
			<point x="281" y="0" type="line"/>
			<point x="283" y="8" type="line"/>
			<point x="173" y="45" type="line"/>
			<point x="168" y="527" type="line"/>
			<point x="145" y="524" type="line"/>
		</contour>
	</outline>
</glyph>
<glyph name="O" format="2">
  <advance width="529"/>
  <unicode hex="004F"/>
  <anchor x="261" y="0" name="bottom"/>
  <anchor x="261" y="300" name="center"/>
  <anchor x="343" y="10" name="ogonek"/>
  <anchor x="261" y="600" name="top"/>
  <anchor x="7" y="600" name="topleft"/>
  <anchor x="420" y="600" name="topright"/>
  <outline>
    <contour>
      <point x="250" y="-20" type="curve" smooth="yes"/>
      <point x="406" y="-20"/>
      <point x="496" y="115"/>
      <point x="496" y="309" type="curve" smooth="yes"/>
      <point x="496" y="492"/>
      <point x="415" y="620"/>
      <point x="272" y="620" type="curve" smooth="yes"/>
      <point x="116" y="620"/>
      <point x="26" y="488"/>
      <point x="26" y="298" type="curve" smooth="yes"/>
      <point x="26" y="111"/>
      <point x="107" y="-20"/>
    </contour>
    <contour>
      <point x="273" y="28" type="curve" smooth="yes"/>
      <point x="167" y="28"/>
      <point x="111" y="152"/>
      <point x="111" y="327" type="curve" smooth="yes"/>
      <point x="111" y="471"/>
      <point x="163" y="572"/>
      <point x="250" y="572" type="curve" smooth="yes"/>
      <point x="355" y="572"/>
      <point x="412" y="452"/>
      <point x="412" y="281" type="curve" smooth="yes"/>
      <point x="412" y="132"/>
      <point x="358" y="28"/>
    </contour>
  </outline>
</glyph>
<glyph name="P" format="2">
  <advance width="498"/>
  <unicode hex="0050"/>
  <anchor x="261" y="0" name="bottom"/>
  <anchor x="261" y="600" name="top"/>
  <outline>
    <contour>
      <point x="8" y="8" type="line"/>
      <point x="10" y="0" type="line"/>
      <point x="335" y="0" type="line"/>
      <point x="337" y="8" type="line"/>
      <point x="197" y="47" type="line"/>
      <point x="197" y="256" type="line"/>
      <point x="273" y="256" type="line" smooth="yes"/>
      <point x="384" y="256"/>
      <point x="470" y="333"/>
      <point x="470" y="431" type="curve" smooth="yes"/>
      <point x="470" y="524"/>
      <point x="391" y="600"/>
      <point x="296" y="600" type="curve" smooth="yes"/>
      <point x="10" y="600" type="line"/>
      <point x="8" y="592" type="line"/>
      <point x="118" y="555" type="line"/>
      <point x="118" y="45" type="line"/>
    </contour>
    <contour>
      <point x="197" y="297" type="line"/>
      <point x="197" y="562" type="line"/>
      <point x="261" y="566" type="line" smooth="yes"/>
      <point x="327" y="570"/>
      <point x="385" y="510"/>
      <point x="385" y="416" type="curve" smooth="yes"/>
      <point x="385" y="341"/>
      <point x="326" y="285"/>
      <point x="259" y="291" type="curve" smooth="yes"/>
    </contour>
  </outline>
</glyph>
<glyph name="Q" format="2">
  <advance width="529"/>
  <unicode hex="0051"/>
  <anchor x="263" y="0" name="bottom"/>
  <anchor x="261" y="300" name="center"/>
  <anchor x="343" y="10" name="ogonek"/>
  <anchor x="263" y="600" name="top"/>
  <anchor x="7" y="600" name="topleft"/>
  <anchor x="420" y="600" name="topright"/>
  <outline>
    <contour>
      <point x="186" y="203" type="curve" smooth="yes"/>
      <point x="245" y="203"/>
      <point x="280" y="145"/>
      <point x="280" y="48" type="curve" smooth="yes"/>
      <point x="280" y="-53"/>
      <point x="242" y="-130"/>
      <point x="162" y="-193" type="curve"/>
      <point x="171" y="-202" type="line"/>
      <point x="283" y="-149"/>
      <point x="352" y="-37"/>
      <point x="352" y="92" type="curve" smooth="yes"/>
      <point x="352" y="197"/>
      <point x="309" y="252"/>
      <point x="227" y="252" type="curve" smooth="yes"/>
      <point x="159" y="252"/>
      <point x="111" y="215"/>
      <point x="98" y="161" type="curve"/>
      <point x="111" y="143" type="line"/>
      <point x="130" y="187"/>
      <point x="155" y="203"/>
    </contour>
    <contour>
      <point x="250" y="-20" type="curve" smooth="yes"/>
      <point x="406" y="-20"/>
      <point x="496" y="115"/>
      <point x="496" y="309" type="curve" smooth="yes"/>
      <point x="496" y="492"/>
      <point x="415" y="620"/>
      <point x="272" y="620" type="curve" smooth="yes"/>
      <point x="116" y="620"/>
      <point x="26" y="488"/>
      <point x="26" y="298" type="curve" smooth="yes"/>
      <point x="26" y="111"/>
      <point x="107" y="-20"/>
    </contour>
    <contour>
      <point x="273" y="26" type="curve" smooth="yes"/>
      <point x="167" y="26"/>
      <point x="106" y="152"/>
      <point x="106" y="327" type="curve" smooth="yes"/>
      <point x="106" y="471"/>
      <point x="163" y="574"/>
      <point x="250" y="574" type="curve" smooth="yes"/>
      <point x="355" y="574"/>
      <point x="416" y="452"/>
      <point x="416" y="281" type="curve" smooth="yes"/>
      <point x="416" y="132"/>
      <point x="358" y="26"/>
    </contour>
  </outline>
</glyph>
<glyph name="R" format="2">
  <advance width="529"/>
  <unicode hex="0052"/>
  <anchor x="272" y="0" name="bottom"/>
  <anchor x="261" y="600" name="top"/>
  <outline>
    <contour>
      <point x="197" y="253" type="line"/>
      <point x="286" y="254" type="line" smooth="yes"/>
      <point x="414" y="255"/>
      <point x="493" y="325"/>
      <point x="493" y="430" type="curve" smooth="yes"/>
      <point x="493" y="523"/>
      <point x="402" y="600"/>
      <point x="306" y="600" type="curve" smooth="yes"/>
      <point x="10" y="600" type="line"/>
      <point x="8" y="592" type="line"/>
      <point x="118" y="555" type="line"/>
      <point x="118" y="45" type="line"/>
      <point x="8" y="8" type="line"/>
      <point x="10" y="0" type="line"/>
      <point x="272" y="0" type="line"/>
      <point x="274" y="8" type="line"/>
      <point x="197" y="45" type="line"/>
    </contour>
    <contour>
      <point x="197" y="295" type="line"/>
      <point x="197" y="564" type="line"/>
      <point x="271" y="563" type="line" smooth="yes"/>
      <point x="336" y="562"/>
      <point x="408" y="490"/>
      <point x="408" y="414" type="curve" smooth="yes"/>
      <point x="408" y="341"/>
      <point x="349" y="282"/>
      <point x="254" y="290" type="curve" smooth="yes"/>
    </contour>
    <contour>
      <point x="331" y="272" type="line"/>
      <point x="249" y="275" type="line"/>
      <point x="360" y="45" type="line"/>
      <point x="300" y="8" type="line"/>
      <point x="302" y="0" type="line"/>
      <point x="520" y="0" type="line"/>
      <point x="522" y="8" type="line"/>
      <point x="444" y="45" type="line"/>
    </contour>
  </outline>
</glyph>
<glyph name="S" format="2">
	<advance width="406"/>
	<unicode hex="0053"/>
	<anchor x="204" y="0" name="bottom"/>
	<anchor x="198" y="600" name="top"/>
	<outline>
		<contour>
			<point x="14" y="17" type="line"/>
			<point x="57" y="-4"/>
			<point x="140" y="-20"/>
			<point x="201" y="-20" type="curve" smooth="yes"/>
			<point x="316" y="-20"/>
			<point x="392" y="55"/>
			<point x="392" y="167" type="curve" smooth="yes"/>
			<point x="392" y="244"/>
			<point x="355" y="289"/>
			<point x="251" y="337" type="curve" smooth="yes"/>
			<point x="190" y="365" type="line" smooth="yes"/>
			<point x="131" y="393"/>
			<point x="101" y="433"/>
			<point x="101" y="486" type="curve" smooth="yes"/>
			<point x="101" y="544"/>
			<point x="135" y="577"/>
			<point x="195" y="577" type="curve" smooth="yes"/>
			<point x="227" y="577"/>
			<point x="268" y="568"/>
			<point x="284" y="557" type="curve"/>
			<point x="300" y="415" type="line"/>
			<point x="307" y="413" type="line"/>
			<point x="359" y="587" type="line"/>
			<point x="327" y="605"/>
			<point x="253" y="620"/>
			<point x="198" y="620" type="curve" smooth="yes"/>
			<point x="98" y="620"/>
			<point x="38" y="563"/>
			<point x="36" y="464" type="curve" smooth="yes"/>
			<point x="35" y="385"/>
			<point x="72" y="328"/>
			<point x="151" y="291" type="curve" smooth="yes"/>
			<point x="222" y="258" type="line" smooth="yes"/>
			<point x="296" y="223"/>
			<point x="326" y="186"/>
			<point x="326" y="132" type="curve" smooth="yes"/>
			<point x="326" y="62"/>
			<point x="289" y="27"/>
			<point x="215" y="27" type="curve" smooth="yes"/>
			<point x="168" y="27"/>
			<point x="112" y="38"/>
			<point x="88" y="52" type="curve"/>
			<point x="73" y="217" type="line"/>
			<point x="65" y="219" type="line"/>
		</contour>
	</outline>
</glyph>
<glyph name="T" format="2">
  <advance width="499"/>
  <unicode hex="0054"/>
  <anchor x="268" y="0" name="bottom"/>
  <anchor x="247" y="300" name="center"/>
  <anchor x="250" y="600" name="top"/>
  <outline>
    <contour>
      <point x="23" y="612" type="line"/>
      <point x="62" y="401" type="line"/>
      <point x="70" y="403" type="line"/>
      <point x="101" y="564" type="line"/>
      <point x="210" y="571" type="line"/>
      <point x="210" y="45" type="line"/>
      <point x="100" y="8" type="line"/>
      <point x="102" y="0" type="line"/>
      <point x="398" y="0" type="line"/>
      <point x="400" y="8" type="line"/>
      <point x="290" y="45" type="line"/>
      <point x="290" y="571" type="line"/>
      <point x="398" y="564" type="line"/>
      <point x="429" y="403" type="line"/>
      <point x="437" y="401" type="line"/>
      <point x="476" y="612" type="line"/>
      <point x="250" y="600" type="line"/>
    </contour>
  </outline>
</glyph>
<glyph name="U" format="2">
  <advance width="568"/>
  <unicode hex="0055"/>
  <anchor x="279" y="0" name="bottom"/>
  <anchor x="355" y="10" name="ogonek"/>
  <anchor x="279" y="600" name="top"/>
  <anchor x="597" y="600" name="topright"/>
  <outline>
    <contour>
      <point x="90" y="174" type="line" smooth="yes"/>
      <point x="90" y="42"/>
      <point x="150" y="-20"/>
      <point x="275" y="-20" type="curve" smooth="yes"/>
      <point x="406" y="-20"/>
      <point x="472" y="48"/>
      <point x="474" y="186" type="curve" smooth="yes"/>
      <point x="478" y="556" type="line"/>
      <point x="570" y="592" type="line"/>
      <point x="568" y="600" type="line"/>
      <point x="319" y="600" type="line"/>
      <point x="317" y="592" type="line"/>
      <point x="414" y="556" type="line"/>
      <point x="418" y="156" type="line" smooth="yes"/>
      <point x="419" y="72"/>
      <point x="379" y="29"/>
      <point x="302" y="29" type="curve" smooth="yes"/>
      <point x="212" y="29"/>
      <point x="168" y="87"/>
      <point x="168" y="205" type="curve" smooth="yes"/>
      <point x="168" y="556" type="line"/>
      <point x="265" y="592" type="line"/>
      <point x="263" y="600" type="line"/>
      <point x="-1" y="600" type="line"/>
      <point x="-3" y="592" type="line"/>
      <point x="90" y="556" type="line"/>
    </contour>
  </outline>
</glyph>
<glyph name="V" format="2">
  <advance width="524"/>
  <unicode hex="0056"/>
  <anchor x="280" y="0" name="bottom"/>
  <anchor x="275" y="600" name="top"/>
  <outline>
    <contour>
      <point x="-28" y="592" type="line"/>
      <point x="53" y="555" type="line"/>
      <point x="238" y="0" type="line"/>
      <point x="294" y="0" type="line"/>
      <point x="466" y="555" type="line"/>
      <point x="546" y="592" type="line"/>
      <point x="544" y="600" type="line"/>
      <point x="300" y="600" type="line"/>
      <point x="298" y="592" type="line"/>
      <point x="408" y="555" type="line"/>
      <point x="258" y="35" type="line"/>
      <point x="301" y="41" type="line"/>
      <point x="142" y="555" type="line"/>
      <point x="252" y="592" type="line"/>
      <point x="250" y="600" type="line"/>
      <point x="-26" y="600" type="line"/>
    </contour>
  </outline>
</glyph>
<glyph name="W" format="2">
  <advance width="666"/>
  <unicode hex="0057"/>
  <anchor x="339" y="0" name="bottom"/>
  <anchor x="339" y="600" name="top"/>
  <outline>
    <contour>
      <point x="-48" y="592" type="line"/>
      <point x="45" y="555" type="line"/>
      <point x="193" y="0" type="line"/>
      <point x="251" y="0" type="line"/>
      <point x="352" y="585" type="line"/>
      <point x="316" y="574" type="line"/>
      <point x="442" y="0" type="line"/>
      <point x="509" y="0" type="line"/>
      <point x="617" y="555" type="line"/>
      <point x="709" y="592" type="line"/>
      <point x="707" y="600" type="line"/>
      <point x="467" y="600" type="line"/>
      <point x="465" y="592" type="line"/>
      <point x="563" y="555" type="line"/>
      <point x="478" y="22" type="line"/>
      <point x="500" y="35" type="line"/>
      <point x="386" y="600" type="line"/>
      <point x="308" y="579" type="line"/>
      <point x="220" y="60" type="line"/>
      <point x="241" y="60" type="line"/>
      <point x="129" y="555" type="line"/>
      <point x="227" y="592" type="line"/>
      <point x="224" y="600" type="line"/>
      <point x="-46" y="600" type="line"/>
    </contour>
  </outline>
</glyph>
<glyph name="X" format="2">
  <advance width="571"/>
  <unicode hex="0058"/>
  <anchor x="283" y="0" name="bottom"/>
  <anchor x="296" y="600" name="top"/>
  <outline>
    <contour>
      <point x="265" y="302" type="line"/>
      <point x="292" y="268" type="line"/>
      <point x="467" y="555" type="line"/>
      <point x="544" y="592" type="line"/>
      <point x="542" y="600" type="line"/>
      <point x="309" y="600" type="line"/>
      <point x="307" y="592" type="line"/>
      <point x="407" y="555" type="line"/>
    </contour>
    <contour>
      <point x="294" y="300" type="line"/>
      <point x="267" y="334" type="line"/>
      <point x="86" y="45" type="line"/>
      <point x="8" y="8" type="line"/>
      <point x="10" y="0" type="line"/>
      <point x="243" y="0" type="line"/>
      <point x="245" y="8" type="line"/>
      <point x="145" y="45" type="line"/>
    </contour>
    <contour>
      <point x="483" y="45" type="line"/>
      <point x="182" y="555" type="line"/>
      <point x="282" y="592" type="line"/>
      <point x="279" y="600" type="line"/>
      <point x="19" y="600" type="line"/>
      <point x="17" y="592" type="line"/>
      <point x="97" y="555" type="line"/>
      <point x="396" y="45" type="line"/>
      <point x="296" y="8" type="line"/>
      <point x="298" y="0" type="line"/>
      <point x="561" y="0" type="line"/>
      <point x="563" y="8" type="line"/>
    </contour>
  </outline>
</glyph>
<glyph name="Y" format="2">
  <advance width="529"/>
  <unicode hex="0059"/>
  <anchor x="263" y="0" name="bottom"/>
  <anchor x="266" y="600" name="top"/>
  <anchor x="-69" y="600" name="topleft"/>
  <outline>
    <contour>
      <point x="-13" y="592" type="line"/>
      <point x="67" y="555" type="line"/>
      <point x="219" y="250" type="line"/>
      <point x="219" y="45" type="line"/>
      <point x="109" y="8" type="line"/>
      <point x="111" y="0" type="line"/>
      <point x="406" y="0" type="line"/>
      <point x="408" y="8" type="line"/>
      <point x="298" y="45" type="line"/>
      <point x="298" y="251" type="line"/>
      <point x="436" y="555" type="line"/>
      <point x="516" y="592" type="line"/>
      <point x="514" y="600" type="line"/>
      <point x="280" y="600" type="line"/>
      <point x="278" y="592" type="line"/>
      <point x="378" y="555" type="line"/>
      <point x="256" y="250" type="line"/>
      <point x="291" y="249" type="line"/>
      <point x="149" y="555" type="line"/>
      <point x="249" y="592" type="line"/>
      <point x="247" y="600" type="line"/>
      <point x="-11" y="600" type="line"/>
    </contour>
  </outline>
</glyph>
<glyph name="Z" format="2">
  <advance width="440"/>
  <unicode hex="005A"/>
  <anchor x="245" y="0" name="bottom"/>
  <anchor x="241" y="300" name="center"/>
  <anchor x="240" y="600" name="top"/>
  <outline>
    <contour>
      <point x="27" y="0" type="line"/>
      <point x="432" y="0" type="line"/>
      <point x="412" y="224" type="line"/>
      <point x="404" y="222" type="line"/>
      <point x="355" y="48" type="line"/>
      <point x="68" y="34" type="line"/>
      <point x="82" y="9" type="line"/>
      <point x="412" y="574" type="line"/>
      <point x="393" y="600" type="line"/>
      <point x="26" y="612" type="line"/>
      <point x="76" y="401" type="line"/>
      <point x="84" y="403" type="line"/>
      <point x="103" y="564" type="line"/>
      <point x="355" y="568" type="line"/>
      <point x="340" y="592" type="line"/>
      <point x="8" y="26" type="line"/>
    </contour>
  </outline>
</glyph>
<glyph name="bracketleft" format="2">
  <advance width="342"/>
  <unicode hex="005B"/>
  <outline>
    <contour>
      <point x="98" y="-107" type="line"/>
      <point x="302" y="-107" type="line"/>
      <point x="304" y="-99" type="line"/>
      <point x="166" y="-58" type="line"/>
      <point x="166" y="641" type="line"/>
      <point x="304" y="682" type="line"/>
      <point x="302" y="690" type="line"/>
      <point x="98" y="690" type="line"/>
    </contour>
  </outline>
</glyph>
<glyph name="asciicircum" format="2">
	<advance width="532"/>
	<unicode hex="005E"/>
	<outline>
		<contour>
			<point x="294" y="602" type="line"/>
			<point x="235" y="602" type="line"/>
			<point x="58" y="418" type="line"/>
			<point x="135" y="418" type="line"/>
			<point x="295" y="592" type="line"/>
			<point x="233" y="592" type="line"/>
			<point x="398" y="418" type="line"/>
			<point x="474" y="418" type="line"/>
		</contour>
	</outline>
</glyph>
<glyph name="underscore" format="2">
	<advance width="599"/>
	<unicode hex="005F"/>
	<outline>
		<contour>
			<point x="38" y="43" type="line"/>
			<point x="38" y="0" type="line"/>
			<point x="561" y="0" type="line"/>
			<point x="561" y="43" type="line"/>
		</contour>
	</outline>
</glyph>
<glyph name="a" format="2">
  <advance width="425"/>
  <unicode hex="0061"/>
  <anchor x="222" y="0" name="bottom"/>
  <anchor x="278" y="10" name="ogonek"/>
  <anchor x="194" y="402" name="top"/>
  <outline>
    <contour>
      <point x="28" y="115" type="curve" smooth="yes"/>
      <point x="28" y="34"/>
      <point x="77" y="-20"/>
      <point x="152" y="-20" type="curve" smooth="yes"/>
      <point x="194" y="-20"/>
      <point x="230" y="-2"/>
      <point x="262" y="35" type="curve"/>
      <point x="262" y="-23" type="line"/>
      <point x="425" y="51" type="line"/>
      <point x="423" y="59" type="line"/>
      <point x="323" y="56" type="line"/>
      <point x="328" y="254" type="line" smooth="yes"/>
      <point x="331" y="376"/>
      <point x="295" y="422"/>
      <point x="196" y="422" type="curve" smooth="yes"/>
      <point x="146" y="422"/>
      <point x="104" y="411"/>
      <point x="44" y="382" type="curve"/>
      <point x="91" y="269" type="line"/>
      <point x="99" y="271" type="line"/>
      <point x="100" y="369" type="line"/>
      <point x="115" y="377"/>
      <point x="139" y="382"/>
      <point x="164" y="382" type="curve" smooth="yes"/>
      <point x="242" y="382"/>
      <point x="269" y="335"/>
      <point x="262" y="214" type="curve"/>
      <point x="278" y="228" type="line"/>
      <point x="246" y="247"/>
      <point x="198" y="260"/>
      <point x="161" y="260" type="curve" smooth="yes"/>
      <point x="83" y="260"/>
      <point x="28" y="201"/>
    </contour>
    <contour>
      <point x="98" y="130" type="curve" smooth="yes"/>
      <point x="98" y="189"/>
      <point x="128" y="223"/>
      <point x="179" y="223" type="curve" smooth="yes"/>
      <point x="206" y="223"/>
      <point x="240" y="214"/>
      <point x="262" y="201" type="curve"/>
      <point x="262" y="65" type="line"/>
      <point x="249" y="42"/>
      <point x="210" y="23"/>
      <point x="179" y="23" type="curve" smooth="yes"/>
      <point x="132" y="23"/>
      <point x="98" y="67"/>
    </contour>
  </outline>
</glyph>
<glyph name="b" format="2">
  <advance width="413"/>
  <unicode hex="0062"/>
  <anchor x="216" y="0" name="bottom"/>
  <anchor x="216" y="205" name="center"/>
  <anchor x="214" y="402" name="top"/>
  <outline>
    <contour>
      <point x="111" y="53" type="curve"/>
      <point x="111" y="311" type="line"/>
      <point x="138" y="356"/>
      <point x="167" y="375"/>
      <point x="199" y="375" type="curve" smooth="yes"/>
      <point x="264" y="375"/>
      <point x="306" y="301"/>
      <point x="306" y="188" type="curve" smooth="yes"/>
      <point x="306" y="83"/>
      <point x="267" y="20"/>
      <point x="198" y="20" type="curve" smooth="yes"/>
      <point x="166" y="20"/>
      <point x="132" y="33"/>
    </contour>
    <contour>
      <point x="-73" y="635" type="line"/>
      <point x="-69" y="627" type="line"/>
      <point x="38" y="635" type="line"/>
      <point x="38" y="37" type="line"/>
      <point x="74" y="4"/>
      <point x="134" y="-20"/>
      <point x="192" y="-20" type="curve" smooth="yes"/>
      <point x="298" y="-20"/>
      <point x="379" y="82"/>
      <point x="379" y="216" type="curve" smooth="yes"/>
      <point x="379" y="339"/>
      <point x="317" y="422"/>
      <point x="224" y="422" type="curve" smooth="yes"/>
      <point x="180" y="422"/>
      <point x="143" y="404"/>
      <point x="111" y="357" type="curve"/>
      <point x="111" y="710" type="line"/>
    </contour>
  </outline>
</glyph>
<glyph name="c" format="2">
	<advance width="374"/>
	<unicode hex="0063"/>
	<anchor x="227" y="0" name="bottom"/>
	<anchor x="207" y="400" name="top"/>
	<outline>
		<contour>
			<point x="356" y="76" type="curve"/>
			<point x="344" y="84" type="line"/>
			<point x="307" y="44"/>
			<point x="271" y="27"/>
			<point x="236" y="27" type="curve" smooth="yes"/>
			<point x="169" y="27"/>
			<point x="99" y="95"/>
			<point x="99" y="219" type="curve" smooth="yes"/>
			<point x="99" y="332"/>
			<point x="144" y="388"/>
			<point x="208" y="388" type="curve" smooth="yes"/>
			<point x="244" y="388"/>
			<point x="264" y="383"/>
			<point x="277" y="376" type="curve"/>
			<point x="297" y="275" type="line"/>
			<point x="305" y="273" type="line"/>
			<point x="341" y="399" type="line"/>
			<point x="309" y="413"/>
			<point x="256" y="422"/>
			<point x="225" y="422" type="curve" smooth="yes"/>
			<point x="109" y="422"/>
			<point x="29" y="331"/>
			<point x="29" y="200" type="curve" smooth="yes"/>
			<point x="29" y="70"/>
			<point x="101" y="-20"/>
			<point x="205" y="-20" type="curve" smooth="yes"/>
			<point x="265" y="-20"/>
			<point x="309" y="11"/>
		</contour>
	</outline>
</glyph>
<glyph name="d" format="2">
	<advance width="457"/>
	<unicode hex="0064"/>
	<anchor x="334" y="537" name="bar"/>
	<anchor x="116" y="0" name="bottom"/>
	<anchor x="114" y="205" name="center"/>
	<anchor x="129" y="690" name="top"/>
	<anchor x="437" y="690" name="topright"/>
	<outline>
		<contour>
			<point x="29" y="186" type="curve" smooth="yes"/>
			<point x="29" y="65"/>
			<point x="92" y="-20"/>
			<point x="184" y="-20" type="curve" smooth="yes"/>
			<point x="231" y="-20"/>
			<point x="269" y="2"/>
			<point x="300" y="48" type="curve"/>
			<point x="300" y="-13" type="line"/>
			<point x="479" y="59" type="line"/>
			<point x="477" y="67" type="line"/>
			<point x="370" y="57" type="line"/>
			<point x="370" y="712" type="line"/>
			<point x="186" y="635" type="line"/>
			<point x="190" y="627" type="line"/>
			<point x="297" y="635" type="line"/>
			<point x="297" y="391" type="line"/>
			<point x="273" y="411"/>
			<point x="243" y="422"/>
			<point x="215" y="422" type="curve" smooth="yes"/>
			<point x="110" y="422"/>
			<point x="29" y="316"/>
		</contour>
		<contour>
			<point x="297" y="346" type="curve"/>
			<point x="297" y="90" type="line"/>
			<point x="273" y="48"/>
			<point x="242" y="27"/>
			<point x="209" y="27" type="curve" smooth="yes"/>
			<point x="144" y="27"/>
			<point x="102" y="102"/>
			<point x="102" y="214" type="curve" smooth="yes"/>
			<point x="102" y="318"/>
			<point x="141" y="382"/>
			<point x="208" y="382" type="curve" smooth="yes"/>
			<point x="241" y="382"/>
			<point x="276" y="368"/>
		</contour>
	</outline>
</glyph>
<glyph name="e" format="2">
  <advance width="395"/>
  <unicode hex="0065"/>
  <anchor x="205" y="0" name="bottom"/>
  <anchor x="273" y="10" name="ogonek"/>
  <anchor x="217" y="402" name="top"/>
  <outline>
    <contour>
      <point x="76" y="227" type="line"/>
      <point x="78" y="204" type="line"/>
      <point x="361" y="200" type="line"/>
      <point x="359" y="344"/>
      <point x="305" y="422"/>
      <point x="209" y="422" type="curve" smooth="yes"/>
      <point x="103" y="422"/>
      <point x="29" y="330"/>
      <point x="29" y="198" type="curve" smooth="yes"/>
      <point x="29" y="65"/>
      <point x="97" y="-20"/>
      <point x="205" y="-20" type="curve" smooth="yes"/>
      <point x="269" y="-20"/>
      <point x="311" y="11"/>
      <point x="361" y="78" type="curve"/>
      <point x="349" y="86" type="line"/>
      <point x="303" y="36"/>
      <point x="264" y="17"/>
      <point x="224" y="17" type="curve" smooth="yes"/>
      <point x="152" y="17"/>
      <point x="97" y="107"/>
      <point x="97" y="230" type="curve" smooth="yes"/>
      <point x="97" y="328"/>
      <point x="136" y="386"/>
      <point x="200" y="386" type="curve" smooth="yes"/>
      <point x="254" y="386"/>
      <point x="282" y="341"/>
      <point x="283" y="243" type="curve"/>
    </contour>
  </outline>
</glyph>
<glyph name="f" format="2">
	<advance width="344"/>
	<unicode hex="0066"/>
	<anchor x="105" y="0" name="bottom"/>
	<anchor x="105" y="702" name="top"/>
	<outline>
		<contour>
			<point x="98" y="520" type="curve" smooth="yes"/>
			<point x="98" y="405" type="line"/>
			<point x="-12" y="375" type="line"/>
			<point x="-10" y="365" type="line"/>
			<point x="98" y="365" type="line"/>
			<point x="99" y="51" type="line"/>
			<point x="-23" y="8" type="line"/>
			<point x="-21" y="0" type="line"/>
			<point x="321" y="0" type="line"/>
			<point x="323" y="8" type="line"/>
			<point x="171" y="50" type="line"/>
			<point x="171" y="368" type="line"/>
			<point x="263" y="367" type="line"/>
			<point x="281" y="275" type="line"/>
			<point x="289" y="273" type="line"/>
			<point x="330" y="401" type="line"/>
			<point x="171" y="402" type="line"/>
			<point x="171" y="577" type="line" smooth="yes"/>
			<point x="171" y="664"/>
			<point x="177" y="676"/>
			<point x="229" y="678" type="curve" smooth="yes"/>
			<point x="257" y="679"/>
			<point x="291" y="672"/>
			<point x="309" y="662" type="curve"/>
			<point x="324" y="559" type="line"/>
			<point x="332" y="557" type="line"/>
			<point x="366" y="685" type="line"/>
			<point x="329" y="698"/>
			<point x="277" y="712"/>
			<point x="228" y="712" type="curve" smooth="yes"/>
			<point x="130" y="712"/>
			<point x="98" y="647"/>
		</contour>
	</outline>
</glyph>
<glyph name="g" format="2">
	<advance width="374"/>
	<unicode hex="0067"/>
	<anchor x="195" y="-252" name="bottom"/>
	<anchor x="195" y="402" name="top"/>
	<outline>
		<contour>
			<point x="19" y="176"/>
			<point x="82" y="117"/>
			<point x="172" y="117" type="curve" smooth="yes"/>
			<point x="263" y="117"/>
			<point x="328" y="185"/>
			<point x="328" y="278" type="curve" smooth="yes"/>
			<point x="328" y="342"/>
			<point x="298" y="392"/>
			<point x="250" y="399" type="curve"/>
			<point x="246" y="372" type="line"/>
			<point x="386" y="413" type="line"/>
			<point x="384" y="422" type="line"/>
			<point x="184" y="422" type="line" smooth="yes"/>
			<point x="92" y="422"/>
			<point x="19" y="350"/>
			<point x="19" y="259" type="curve" smooth="yes"/>
		</contour>
		<contour>
			<point x="90" y="273" type="curve" smooth="yes"/>
			<point x="91" y="348"/>
			<point x="123" y="391"/>
			<point x="170" y="391" type="curve" smooth="yes"/>
			<point x="224" y="391"/>
			<point x="256" y="345"/>
			<point x="257" y="264" type="curve" smooth="yes"/>
			<point x="258" y="185"/>
			<point x="233" y="148"/>
			<point x="181" y="148" type="curve" smooth="yes"/>
			<point x="124" y="148"/>
			<point x="89" y="196"/>
		</contour>
		<contour>
			<point x="198" y="134" type="line"/>
			<point x="147" y="142" type="line"/>
			<point x="25" y="48" type="line"/>
			<point x="24" y="16" type="line"/>
			<point x="224" y="-22" type="line" smooth="yes"/>
			<point x="270" y="-31"/>
			<point x="304" y="-74"/>
			<point x="304" y="-123" type="curve" smooth="yes"/>
			<point x="304" y="-184"/>
			<point x="260" y="-225"/>
			<point x="196" y="-225" type="curve" smooth="yes"/>
			<point x="124" y="-225"/>
			<point x="67" y="-174"/>
			<point x="67" y="-115" type="curve" smooth="yes"/>
			<point x="67" y="-68"/>
			<point x="101" y="-11"/>
			<point x="144" y="23" type="curve"/>
			<point x="109" y="26" type="line"/>
			<point x="26" y="-41"/>
			<point x="-3" y="-81"/>
			<point x="-3" y="-128" type="curve" smooth="yes"/>
			<point x="-3" y="-204"/>
			<point x="70" y="-262"/>
			<point x="173" y="-262" type="curve" smooth="yes"/>
			<point x="287" y="-262"/>
			<point x="376" y="-194"/>
			<point x="376" y="-103" type="curve" smooth="yes"/>
			<point x="376" y="-41"/>
			<point x="331" y="10"/>
			<point x="255" y="26" type="curve" smooth="yes"/>
			<point x="57" y="68" type="line"/>
			<point x="68" y="38" type="line"/>
		</contour>
	</outline>
</glyph>
<glyph name="h" format="2">
	<advance width="527"/>
	<unicode hex="0068"/>
	<anchor x="144" y="537" name="bar"/>
	<anchor x="251" y="0" name="bottom"/>
	<anchor x="252" y="375" name="center"/>
	<anchor x="245" y="692" name="top"/>
	<outline>
		<contour>
			<point x="139" y="312" type="curve"/>
			<point x="139" y="276" type="line"/>
			<point x="189" y="343"/>
			<point x="228" y="371"/>
			<point x="268" y="371" type="curve" smooth="yes"/>
			<point x="318" y="371"/>
			<point x="346" y="329"/>
			<point x="346" y="253" type="curve" smooth="yes"/>
			<point x="346" y="45" type="line"/>
			<point x="266" y="8" type="line"/>
			<point x="268" y="0" type="line"/>
			<point x="517" y="0" type="line"/>
			<point x="519" y="8" type="line"/>
			<point x="418" y="44" type="line"/>
			<point x="418" y="264" type="line" smooth="yes"/>
			<point x="418" y="364"/>
			<point x="378" y="422"/>
			<point x="306" y="422" type="curve" smooth="yes"/>
			<point x="250" y="422"/>
			<point x="198" y="387"/>
		</contour>
		<contour>
			<point x="-18" y="629" type="line"/>
			<point x="89" y="637" type="line"/>
			<point x="89" y="45" type="line"/>
			<point x="-21" y="6" type="line"/>
			<point x="-19" y="0" type="line"/>
			<point x="233" y="0" type="line"/>
			<point x="235" y="8" type="line"/>
			<point x="162" y="45" type="line"/>
			<point x="162" y="712" type="line"/>
			<point x="-22" y="637" type="line"/>
		</contour>
	</outline>
</glyph>
<glyph name="k" format="2">
	<advance width="462"/>
	<unicode hex="006B"/>
	<anchor x="251" y="0" name="bottom"/>
	<anchor x="240" y="692" name="top"/>
	<outline>
		<contour>
			<point x="141" y="118" type="line"/>
			<point x="340" y="357" type="line"/>
			<point x="431" y="394" type="line"/>
			<point x="429" y="402" type="line"/>
			<point x="211" y="402" type="line"/>
			<point x="209" y="394" type="line"/>
			<point x="289" y="357" type="line"/>
			<point x="115" y="146" type="line"/>
		</contour>
		<contour>
			<point x="-18" y="629" type="line"/>
			<point x="89" y="637" type="line"/>
			<point x="89" y="47" type="line"/>
			<point x="-21" y="8" type="line"/>
			<point x="-19" y="0" type="line"/>
			<point x="223" y="0" type="line"/>
			<point x="225" y="8" type="line"/>
			<point x="162" y="47" type="line"/>
			<point x="162" y="712" type="line"/>
			<point x="-22" y="637" type="line"/>
		</contour>
		<contour>
			<point x="234" y="259" type="line"/>
			<point x="185" y="218" type="line"/>
			<point x="311" y="35" type="line"/>
			<point x="250" y="8" type="line"/>
			<point x="252" y="0" type="line"/>
			<point x="471" y="0" type="line"/>
			<point x="473" y="8" type="line"/>
			<point x="387" y="41" type="line"/>
		</contour>
	</outline>
</glyph>
<glyph name="l" format="2">
	<advance width="259"/>
	<unicode hex="006C"/>
	<anchor x="126" y="0" name="bottom"/>
	<anchor x="126" y="375" name="center"/>
	<anchor x="126" y="650" name="top"/>
	<anchor x="238" y="692" name="topright"/>
	<outline>
		<contour>
			<point x="-18" y="629" type="line"/>
			<point x="89" y="637" type="line"/>
			<point x="89" y="47" type="line"/>
			<point x="-21" y="8" type="line"/>
			<point x="-19" y="0" type="line"/>
			<point x="270" y="0" type="line"/>
			<point x="272" y="8" type="line"/>
			<point x="162" y="47" type="line"/>
			<point x="162" y="712" type="line"/>
			<point x="-22" y="637" type="line"/>
		</contour>
	</outline>
</glyph>
<glyph name="m" format="2">
	<advance width="790"/>
	<unicode hex="006D"/>
	<anchor x="444" y="0" name="bottom"/>
	<anchor x="446" y="402" name="top"/>
	<outline>
		<contour>
			<point x="450" y="302" type="line"/>
			<point x="487" y="352"/>
			<point x="513" y="370"/>
			<point x="549" y="370" type="curve" smooth="yes"/>
			<point x="593" y="370"/>
			<point x="608" y="344"/>
			<point x="608" y="266" type="curve" smooth="yes"/>
			<point x="608" y="45" type="line"/>
			<point x="539" y="8" type="line"/>
			<point x="541" y="0" type="line"/>
			<point x="780" y="1" type="line"/>
			<point x="782" y="9" type="line"/>
			<point x="681" y="44" type="line"/>
			<point x="681" y="276" type="line" smooth="yes"/>
			<point x="681" y="382"/>
			<point x="656" y="422"/>
			<point x="591" y="422" type="curve" smooth="yes"/>
			<point x="526" y="422"/>
			<point x="470" y="379"/>
			<point x="418" y="301" type="curve"/>
			<point x="447" y="313" type="line"/>
			<point x="441" y="387"/>
			<point x="419" y="422"/>
			<point x="361" y="422" type="curve" smooth="yes"/>
			<point x="304" y="422"/>
			<point x="251" y="388"/>
			<point x="192" y="312" type="curve"/>
			<point x="211" y="299" type="line"/>
			<point x="250" y="351"/>
			<point x="282" y="370"/>
			<point x="320" y="370" type="curve" smooth="yes"/>
			<point x="363" y="370"/>
			<point x="378" y="344"/>
			<point x="378" y="266" type="curve" smooth="yes"/>
			<point x="378" y="45" type="line"/>
			<point x="308" y="8" type="line"/>
			<point x="310" y="0" type="line"/>
			<point x="519" y="0" type="line"/>
			<point x="521" y="8" type="line"/>
			<point x="450" y="44" type="line"/>
		</contour>
		<contour>
			<point x="218" y="45" type="line"/>
			<point x="218" y="422" type="line"/>
			<point x="34" y="345" type="line"/>
			<point x="36" y="337" type="line"/>
			<point x="145" y="345" type="line"/>
			<point x="145" y="45" type="line"/>
			<point x="33" y="8" type="line"/>
			<point x="35" y="0" type="line"/>
			<point x="286" y="0" type="line"/>
			<point x="288" y="8" type="line"/>
		</contour>
	</outline>
</glyph>
<glyph name="n" format="2">
  <advance width="577"/>
  <unicode hex="006E"/>
  <anchor x="304" y="0" name="bottom"/>
  <anchor x="305" y="402" name="top"/>
  <outline>
    <contour>
      <point x="189" y="312" type="curve"/>
      <point x="189" y="276" type="line"/>
      <point x="238" y="342"/>
      <point x="278" y="371"/>
      <point x="318" y="371" type="curve" smooth="yes"/>
      <point x="368" y="371"/>
      <point x="395" y="329"/>
      <point x="395" y="253" type="curve" smooth="yes"/>
      <point x="395" y="45" type="line"/>
      <point x="315" y="8" type="line"/>
      <point x="317" y="0" type="line"/>
      <point x="567" y="1" type="line"/>
      <point x="569" y="9" type="line"/>
      <point x="468" y="44" type="line"/>
      <point x="468" y="264" type="line" smooth="yes"/>
      <point x="468" y="364"/>
      <point x="428" y="422"/>
      <point x="356" y="422" type="curve" smooth="yes"/>
      <point x="300" y="422"/>
      <point x="248" y="387"/>
    </contour>
    <contour>
      <point x="36" y="337" type="line"/>
      <point x="145" y="345" type="line"/>
      <point x="145" y="45" type="line"/>
      <point x="33" y="8" type="line"/>
      <point x="35" y="0" type="line"/>
      <point x="289" y="0" type="line"/>
      <point x="291" y="8" type="line"/>
      <point x="218" y="45" type="line"/>
      <point x="218" y="422" type="line"/>
      <point x="34" y="345" type="line"/>
    </contour>
  </outline>
</glyph>
<glyph name="o" format="2">
	<advance width="423"/>
	<unicode hex="006F"/>
	<anchor x="209" y="0" name="bottom"/>
	<anchor x="209" y="205" name="center"/>
	<anchor x="284" y="10" name="ogonek"/>
	<anchor x="209" y="402" name="top"/>
	<anchor x="411" y="400" name="topright"/>
	<outline>
		<contour>
			<point x="211" y="-20" type="curve" smooth="yes"/>
			<point x="325" y="-20"/>
			<point x="389" y="63"/>
			<point x="389" y="208" type="curve" smooth="yes"/>
			<point x="389" y="346"/>
			<point x="326" y="422"/>
			<point x="212" y="422" type="curve" smooth="yes"/>
			<point x="96" y="422"/>
			<point x="29" y="340"/>
			<point x="29" y="199" type="curve" smooth="yes"/>
			<point x="29" y="62"/>
			<point x="97" y="-20"/>
		</contour>
		<contour>
			<point x="223" y="15" type="curve" smooth="yes"/>
			<point x="147" y="15"/>
			<point x="104" y="87"/>
			<point x="104" y="217" type="curve" smooth="yes"/>
			<point x="104" y="326"/>
			<point x="139" y="387"/>
			<point x="201" y="387" type="curve" smooth="yes"/>
			<point x="274" y="387"/>
			<point x="314" y="317"/>
			<point x="314" y="191" type="curve" smooth="yes"/>
			<point x="314" y="78"/>
			<point x="282" y="15"/>
		</contour>
	</outline>
</glyph>
<glyph name="p" format="2">
  <advance width="421"/>
  <unicode hex="0070"/>
  <anchor x="202" y="0" name="bottom"/>
  <anchor x="202" y="402" name="top"/>
  <outline>
    <contour>
      <point x="119" y="56" type="curve"/>
      <point x="119" y="312" type="line"/>
      <point x="143" y="353"/>
      <point x="171" y="375"/>
      <point x="207" y="375" type="curve" smooth="yes"/>
      <point x="272" y="375"/>
      <point x="314" y="299"/>
      <point x="314" y="188" type="curve" smooth="yes"/>
      <point x="314" y="83"/>
      <point x="274" y="20"/>
      <point x="208" y="20" type="curve" smooth="yes"/>
      <point x="172" y="20"/>
      <point x="137" y="36"/>
    </contour>
    <contour>
      <point x="-63" y="337" type="line"/>
      <point x="-61" y="329" type="line"/>
      <point x="46" y="344" type="line"/>
      <point x="46" y="-195" type="line"/>
      <point x="-28" y="-234" type="line"/>
      <point x="-26" y="-242" type="line"/>
      <point x="227" y="-242" type="line"/>
      <point x="229" y="-234" type="line"/>
      <point x="119" y="-195" type="line"/>
      <point x="119" y="11" type="line"/>
      <point x="139" y="-6"/>
      <point x="169" y="-20"/>
      <point x="201" y="-20" type="curve" smooth="yes"/>
      <point x="306" y="-20"/>
      <point x="387" y="86"/>
      <point x="387" y="216" type="curve" smooth="yes"/>
      <point x="387" y="337"/>
      <point x="324" y="422"/>
      <point x="232" y="422" type="curve" smooth="yes"/>
      <point x="185" y="422"/>
      <point x="147" y="401"/>
      <point x="116" y="354" type="curve"/>
      <point x="116" y="415" type="line"/>
    </contour>
  </outline>
</glyph>
<glyph name="q" format="2">
  <advance width="421"/>
  <unicode hex="0071"/>
  <anchor x="211" y="0" name="bottom"/>
  <anchor x="211" y="402" name="top"/>
  <outline>
    <contour>
      <point x="297" y="355" type="curve"/>
      <point x="297" y="91" type="line"/>
      <point x="270" y="46"/>
      <point x="241" y="27"/>
      <point x="209" y="27" type="curve" smooth="yes"/>
      <point x="144" y="27"/>
      <point x="102" y="102"/>
      <point x="102" y="214" type="curve" smooth="yes"/>
      <point x="102" y="319"/>
      <point x="141" y="382"/>
      <point x="210" y="382" type="curve" smooth="yes"/>
      <point x="244" y="382"/>
      <point x="281" y="371"/>
    </contour>
    <contour>
      <point x="29" y="186" type="curve" smooth="yes"/>
      <point x="29" y="63"/>
      <point x="91" y="-20"/>
      <point x="184" y="-20" type="curve" smooth="yes"/>
      <point x="233" y="-20"/>
      <point x="267" y="2"/>
      <point x="297" y="45" type="curve"/>
      <point x="297" y="-195" type="line"/>
      <point x="192" y="-234" type="line"/>
      <point x="194" y="-242" type="line"/>
      <point x="446" y="-242" type="line"/>
      <point x="448" y="-234" type="line"/>
      <point x="370" y="-195" type="line"/>
      <point x="370" y="371" type="line"/>
      <point x="333" y="403"/>
      <point x="274" y="422"/>
      <point x="216" y="422" type="curve" smooth="yes"/>
      <point x="110" y="422"/>
      <point x="29" y="320"/>
    </contour>
  </outline>
</glyph>
<glyph name="r" format="2">
	<advance width="418"/>
	<unicode hex="0072"/>
	<anchor x="180" y="0" name="bottom"/>
	<anchor x="236" y="400" name="top"/>
	<outline>
		<contour>
			<point x="196" y="255" type="curve"/>
			<point x="211" y="237" type="line"/>
			<point x="260" y="346"/>
			<point x="284" y="374"/>
			<point x="334" y="363" type="curve"/>
			<point x="321" y="410" type="line"/>
			<point x="343" y="248" type="line"/>
			<point x="351" y="246" type="line"/>
			<point x="390" y="414" type="line"/>
			<point x="381" y="419"/>
			<point x="366" y="422"/>
			<point x="348" y="422" type="curve" smooth="yes"/>
			<point x="286" y="422"/>
			<point x="247" y="385"/>
		</contour>
		<contour>
			<point x="218" y="47" type="line"/>
			<point x="218" y="422" type="line"/>
			<point x="34" y="345" type="line"/>
			<point x="36" y="337" type="line"/>
			<point x="145" y="345" type="line"/>
			<point x="145" y="47" type="line"/>
			<point x="33" y="8" type="line"/>
			<point x="35" y="0" type="line"/>
			<point x="344" y="0" type="line"/>
			<point x="346" y="8" type="line"/>
		</contour>
	</outline>
</glyph>
<glyph name="s" format="2">
	<advance width="352"/>
	<unicode hex="0073"/>
	<anchor x="176" y="0" name="bottom"/>
	<anchor x="176" y="400" name="top"/>
	<outline>
		<contour>
			<point x="25" y="16" type="line"/>
			<point x="42" y="2"/>
			<point x="95" y="-19"/>
			<point x="164" y="-19" type="curve" smooth="yes"/>
			<point x="254" y="-19"/>
			<point x="322" y="33"/>
			<point x="322" y="105" type="curve" smooth="yes"/>
			<point x="322" y="163"/>
			<point x="295" y="197"/>
			<point x="215" y="227" type="curve" smooth="yes"/>
			<point x="153" y="250" type="line" smooth="yes"/>
			<point x="108" y="267"/>
			<point x="92" y="292"/>
			<point x="92" y="328" type="curve" smooth="yes"/>
			<point x="92" y="358"/>
			<point x="119" y="388"/>
			<point x="176" y="388" type="curve" smooth="yes"/>
			<point x="199" y="388"/>
			<point x="221" y="383"/>
			<point x="233" y="377" type="curve"/>
			<point x="253" y="273" type="line"/>
			<point x="261" y="271" type="line"/>
			<point x="297" y="399" type="line"/>
			<point x="258" y="414"/>
			<point x="216" y="422"/>
			<point x="179" y="422" type="curve" smooth="yes"/>
			<point x="92" y="422"/>
			<point x="43" y="374"/>
			<point x="43" y="305" type="curve" smooth="yes"/>
			<point x="43" y="256"/>
			<point x="72" y="208"/>
			<point x="133" y="185" type="curve" smooth="yes"/>
			<point x="189" y="164" type="line" smooth="yes"/>
			<point x="253" y="140"/>
			<point x="273" y="117"/>
			<point x="273" y="89" type="curve" smooth="yes"/>
			<point x="273" y="44"/>
			<point x="221" y="23"/>
			<point x="168" y="23" type="curve" smooth="yes"/>
			<point x="135" y="23"/>
			<point x="108" y="29"/>
			<point x="83" y="42" type="curve"/>
			<point x="69" y="149" type="line"/>
			<point x="61" y="151" type="line"/>
		</contour>
	</outline>
</glyph>
<glyph name="t" format="2">
	<advance width="329"/>
	<unicode hex="0074"/>
	<anchor x="195" y="0" name="bottom"/>
	<anchor x="195" y="205" name="center"/>
	<anchor x="195" y="412" name="top"/>
	<anchor x="202" y="692" name="topright"/>
	<outline>
		<contour>
			<point x="-2" y="376" type="line"/>
			<point x="0" y="368" type="line"/>
			<point x="79" y="368" type="line"/>
			<point x="79" y="143" type="line" smooth="yes"/>
			<point x="79" y="32"/>
			<point x="110" y="-20"/>
			<point x="176" y="-20" type="curve" smooth="yes"/>
			<point x="213" y="-20"/>
			<point x="243" y="-2"/>
			<point x="322" y="77" type="curve"/>
			<point x="311" y="87" type="line"/>
			<point x="258" y="49"/>
			<point x="221" y="32"/>
			<point x="196" y="32" type="curve" smooth="yes"/>
			<point x="160" y="32"/>
			<point x="151" y="62"/>
			<point x="151" y="187" type="curve" smooth="yes"/>
			<point x="151" y="550" type="line"/>
			<point x="138" y="552" type="line"/>
			<point x="83" y="409" type="line"/>
		</contour>
		<contour>
			<point x="134" y="368" type="line"/>
			<point x="238" y="369" type="line"/>
			<point x="256" y="254" type="line"/>
			<point x="264" y="252" type="line"/>
			<point x="305" y="402" type="line"/>
			<point x="134" y="402" type="line"/>
		</contour>
	</outline>
</glyph>
<glyph name="u" format="2">
  <advance width="487"/>
  <unicode hex="0075"/>
  <anchor x="260" y="0" name="bottom"/>
  <anchor x="367" y="10" name="ogonek"/>
  <anchor x="221" y="402" name="top"/>
  <anchor x="471" y="402" name="topright"/>
  <outline>
    <contour>
      <point x="-32" y="345" type="line"/>
      <point x="-30" y="337" type="line"/>
      <point x="79" y="345" type="line"/>
      <point x="79" y="138" type="line" smooth="yes"/>
      <point x="79" y="31"/>
      <point x="114" y="-20"/>
      <point x="189" y="-20" type="curve" smooth="yes"/>
      <point x="237" y="-20"/>
      <point x="289" y="3"/>
      <point x="332" y="41" type="curve"/>
      <point x="332" y="-20" type="line"/>
      <point x="504" y="56" type="line"/>
      <point x="502" y="64" type="line"/>
      <point x="405" y="53" type="line"/>
      <point x="405" y="422" type="line"/>
      <point x="221" y="345" type="line"/>
      <point x="223" y="337" type="line"/>
      <point x="332" y="345" type="line"/>
      <point x="332" y="77" type="line"/>
      <point x="300" y="50"/>
      <point x="264" y="32"/>
      <point x="227" y="32" type="curve" smooth="yes"/>
      <point x="174" y="32"/>
      <point x="152" y="68"/>
      <point x="152" y="149" type="curve" smooth="yes"/>
      <point x="152" y="422" type="line"/>
    </contour>
  </outline>
</glyph>
<glyph name="v" format="2">
  <advance width="394"/>
  <unicode hex="0076"/>
  <anchor x="208" y="0" name="bottom"/>
  <anchor x="208" y="402" name="top"/>
  <outline>
    <contour>
      <point x="-40" y="394" type="line"/>
      <point x="30" y="357" type="line"/>
      <point x="175" y="0" type="line"/>
      <point x="222" y="0" type="line"/>
      <point x="356" y="357" type="line"/>
      <point x="426" y="394" type="line"/>
      <point x="424" y="402" type="line"/>
      <point x="231" y="402" type="line"/>
      <point x="229" y="394" type="line"/>
      <point x="309" y="357" type="line"/>
      <point x="196" y="14" type="line"/>
      <point x="225" y="30" type="line"/>
      <point x="108" y="357" type="line"/>
      <point x="188" y="394" type="line"/>
      <point x="186" y="402" type="line"/>
      <point x="-38" y="402" type="line"/>
    </contour>
  </outline>
</glyph>
<glyph name="w" format="2">
	<advance width="564"/>
	<unicode hex="0077"/>
	<anchor x="289" y="0" name="bottom"/>
	<anchor x="289" y="402" name="top"/>
	<outline>
		<contour>
			<point x="-42" y="394" type="line"/>
			<point x="28" y="357" type="line"/>
			<point x="147" y="0" type="line"/>
			<point x="192" y="0" type="line"/>
			<point x="305" y="404" type="line"/>
			<point x="268" y="390" type="line"/>
			<point x="382" y="0" type="line"/>
			<point x="425" y="0" type="line"/>
			<point x="526" y="357" type="line"/>
			<point x="596" y="394" type="line"/>
			<point x="594" y="402" type="line"/>
			<point x="415" y="402" type="line"/>
			<point x="413" y="394" type="line"/>
			<point x="483" y="357" type="line"/>
			<point x="396" y="7" type="line"/>
			<point x="422" y="35" type="line"/>
			<point x="322" y="412" type="line"/>
			<point x="269" y="398" type="line"/>
			<point x="168" y="22" type="line"/>
			<point x="192" y="39" type="line"/>
			<point x="106" y="357" type="line"/>
			<point x="186" y="394" type="line"/>
			<point x="184" y="402" type="line"/>
			<point x="-40" y="402" type="line"/>
		</contour>
	</outline>
</glyph>
<glyph name="x" format="2">
  <advance width="442"/>
  <unicode hex="0078"/>
  <guideline x="-1490" y="35" angle="0"/>
  <anchor x="234" y="0" name="bottom"/>
  <anchor x="234" y="402" name="top"/>
  <outline>
    <contour>
      <point x="208" y="212" type="line"/>
      <point x="232" y="195" type="line"/>
      <point x="343" y="351" type="line"/>
      <point x="413" y="394" type="line"/>
      <point x="411" y="402" type="line"/>
      <point x="237" y="402" type="line"/>
      <point x="235" y="394" type="line"/>
      <point x="295" y="351" type="line"/>
    </contour>
    <contour>
      <point x="96" y="351" type="line"/>
      <point x="302" y="50" type="line"/>
      <point x="232" y="8" type="line"/>
      <point x="234" y="0" type="line"/>
      <point x="437" y="0" type="line"/>
      <point x="439" y="8" type="line"/>
      <point x="369" y="50" type="line"/>
      <point x="162" y="351" type="line"/>
      <point x="222" y="394" type="line"/>
      <point x="220" y="402" type="line"/>
      <point x="28" y="402" type="line"/>
      <point x="26" y="394" type="line"/>
    </contour>
    <contour>
      <point x="233" y="203" type="line"/>
      <point x="209" y="221" type="line"/>
      <point x="83" y="51" type="line"/>
      <point x="3" y="8" type="line"/>
      <point x="5" y="0" type="line"/>
      <point x="203" y="0" type="line"/>
      <point x="205" y="8" type="line"/>
      <point x="135" y="50" type="line"/>
    </contour>
  </outline>
</glyph>
<glyph name="y" format="2">
  <advance width="354"/>
  <unicode hex="0079"/>
  <anchor x="198" y="0" name="bottom"/>
  <anchor x="197" y="402" name="top"/>
  <outline>
    <contour>
      <point x="-52" y="394" type="line"/>
      <point x="30" y="357" type="line"/>
      <point x="177" y="-31" type="line"/>
      <point x="182" y="18" type="line"/>
      <point x="72" y="-238" type="line"/>
      <point x="72" y="-242" type="line"/>
      <point x="152" y="-242" type="line"/>
      <point x="208" y="0" type="line"/>
      <point x="334" y="357" type="line"/>
      <point x="416" y="394" type="line"/>
      <point x="414" y="402" type="line"/>
      <point x="209" y="402" type="line"/>
      <point x="207" y="394" type="line"/>
      <point x="289" y="357" type="line"/>
      <point x="186" y="43" type="line"/>
      <point x="203" y="43" type="line"/>
      <point x="108" y="357" type="line"/>
      <point x="188" y="394" type="line"/>
      <point x="186" y="402" type="line"/>
      <point x="-50" y="402" type="line"/>
    </contour>
  </outline>
</glyph>
<glyph name="z" format="2">
	<advance width="380"/>
	<unicode hex="007A"/>
	<anchor x="184" y="0" name="bottom"/>
	<anchor x="194" y="205" name="center"/>
	<anchor x="194" y="400" name="top"/>
	<outline>
		<contour>
			<point x="18" y="22" type="line"/>
			<point x="38" y="0" type="line"/>
			<point x="352" y="0" type="line"/>
			<point x="333" y="149" type="line"/>
			<point x="325" y="150" type="line"/>
			<point x="289" y="39" type="line"/>
			<point x="68" y="31" type="line"/>
			<point x="88" y="10" type="line"/>
			<point x="351" y="390" type="line"/>
			<point x="338" y="412" type="line"/>
			<point x="35" y="423" type="line"/>
			<point x="64" y="278" type="line"/>
			<point x="72" y="281" type="line"/>
			<point x="100" y="381" type="line"/>
			<point x="309" y="386" type="line"/>
			<point x="279" y="403" type="line"/>
		</contour>
	</outline>
</glyph>
<glyph name="braceleft" format="2">
	<advance width="358"/>
	<unicode hex="007B"/>
	<outline>
		<contour>
			<point x="220" y="511" type="line" smooth="yes"/>
			<point x="220" y="640"/>
			<point x="240" y="642"/>
			<point x="319" y="692" type="curve"/>
			<point x="311" y="710" type="line"/>
			<point x="199" y="676"/>
			<point x="153" y="623"/>
			<point x="153" y="510" type="curve" smooth="yes"/>
			<point x="153" y="411" type="line" smooth="yes"/>
			<point x="153" y="341"/>
			<point x="123" y="305"/>
			<point x="68" y="305" type="curve"/>
			<point x="68" y="290" type="line"/>
			<point x="120" y="290"/>
			<point x="153" y="244"/>
			<point x="153" y="173" type="curve" smooth="yes"/>
			<point x="153" y="74" type="line" smooth="yes"/>
			<point x="153" y="-39"/>
			<point x="199" y="-92"/>
			<point x="311" y="-126" type="curve"/>
			<point x="319" y="-108" type="line"/>
			<point x="237" y="-60"/>
			<point x="220" y="-51"/>
			<point x="220" y="73" type="curve" smooth="yes"/>
			<point x="220" y="167" type="line" smooth="yes"/>
			<point x="220" y="255"/>
			<point x="176" y="307"/>
			<point x="93" y="306" type="curve"/>
			<point x="93" y="292" type="line"/>
			<point x="161" y="291"/>
			<point x="220" y="336"/>
			<point x="220" y="417" type="curve" smooth="yes"/>
		</contour>
	</outline>
</glyph>
<glyph name="bar" format="2">
	<advance width="170"/>
	<unicode hex="007C"/>
	<outline>
		<contour>
			<point x="60" y="-240" type="line"/>
			<point x="108" y="-240" type="line"/>
			<point x="109" y="690" type="line"/>
			<point x="60" y="690" type="line"/>
		</contour>
	</outline>
</glyph>
<glyph name="asciitilde" format="2">
	<advance width="512"/>
	<unicode hex="007E"/>
	<outline>
		<contour>
			<point x="228" y="321" type="curve" smooth="yes"/>
			<point x="316" y="277" type="line" smooth="yes"/>
			<point x="328" y="271"/>
			<point x="340" y="268"/>
			<point x="350" y="268" type="curve" smooth="yes"/>
			<point x="394" y="268"/>
			<point x="406" y="291"/>
			<point x="406" y="333" type="curve"/>
			<point x="454" y="333" type="line"/>
			<point x="454" y="263"/>
			<point x="418" y="220"/>
			<point x="346" y="220" type="curve" smooth="yes"/>
			<point x="328" y="220"/>
			<point x="310" y="224"/>
			<point x="284" y="237" type="curve" smooth="yes"/>
			<point x="195" y="281" type="line" smooth="yes"/>
			<point x="181" y="288"/>
			<point x="170" y="291"/>
			<point x="161" y="291" type="curve" smooth="yes"/>
			<point x="118" y="291"/>
			<point x="107" y="267"/>
			<point x="107" y="225" type="curve"/>
			<point x="58" y="225" type="line"/>
			<point x="58" y="295"/>
			<point x="94" y="338"/>
			<point x="166" y="338" type="curve" smooth="yes"/>
			<point x="185" y="338"/>
			<point x="202" y="334"/>
		</contour>
	</outline>
</glyph>
<glyph name="cent" format="2">
  <advance width="383"/>
  <unicode hex="00A2"/>
  <outline>
    <contour>
      <point x="342" y="76" type="curve"/>
      <point x="331" y="84" type="line"/>
      <point x="299" y="44"/>
      <point x="268" y="27"/>
      <point x="238" y="27" type="curve" smooth="yes"/>
      <point x="180" y="27"/>
      <point x="125" y="95"/>
      <point x="125" y="219" type="curve" smooth="yes"/>
      <point x="125" y="332"/>
      <point x="159" y="388"/>
      <point x="214" y="388" type="curve" smooth="yes"/>
      <point x="245" y="388"/>
      <point x="262" y="383"/>
      <point x="273" y="376" type="curve"/>
      <point x="291" y="275" type="line"/>
      <point x="298" y="273" type="line"/>
      <point x="329" y="399" type="line"/>
      <point x="301" y="413"/>
      <point x="255" y="422"/>
      <point x="229" y="422" type="curve" smooth="yes"/>
      <point x="128" y="422"/>
      <point x="55" y="331"/>
      <point x="55" y="200" type="curve" smooth="yes"/>
      <point x="55" y="70"/>
      <point x="121" y="-20"/>
      <point x="211" y="-20" type="curve" smooth="yes"/>
      <point x="263" y="-20"/>
      <point x="301" y="11"/>
    </contour>
    <contour>
      <point x="200" y="490" type="line"/>
      <point x="200" y="-100" type="line"/>
      <point x="236" y="-100" type="line"/>
      <point x="236" y="490" type="line"/>
    </contour>
  </outline>
</glyph>
<glyph name="sterling" format="2">
  <advance width="475"/>
  <unicode hex="00A3"/>
  <outline>
    <contour>
      <point x="61" y="315" type="line"/>
      <point x="61" y="271" type="line"/>
      <point x="330" y="271" type="line"/>
      <point x="330" y="315" type="line"/>
    </contour>
    <contour>
      <point x="260" y="577" type="curve" smooth="yes"/>
      <point x="290" y="577"/>
      <point x="324" y="567"/>
      <point x="338" y="557" type="curve"/>
      <point x="354" y="415" type="line"/>
      <point x="361" y="413" type="line"/>
      <point x="413" y="587" type="line"/>
      <point x="387" y="602"/>
      <point x="339" y="620"/>
      <point x="283" y="620" type="curve" smooth="yes"/>
      <point x="183" y="620"/>
      <point x="108" y="571"/>
      <point x="108" y="441" type="curve" smooth="yes"/>
      <point x="108" y="338"/>
      <point x="146" y="264"/>
      <point x="146" y="195" type="curve" smooth="yes"/>
      <point x="146" y="133"/>
      <point x="118" y="78"/>
      <point x="45" y="35" type="curve"/>
      <point x="66" y="0" type="line"/>
      <point x="415" y="0" type="line"/>
      <point x="390" y="220" type="line"/>
      <point x="382" y="218" type="line"/>
      <point x="337" y="41" type="line"/>
      <point x="65" y="27" type="line"/>
      <point x="70" y="7" type="line"/>
      <point x="172" y="67"/>
      <point x="225" y="136"/>
      <point x="225" y="209" type="curve" smooth="yes"/>
      <point x="225" y="272"/>
      <point x="187" y="350"/>
      <point x="187" y="464" type="curve" smooth="yes"/>
      <point x="187" y="552"/>
      <point x="218" y="577"/>
    </contour>
  </outline>
</glyph>
<glyph name="currency" format="2">
	<advance width="412"/>
	<unicode hex="00A4"/>
	<outline>
		<contour>
			<point x="205" y="25" type="curve" smooth="yes"/>
			<point x="154" y="25"/>
			<point x="132" y="79"/>
			<point x="132" y="205" type="curve" smooth="yes"/>
			<point x="132" y="327"/>
			<point x="153" y="377"/>
			<point x="207" y="377" type="curve" smooth="yes"/>
			<point x="260" y="377"/>
			<point x="279" y="332"/>
			<point x="279" y="207" type="curve" smooth="yes"/>
			<point x="279" y="77"/>
			<point x="257" y="25"/>
		</contour>
		<contour>
			<point x="206" y="-20" type="curve" smooth="yes"/>
			<point x="291" y="-20"/>
			<point x="339" y="60"/>
			<point x="339" y="205" type="curve" smooth="yes"/>
			<point x="339" y="347"/>
			<point x="292" y="422"/>
			<point x="206" y="422" type="curve" smooth="yes"/>
			<point x="118" y="422"/>
			<point x="72" y="349"/>
			<point x="72" y="207" type="curve" smooth="yes"/>
			<point x="72" y="64"/>
			<point x="120" y="-20"/>
		</contour>
		<contour>
			<point x="67" y="422" type="line"/>
			<point x="28" y="385" type="line"/>
			<point x="96" y="315" type="line"/>
			<point x="135" y="353" type="line"/>
		</contour>
		<contour>
			<point x="346" y="422" type="line"/>
			<point x="278" y="353" type="line"/>
			<point x="316" y="314" type="line"/>
			<point x="384" y="383" type="line"/>
		</contour>
		<contour>
			<point x="341" y="-20" type="line"/>
			<point x="380" y="18" type="line"/>
			<point x="311" y="87" type="line"/>
			<point x="273" y="49" type="line"/>
		</contour>
		<contour>
			<point x="69" y="-20" type="line"/>
			<point x="138" y="50" type="line"/>
			<point x="100" y="88" type="line"/>
			<point x="32" y="19" type="line"/>
		</contour>
	</outline>
</glyph>
<glyph name="yen" format="2">
	<advance width="559"/>
	<unicode hex="00A5"/>
	<outline>
		<contour>
			<point x="-13" y="592" type="line"/>
			<point x="92" y="555" type="line"/>
			<point x="234" y="250" type="line"/>
			<point x="234" y="45" type="line"/>
			<point x="124" y="8" type="line"/>
			<point x="126" y="0" type="line"/>
			<point x="420" y="0" type="line"/>
			<point x="422" y="8" type="line"/>
			<point x="312" y="45" type="line"/>
			<point x="312" y="251" type="line"/>
			<point x="441" y="555" type="line"/>
			<point x="546" y="592" type="line"/>
			<point x="544" y="600" type="line"/>
			<point x="307" y="600" type="line"/>
			<point x="305" y="592" type="line"/>
			<point x="383" y="555" type="line"/>
			<point x="271" y="250" type="line"/>
			<point x="306" y="249" type="line"/>
			<point x="173" y="555" type="line"/>
			<point x="251" y="592" type="line"/>
			<point x="249" y="600" type="line"/>
			<point x="-11" y="600" type="line"/>
		</contour>
		<contour>
			<point x="112" y="289" type="line"/>
			<point x="112" y="251" type="line"/>
			<point x="434" y="251" type="line"/>
			<point x="434" y="289" type="line"/>
			<point x="321" y="289" type="line"/>
			<point x="287" y="270" type="line"/>
			<point x="229" y="289" type="line"/>
		</contour>
		<contour>
			<point x="112" y="179" type="line"/>
			<point x="112" y="141" type="line"/>
			<point x="434" y="141" type="line"/>
			<point x="434" y="179" type="line"/>
		</contour>
	</outline>
</glyph>
<glyph name="brokenbar" format="2">
  <advance width="165"/>
  <unicode hex="00A6"/>
  <outline>
    <contour>
      <point x="58" y="-242" type="line"/>
      <point x="107" y="-242" type="line"/>
      <point x="107" y="169" type="line"/>
      <point x="58" y="169" type="line"/>
    </contour>
    <contour>
      <point x="58" y="271" type="line"/>
      <point x="107" y="271" type="line"/>
      <point x="107" y="692" type="line"/>
      <point x="58" y="692" type="line"/>
    </contour>
  </outline>
</glyph>
<glyph name="section" format="2">
	<advance width="448"/>
	<unicode hex="00A7"/>
	<outline>
		<contour>
			<point x="290" y="233" type="curve"/>
			<point x="324" y="208" type="line"/>
			<point x="356" y="241"/>
			<point x="380" y="299"/>
			<point x="380" y="341" type="curve" smooth="yes"/>
			<point x="380" y="393"/>
			<point x="355" y="428"/>
			<point x="286" y="471" type="curve" smooth="yes"/>
			<point x="207" y="520" type="line" smooth="yes"/>
			<point x="176" y="539"/>
			<point x="158" y="564"/>
			<point x="158" y="604" type="curve" smooth="yes"/>
			<point x="158" y="650"/>
			<point x="180" y="673"/>
			<point x="230" y="673" type="curve" smooth="yes"/>
			<point x="256" y="673"/>
			<point x="287" y="668"/>
			<point x="297" y="661" type="curve"/>
			<point x="317" y="559" type="line"/>
			<point x="325" y="557" type="line"/>
			<point x="361" y="687" type="line"/>
			<point x="343" y="699"/>
			<point x="282" y="712"/>
			<point x="241" y="712" type="curve" smooth="yes"/>
			<point x="159" y="712"/>
			<point x="104" y="654"/>
			<point x="104" y="570" type="curve" smooth="yes"/>
			<point x="104" y="517"/>
			<point x="125" y="483"/>
			<point x="198" y="436" type="curve" smooth="yes"/>
			<point x="252" y="401" type="line" smooth="yes"/>
			<point x="311" y="363"/>
			<point x="329" y="336"/>
			<point x="329" y="306" type="curve" smooth="yes"/>
			<point x="329" y="284"/>
			<point x="320" y="269"/>
		</contour>
		<contour>
			<point x="167" y="461" type="curve"/>
			<point x="138" y="482" type="line"/>
			<point x="107" y="451"/>
			<point x="84" y="393"/>
			<point x="84" y="350" type="curve" smooth="yes"/>
			<point x="84" y="300"/>
			<point x="114" y="245"/>
			<point x="166" y="218" type="curve" smooth="yes"/>
			<point x="240" y="179" type="line" smooth="yes"/>
			<point x="289" y="154"/>
			<point x="313" y="135"/>
			<point x="313" y="98" type="curve" smooth="yes"/>
			<point x="313" y="53"/>
			<point x="279" y="25"/>
			<point x="227" y="23" type="curve" smooth="yes"/>
			<point x="197" y="22"/>
			<point x="145" y="30"/>
			<point x="132" y="39" type="curve"/>
			<point x="112" y="138" type="line"/>
			<point x="104" y="140" type="line"/>
			<point x="68" y="17" type="line"/>
			<point x="89" y="-1"/>
			<point x="160" y="-19"/>
			<point x="208" y="-19" type="curve" smooth="yes"/>
			<point x="300" y="-19"/>
			<point x="367" y="44"/>
			<point x="367" y="133" type="curve" smooth="yes"/>
			<point x="367" y="187"/>
			<point x="341" y="215"/>
			<point x="250" y="264" type="curve" smooth="yes"/>
			<point x="196" y="293" type="line" smooth="yes"/>
			<point x="157" y="314"/>
			<point x="135" y="341"/>
			<point x="135" y="371" type="curve" smooth="yes"/>
			<point x="135" y="395"/>
			<point x="150" y="437"/>
		</contour>
	</outline>
</glyph>
<glyph name="copyright" format="2">
	<advance width="627"/>
	<unicode hex="00A9"/>
	<outline>
		<contour>
			<point x="318" y="-20" type="curve" smooth="yes"/>
			<point x="166" y="-20"/>
			<point x="48" y="121"/>
			<point x="48" y="300" type="curve" smooth="yes"/>
			<point x="48" y="479"/>
			<point x="162" y="620"/>
			<point x="309" y="620" type="curve" smooth="yes"/>
			<point x="461" y="620"/>
			<point x="579" y="481"/>
			<point x="579" y="306" type="curve" smooth="yes"/>
			<point x="579" y="123"/>
			<point x="465" y="-20"/>
		</contour>
		<contour>
			<point x="299" y="578" type="curve" smooth="yes"/>
			<point x="180" y="578"/>
			<point x="99" y="465"/>
			<point x="99" y="298" type="curve" smooth="yes"/>
			<point x="99" y="135"/>
			<point x="190" y="23"/>
			<point x="328" y="23" type="curve" smooth="yes"/>
			<point x="447" y="23"/>
			<point x="528" y="139"/>
			<point x="528" y="309" type="curve" smooth="yes"/>
			<point x="528" y="469"/>
			<point x="436" y="578"/>
		</contour>
		<contour>
			<point x="196" y="296" type="curve" smooth="yes"/>
			<point x="196" y="189"/>
			<point x="239" y="127"/>
			<point x="310" y="127" type="curve" smooth="yes"/>
			<point x="346" y="127"/>
			<point x="372" y="143"/>
			<point x="414" y="193" type="curve"/>
			<point x="403" y="206" type="line"/>
			<point x="374" y="179"/>
			<point x="353" y="168"/>
			<point x="331" y="168" type="curve" smooth="yes"/>
			<point x="280" y="168"/>
			<point x="254" y="211"/>
			<point x="254" y="304" type="curve" smooth="yes"/>
			<point x="254" y="395"/>
			<point x="272" y="438"/>
			<point x="311" y="438" type="curve" smooth="yes"/>
			<point x="330" y="438"/>
			<point x="351" y="431"/>
			<point x="359" y="421" type="curve"/>
			<point x="368" y="339" type="line"/>
			<point x="371" y="338" type="line"/>
			<point x="400" y="455" type="line"/>
			<point x="355" y="472"/>
			<point x="343" y="474"/>
			<point x="327" y="474" type="curve" smooth="yes"/>
			<point x="244" y="474"/>
			<point x="196" y="409"/>
		</contour>
	</outline>
</glyph>
<glyph name="logicalnot" format="2">
	<advance width="490"/>
	<unicode hex="00AC"/>
	<outline>
		<contour>
			<point x="58" y="367" type="line"/>
			<point x="58" y="317" type="line"/>
			<point x="380" y="315" type="line"/>
			<point x="380" y="158" type="line"/>
			<point x="432" y="158" type="line"/>
			<point x="432" y="367" type="line"/>
		</contour>
	</outline>
</glyph>
<glyph name="registered" format="2">
	<advance width="627"/>
	<unicode hex="00AE"/>
	<outline>
		<contour>
			<point x="318" y="-20" type="curve" smooth="yes"/>
			<point x="166" y="-20"/>
			<point x="48" y="121"/>
			<point x="48" y="300" type="curve" smooth="yes"/>
			<point x="48" y="479"/>
			<point x="162" y="620"/>
			<point x="309" y="620" type="curve" smooth="yes"/>
			<point x="461" y="620"/>
			<point x="579" y="481"/>
			<point x="579" y="306" type="curve" smooth="yes"/>
			<point x="579" y="123"/>
			<point x="465" y="-20"/>
		</contour>
		<contour>
			<point x="299" y="578" type="curve" smooth="yes"/>
			<point x="180" y="578"/>
			<point x="99" y="465"/>
			<point x="99" y="298" type="curve" smooth="yes"/>
			<point x="99" y="135"/>
			<point x="190" y="23"/>
			<point x="328" y="23" type="curve" smooth="yes"/>
			<point x="447" y="23"/>
			<point x="528" y="139"/>
			<point x="528" y="309" type="curve" smooth="yes"/>
			<point x="528" y="469"/>
			<point x="436" y="578"/>
		</contour>
		<contour>
			<point x="175" y="160" type="line"/>
			<point x="176" y="156" type="line"/>
			<point x="312" y="156" type="line"/>
			<point x="313" y="160" type="line"/>
			<point x="272" y="184" type="line"/>
			<point x="272" y="281" type="line"/>
			<point x="319" y="281" type="line" smooth="yes"/>
			<point x="378" y="281"/>
			<point x="422" y="322"/>
			<point x="422" y="377" type="curve" smooth="yes"/>
			<point x="422" y="425"/>
			<point x="380" y="464"/>
			<point x="327" y="464" type="curve" smooth="yes"/>
			<point x="176" y="464" type="line"/>
			<point x="175" y="460" type="line"/>
			<point x="222" y="437" type="line"/>
			<point x="222" y="184" type="line"/>
		</contour>
		<contour>
			<point x="272" y="311" type="line"/>
			<point x="272" y="434" type="line"/>
			<point x="312" y="434" type="line" smooth="yes"/>
			<point x="343" y="434"/>
			<point x="370" y="405"/>
			<point x="370" y="370" type="curve" smooth="yes"/>
			<point x="370" y="334"/>
			<point x="341" y="307"/>
			<point x="307" y="309" type="curve" smooth="yes"/>
		</contour>
		<contour>
			<point x="362" y="297" type="line"/>
			<point x="313" y="297" type="line"/>
			<point x="371" y="184" type="line"/>
			<point x="325" y="160" type="line"/>
			<point x="326" y="156" type="line"/>
			<point x="462" y="156" type="line"/>
			<point x="463" y="160" type="line"/>
			<point x="421" y="184" type="line"/>
		</contour>
	</outline>
</glyph>
<glyph name="degree" format="2">
  <advance width="292"/>
  <unicode hex="00B0"/>
  <outline>
    <contour>
      <point x="146" y="301" type="curve" smooth="yes"/>
      <point x="219" y="300"/>
      <point x="264" y="366"/>
      <point x="264" y="460" type="curve" smooth="yes"/>
      <point x="264" y="555"/>
      <point x="216" y="618"/>
      <point x="146" y="618" type="curve" smooth="yes"/>
      <point x="75" y="618"/>
      <point x="28" y="554"/>
      <point x="28" y="460" type="curve" smooth="yes"/>
      <point x="28" y="365"/>
      <point x="75" y="302"/>
    </contour>
    <contour>
      <point x="146" y="357" type="curve" smooth="yes"/>
      <point x="104" y="356"/>
      <point x="83" y="388"/>
      <point x="83" y="460" type="curve" smooth="yes"/>
      <point x="83" y="531"/>
      <point x="104" y="562"/>
      <point x="146" y="561" type="curve" smooth="yes"/>
      <point x="192" y="560"/>
      <point x="209" y="524"/>
      <point x="209" y="460" type="curve" smooth="yes"/>
      <point x="209" y="390"/>
      <point x="189" y="358"/>
    </contour>
  </outline>
</glyph>
<glyph name="plusminus" format="2">
  <advance width="509"/>
  <unicode hex="00B1"/>
  <outline>
    <contour>
      <point x="55" y="253" type="line"/>
      <point x="229" y="253" type="line"/>
      <point x="229" y="118" type="line"/>
      <point x="280" y="118" type="line"/>
      <point x="280" y="252" type="line"/>
      <point x="454" y="252" type="line"/>
      <point x="454" y="298" type="line"/>
      <point x="280" y="298" type="line"/>
      <point x="280" y="434" type="line"/>
      <point x="230" y="434" type="line"/>
      <point x="230" y="298" type="line"/>
      <point x="55" y="298" type="line"/>
    </contour>
    <contour>
      <point x="70" y="88" type="line"/>
      <point x="70" y="38" type="line"/>
      <point x="440" y="36" type="line"/>
      <point x="440" y="88" type="line"/>
    </contour>
  </outline>
</glyph>
<glyph name="twosuperior" format="2">
	<advance width="318"/>
	<unicode hex="00B2"/>
	<outline>
		<contour>
			<point x="57" y="592" type="curve"/>
			<point x="86" y="484" type="line"/>
			<point x="91" y="485" type="line"/>
			<point x="104" y="582" type="line"/>
			<point x="112" y="585"/>
			<point x="137" y="589"/>
			<point x="147" y="589" type="curve" smooth="yes"/>
			<point x="175" y="589"/>
			<point x="194" y="556"/>
			<point x="194" y="501" type="curve" smooth="yes"/>
			<point x="194" y="425"/>
			<point x="159" y="364"/>
			<point x="35" y="269" type="curve"/>
			<point x="46" y="248" type="line"/>
			<point x="283" y="248" type="line"/>
			<point x="271" y="377" type="line"/>
			<point x="266" y="376" type="line"/>
			<point x="233" y="283" type="line"/>
			<point x="81" y="274" type="line"/>
			<point x="75" y="259" type="line"/>
			<point x="213" y="367"/>
			<point x="266" y="440"/>
			<point x="265" y="513" type="curve" smooth="yes"/>
			<point x="264" y="578"/>
			<point x="215" y="620"/>
			<point x="158" y="620" type="curve" smooth="yes"/>
			<point x="126" y="620"/>
			<point x="81" y="608"/>
		</contour>
	</outline>
</glyph>
<glyph name="threesuperior" format="2">
  <advance width="323"/>
  <unicode hex="00B3"/>
  <outline>
    <contour>
      <point x="164" y="432" type="curve" smooth="yes"/>
      <point x="204" y="432"/>
      <point x="226" y="401"/>
      <point x="226" y="350" type="curve" smooth="yes"/>
      <point x="226" y="293"/>
      <point x="199" y="266"/>
      <point x="148" y="266" type="curve" smooth="yes"/>
      <point x="127" y="266"/>
      <point x="108" y="272"/>
      <point x="84" y="285" type="curve"/>
      <point x="74" y="377" type="line"/>
      <point x="70" y="378" type="line"/>
      <point x="37" y="259" type="line"/>
      <point x="62" y="243"/>
      <point x="105" y="233"/>
      <point x="139" y="233" type="curve" smooth="yes"/>
      <point x="217" y="233"/>
      <point x="288" y="296"/>
      <point x="288" y="367" type="curve" smooth="yes"/>
      <point x="288" y="424"/>
      <point x="242" y="469"/>
      <point x="185" y="469" type="curve" smooth="yes"/>
      <point x="167" y="469"/>
      <point x="154" y="464"/>
      <point x="128" y="449" type="curve"/>
      <point x="131" y="434" type="line"/>
      <point x="272" y="580" type="line"/>
      <point x="240" y="605" type="line"/>
      <point x="36" y="612" type="line"/>
      <point x="64" y="472" type="line"/>
      <point x="68" y="473" type="line"/>
      <point x="82" y="573" type="line"/>
      <point x="248" y="578" type="line"/>
      <point x="237" y="605" type="line"/>
      <point x="74" y="435" type="line"/>
      <point x="100" y="404" type="line"/>
      <point x="119" y="422"/>
      <point x="141" y="432"/>
    </contour>
  </outline>
</glyph>
<glyph name="paragraph" format="2">
  <advance width="451"/>
  <unicode hex="00B6"/>
  <outline>
    <contour>
      <point x="393" y="8" type="line"/>
      <point x="282" y="45" type="line"/>
      <point x="282" y="645" type="line"/>
      <point x="393" y="682" type="line"/>
      <point x="391" y="690" type="line"/>
      <point x="141" y="690" type="line" smooth="yes"/>
      <point x="66" y="690"/>
      <point x="18" y="626"/>
      <point x="18" y="528" type="curve" smooth="yes"/>
      <point x="18" y="425"/>
      <point x="64" y="351"/>
      <point x="131" y="348" type="curve" smooth="yes"/>
      <point x="157" y="347" type="line"/>
      <point x="157" y="45" type="line"/>
      <point x="46" y="8" type="line"/>
      <point x="48" y="0" type="line"/>
      <point x="391" y="0" type="line"/>
    </contour>
    <contour>
      <point x="207" y="645" type="line"/>
      <point x="235" y="645" type="line"/>
      <point x="235" y="45" type="line"/>
      <point x="207" y="45" type="line"/>
    </contour>
  </outline>
</glyph>
<glyph name="onesuperior" format="2">
	<advance width="240"/>
	<unicode hex="00B9"/>
	<outline>
		<contour>
			<point x="36" y="538" type="line"/>
			<point x="93" y="560" type="line"/>
			<point x="93" y="279" type="line"/>
			<point x="39" y="253" type="line"/>
			<point x="40" y="248" type="line"/>
			<point x="204" y="248" type="line"/>
			<point x="205" y="253" type="line"/>
			<point x="151" y="279" type="line"/>
			<point x="151" y="620" type="line"/>
			<point x="35" y="543" type="line"/>
		</contour>
	</outline>
</glyph>
<glyph name="onequarter" format="2">
  <advance width="835"/>
  <unicode hex="00BC"/>
  <outline>
    <contour>
      <point x="698" y="95" type="line"/>
      <point x="698" y="123" type="line"/>
      <point x="469" y="123" type="line"/>
      <point x="476" y="101" type="line"/>
      <point x="600" y="352" type="line"/>
      <point x="588" y="343" type="line"/>
      <point x="588" y="31" type="line"/>
      <point x="507" y="5" type="line"/>
      <point x="508" y="0" type="line"/>
      <point x="714" y="0" type="line"/>
      <point x="715" y="5" type="line"/>
      <point x="649" y="31" type="line"/>
      <point x="649" y="330" type="line"/>
      <point x="715" y="355" type="line"/>
      <point x="714" y="360" type="line"/>
      <point x="565" y="360" type="line"/>
      <point x="439" y="114" type="line"/>
      <point x="462" y="95" type="line"/>
    </contour>
    <component base="onesuperior" xOffset="90" identifier="375C2306"/>
    <component base="fraction" xOffset="215" identifier="8413F7FB"/>
  </outline>
</glyph>
<glyph name="threequarters" format="2">
	<advance width="878"/>
	<unicode hex="00BE"/>
	<outline>
		<contour>
			<point x="754" y="95" type="line"/>
			<point x="754" y="123" type="line"/>
			<point x="525" y="123" type="line"/>
			<point x="532" y="101" type="line"/>
			<point x="656" y="352" type="line"/>
			<point x="644" y="343" type="line"/>
			<point x="644" y="31" type="line"/>
			<point x="563" y="5" type="line"/>
			<point x="564" y="0" type="line"/>
			<point x="770" y="0" type="line"/>
			<point x="771" y="5" type="line"/>
			<point x="705" y="31" type="line"/>
			<point x="705" y="330" type="line"/>
			<point x="771" y="355" type="line"/>
			<point x="770" y="360" type="line"/>
			<point x="621" y="360" type="line"/>
			<point x="495" y="114" type="line"/>
			<point x="518" y="95" type="line"/>
		</contour>
		<component base="fraction" xOffset="272"/>
		<component base="threesuperior" xOffset="90"/>
	</outline>
</glyph>
<glyph name="AE" format="2">
  <advance width="776"/>
  <unicode hex="00C6"/>
  <anchor x="472" y="600" name="top"/>
  <outline>
    <contour>
      <point x="94" y="44" type="line"/>
      <point x="397" y="560" type="line"/>
      <point x="378" y="564" type="line"/>
      <point x="385" y="45" type="line"/>
      <point x="268" y="8" type="line"/>
      <point x="270" y="0" type="line"/>
      <point x="728" y="0" type="line"/>
      <point x="707" y="219" type="line"/>
      <point x="699" y="217" type="line"/>
      <point x="651" y="43" type="line"/>
      <point x="464" y="33" type="line"/>
      <point x="460" y="275" type="line"/>
      <point x="537" y="273" type="line"/>
      <point x="597" y="151" type="line"/>
      <point x="605" y="153" type="line"/>
      <point x="586" y="293" type="line"/>
      <point x="603" y="435" type="line"/>
      <point x="595" y="437" type="line"/>
      <point x="537" y="315" type="line"/>
      <point x="459" y="313" type="line"/>
      <point x="456" y="570" type="line"/>
      <point x="647" y="564" type="line"/>
      <point x="678" y="403" type="line"/>
      <point x="686" y="401" type="line"/>
      <point x="725" y="612" type="line"/>
      <point x="229" y="600" type="line"/>
      <point x="227" y="592" type="line"/>
      <point x="373" y="549" type="line"/>
      <point x="367" y="598" type="line"/>
      <point x="37" y="44" type="line"/>
      <point x="-33" y="8" type="line"/>
      <point x="-31" y="0" type="line"/>
      <point x="212" y="0" type="line"/>
      <point x="214" y="8" type="line"/>
    </contour>
    <contour>
      <point x="176" y="225" type="line"/>
      <point x="154" y="188" type="line"/>
      <point x="430" y="188" type="line"/>
      <point x="430" y="225" type="line"/>
    </contour>
  </outline>
</glyph>
<glyph name="Eth" format="2">
  <advance width="553"/>
  <unicode hex="00D0"/>
  <outline>
    <contour>
      <point x="348" y="321" type="line"/>
      <point x="30" y="321" type="line"/>
      <point x="30" y="279" type="line"/>
      <point x="348" y="279" type="line"/>
    </contour>
    <component base="D"/>
  </outline>
</glyph>
<glyph name="multiply" format="2">
  <advance width="444"/>
  <unicode hex="00D7"/>
  <outline>
    <contour>
      <point x="92" y="444" type="line"/>
      <point x="57" y="411" type="line"/>
      <point x="187" y="280" type="line"/>
      <point x="58" y="151" type="line"/>
      <point x="92" y="117" type="line"/>
      <point x="221" y="246" type="line"/>
      <point x="350" y="115" type="line"/>
      <point x="386" y="150" type="line"/>
      <point x="256" y="279" type="line"/>
      <point x="385" y="410" type="line"/>
      <point x="351" y="444" type="line"/>
      <point x="221" y="313" type="line"/>
    </contour>
  </outline>
</glyph>
<glyph name="Oslash" format="2">
  <advance width="529"/>
  <unicode hex="00D8"/>
  <outline>
    <contour>
      <point x="372" y="669" type="line"/>
      <point x="123" y="-62" type="line"/>
      <point x="158" y="-62" type="line"/>
      <point x="407" y="669" type="line"/>
    </contour>
    <component base="O"/>
  </outline>
</glyph>
<glyph name="Thorn" format="2">
  <advance width="498"/>
  <unicode hex="00DE"/>
  <outline>
    <contour>
      <point x="10" y="8" type="line"/>
      <point x="12" y="0" type="line"/>
      <point x="342" y="0" type="line"/>
      <point x="344" y="8" type="line"/>
      <point x="197" y="45" type="line"/>
      <point x="197" y="132" type="line"/>
      <point x="273" y="133" type="line" smooth="yes"/>
      <point x="382" y="134"/>
      <point x="470" y="204"/>
      <point x="470" y="309" type="curve" smooth="yes"/>
      <point x="470" y="409"/>
      <point x="390" y="478"/>
      <point x="271" y="478" type="curve" smooth="yes"/>
      <point x="197" y="478" type="line"/>
      <point x="197" y="555" type="line"/>
      <point x="343" y="592" type="line"/>
      <point x="341" y="600" type="line"/>
      <point x="10" y="600" type="line"/>
      <point x="8" y="592" type="line"/>
      <point x="118" y="555" type="line"/>
      <point x="118" y="45" type="line"/>
    </contour>
    <contour>
      <point x="197" y="174" type="line"/>
      <point x="197" y="442" type="line"/>
      <point x="261" y="441" type="line" smooth="yes"/>
      <point x="324" y="440"/>
      <point x="385" y="367"/>
      <point x="385" y="293" type="curve" smooth="yes"/>
      <point x="385" y="219"/>
      <point x="327" y="163"/>
      <point x="259" y="169" type="curve" smooth="yes"/>
    </contour>
  </outline>
</glyph>
<glyph name="germandbls" format="2">
  <advance width="476"/>
  <unicode hex="00DF"/>
  <outline>
    <contour>
      <point x="98" y="448" type="curve" smooth="yes"/>
      <point x="98" y="405" type="line"/>
      <point x="-12" y="375" type="line"/>
      <point x="-10" y="365" type="line"/>
      <point x="98" y="365" type="line"/>
      <point x="99" y="51" type="line"/>
      <point x="-23" y="8" type="line"/>
      <point x="-21" y="0" type="line"/>
      <point x="171" y="0" type="line"/>
      <point x="171" y="504" type="line" smooth="yes"/>
      <point x="171" y="635"/>
      <point x="190" y="679"/>
      <point x="247" y="679" type="curve" smooth="yes"/>
      <point x="291" y="679"/>
      <point x="332" y="652"/>
      <point x="362" y="605" type="curve"/>
      <point x="351" y="649" type="line"/>
      <point x="212" y="338" type="line"/>
      <point x="248" y="314" type="line"/>
      <point x="270" y="335"/>
      <point x="285" y="345"/>
      <point x="308" y="345" type="curve" smooth="yes"/>
      <point x="361" y="345"/>
      <point x="393" y="282"/>
      <point x="393" y="175" type="curve" smooth="yes"/>
      <point x="393" y="67"/>
      <point x="357" y="18"/>
      <point x="313" y="18" type="curve" smooth="yes"/>
      <point x="295" y="18"/>
      <point x="275" y="22"/>
      <point x="264" y="29" type="curve"/>
      <point x="244" y="140" type="line"/>
      <point x="236" y="142" type="line"/>
      <point x="202" y="13" type="line"/>
      <point x="224" y="-5"/>
      <point x="266" y="-19"/>
      <point x="298" y="-19" type="curve" smooth="yes"/>
      <point x="391" y="-19"/>
      <point x="463" y="76"/>
      <point x="463" y="196" type="curve" smooth="yes"/>
      <point x="463" y="305"/>
      <point x="404" y="389"/>
      <point x="327" y="389" type="curve" smooth="yes"/>
      <point x="307" y="389"/>
      <point x="281" y="381"/>
      <point x="257" y="365" type="curve"/>
      <point x="268" y="340" type="line"/>
      <point x="409" y="644" type="line"/>
      <point x="366" y="685"/>
      <point x="296" y="712"/>
      <point x="228" y="712" type="curve" smooth="yes"/>
      <point x="127" y="712"/>
      <point x="98" y="651"/>
    </contour>
  </outline>
</glyph>
<glyph name="ae" format="2">
  <advance width="615"/>
  <unicode hex="00E6"/>
  <anchor x="324" y="402" name="top"/>
  <outline>
    <contour>
      <point x="98" y="130" type="curve" smooth="yes"/>
      <point x="98" y="189"/>
      <point x="127" y="223"/>
      <point x="179" y="223" type="curve" smooth="yes"/>
      <point x="206" y="223"/>
      <point x="240" y="214"/>
      <point x="262" y="201" type="curve"/>
      <point x="262" y="65" type="line"/>
      <point x="249" y="42"/>
      <point x="210" y="23"/>
      <point x="179" y="23" type="curve" smooth="yes"/>
      <point x="132" y="23"/>
      <point x="98" y="67"/>
    </contour>
    <contour>
      <point x="196" y="422" type="curve" smooth="yes"/>
      <point x="146" y="422"/>
      <point x="103" y="411"/>
      <point x="44" y="382" type="curve"/>
      <point x="91" y="269" type="line"/>
      <point x="99" y="271" type="line"/>
      <point x="100" y="369" type="line"/>
      <point x="115" y="377"/>
      <point x="139" y="382"/>
      <point x="164" y="382" type="curve" smooth="yes"/>
      <point x="237" y="382"/>
      <point x="265" y="341"/>
      <point x="263" y="236" type="curve"/>
      <point x="233" y="251"/>
      <point x="193" y="260"/>
      <point x="161" y="260" type="curve" smooth="yes"/>
      <point x="81" y="260"/>
      <point x="28" y="203"/>
      <point x="28" y="115" type="curve" smooth="yes"/>
      <point x="28" y="31"/>
      <point x="75" y="-20"/>
      <point x="152" y="-20" type="curve" smooth="yes"/>
      <point x="214" y="-20"/>
      <point x="268" y="12"/>
      <point x="325" y="83" type="curve"/>
      <point x="285" y="81" type="line"/>
      <point x="311" y="15"/>
      <point x="364" y="-20"/>
      <point x="435" y="-20" type="curve" smooth="yes"/>
      <point x="491" y="-20"/>
      <point x="525" y="3"/>
      <point x="581" y="78" type="curve"/>
      <point x="569" y="86" type="line"/>
      <point x="524" y="37"/>
      <point x="490" y="17"/>
      <point x="454" y="17" type="curve" smooth="yes"/>
      <point x="379" y="17"/>
      <point x="326" y="107"/>
      <point x="327" y="230" type="curve" smooth="yes"/>
      <point x="327" y="328"/>
      <point x="365" y="386"/>
      <point x="430" y="386" type="curve" smooth="yes"/>
      <point x="483" y="386"/>
      <point x="502" y="348"/>
      <point x="503" y="243" type="curve"/>
      <point x="306" y="227" type="line"/>
      <point x="308" y="204" type="line"/>
      <point x="581" y="200" type="line"/>
      <point x="579" y="349"/>
      <point x="532" y="422"/>
      <point x="439" y="422" type="curve" smooth="yes"/>
      <point x="379" y="422"/>
      <point x="328" y="392"/>
      <point x="296" y="338" type="curve"/>
      <point x="324" y="333" type="line"/>
      <point x="310" y="396"/>
      <point x="272" y="422"/>
    </contour>
  </outline>
</glyph>
<glyph name="eth" format="2">
	<advance width="411"/>
	<unicode hex="00F0"/>
	<outline>
		<contour>
			<point x="123" y="505" type="line"/>
			<point x="140" y="480" type="line"/>
			<point x="384" y="630" type="line"/>
			<point x="366" y="656" type="line"/>
		</contour>
		<contour>
			<point x="139" y="712" type="curve"/>
			<point x="126" y="699" type="line"/>
			<point x="237" y="637"/>
			<point x="313" y="444"/>
			<point x="313" y="223" type="curve" smooth="yes"/>
			<point x="313" y="78"/>
			<point x="285" y="15"/>
			<point x="221" y="15" type="curve" smooth="yes"/>
			<point x="143" y="15"/>
			<point x="104" y="81"/>
			<point x="104" y="215" type="curve" smooth="yes"/>
			<point x="104" y="337"/>
			<point x="130" y="387"/>
			<point x="192" y="387" type="curve" smooth="yes"/>
			<point x="262" y="387"/>
			<point x="317" y="322"/>
			<point x="324" y="231" type="curve"/>
			<point x="347" y="323" type="line"/>
			<point x="314" y="389"/>
			<point x="267" y="422"/>
			<point x="204" y="422" type="curve" smooth="yes"/>
			<point x="102" y="422"/>
			<point x="29" y="328"/>
			<point x="29" y="197" type="curve" smooth="yes"/>
			<point x="29" y="71"/>
			<point x="104" y="-20"/>
			<point x="208" y="-20" type="curve" smooth="yes"/>
			<point x="315" y="-20"/>
			<point x="389" y="87"/>
			<point x="389" y="240" type="curve" smooth="yes"/>
			<point x="389" y="432"/>
			<point x="267" y="662"/>
		</contour>
	</outline>
</glyph>
<glyph name="divide" format="2">
  <advance width="487"/>
  <unicode hex="00F7"/>
  <outline>
    <contour>
      <point x="211" y="439" type="line"/>
      <point x="211" y="356" type="line"/>
      <point x="276" y="356" type="line"/>
      <point x="276" y="439" type="line"/>
    </contour>
    <contour>
      <point x="211" y="121" type="line"/>
      <point x="276" y="121" type="line"/>
      <point x="276" y="204" type="line"/>
      <point x="211" y="204" type="line"/>
    </contour>
    <contour>
      <point x="58" y="306" type="line"/>
      <point x="58" y="255" type="line"/>
      <point x="429" y="254" type="line"/>
      <point x="429" y="306" type="line"/>
    </contour>
  </outline>
</glyph>
<glyph name="oslash" format="2">
	<advance width="423"/>
	<unicode hex="00F8"/>
	<anchor x="212" y="402" name="top"/>
	<outline>
		<contour>
			<point x="29" y="199" type="curve" smooth="yes"/>
			<point x="29" y="118"/>
			<point x="51" y="59"/>
			<point x="94" y="21" type="curve"/>
			<point x="61" y="-51" type="line"/>
			<point x="101" y="-51" type="line"/>
			<point x="125" y="0" type="line"/>
			<point x="151" y="-14"/>
			<point x="177" y="-20"/>
			<point x="211" y="-20" type="curve" smooth="yes"/>
			<point x="323" y="-20"/>
			<point x="389" y="64"/>
			<point x="389" y="208" type="curve" smooth="yes"/>
			<point x="389" y="306"/>
			<point x="359" y="368"/>
			<point x="307" y="399" type="curve"/>
			<point x="334" y="460" type="line"/>
			<point x="294" y="460" type="line"/>
			<point x="273" y="414" type="line"/>
			<point x="256" y="419"/>
			<point x="232" y="422"/>
			<point x="212" y="422" type="curve" smooth="yes"/>
			<point x="96" y="422"/>
			<point x="29" y="340"/>
		</contour>
		<contour>
			<point x="104" y="217" type="curve" smooth="yes"/>
			<point x="104" y="340"/>
			<point x="132" y="387"/>
			<point x="201" y="387" type="curve" smooth="yes"/>
			<point x="220" y="387"/>
			<point x="240" y="381"/>
			<point x="254" y="371" type="curve"/>
			<point x="121" y="81" type="line"/>
			<point x="112" y="99"/>
			<point x="104" y="149"/>
		</contour>
		<contour>
			<point x="148" y="49" type="curve"/>
			<point x="285" y="350" type="line"/>
			<point x="304" y="324"/>
			<point x="314" y="264"/>
			<point x="314" y="191" type="curve" smooth="yes"/>
			<point x="314" y="70"/>
			<point x="285" y="15"/>
			<point x="223" y="15" type="curve" smooth="yes"/>
			<point x="193" y="15"/>
			<point x="166" y="27"/>
		</contour>
	</outline>
</glyph>
<glyph name="thorn" format="2">
  <advance width="420"/>
  <unicode hex="00FE"/>
  <outline>
    <contour>
      <point x="118" y="56" type="curve"/>
      <point x="118" y="312" type="line"/>
      <point x="142" y="352"/>
      <point x="170" y="375"/>
      <point x="206" y="375" type="curve" smooth="yes"/>
      <point x="271" y="375"/>
      <point x="314" y="300"/>
      <point x="314" y="188" type="curve" smooth="yes"/>
      <point x="314" y="83"/>
      <point x="274" y="20"/>
      <point x="207" y="20" type="curve" smooth="yes"/>
      <point x="174" y="20"/>
      <point x="139" y="34"/>
    </contour>
    <contour>
      <point x="-63" y="679" type="line"/>
      <point x="-62" y="671" type="line"/>
      <point x="46" y="657" type="line"/>
      <point x="46" y="-195" type="line"/>
      <point x="-28" y="-234" type="line"/>
      <point x="-26" y="-242" type="line"/>
      <point x="226" y="-242" type="line"/>
      <point x="228" y="-234" type="line"/>
      <point x="118" y="-195" type="line"/>
      <point x="118" y="11" type="line"/>
      <point x="138" y="-6"/>
      <point x="168" y="-20"/>
      <point x="200" y="-20" type="curve" smooth="yes"/>
      <point x="305" y="-20"/>
      <point x="386" y="86"/>
      <point x="386" y="216" type="curve" smooth="yes"/>
      <point x="386" y="336"/>
      <point x="324" y="422"/>
      <point x="231" y="422" type="curve" smooth="yes"/>
      <point x="186" y="422"/>
      <point x="146" y="401"/>
      <point x="116" y="354" type="curve"/>
      <point x="116" y="712" type="line"/>
    </contour>
  </outline>
</glyph>
<glyph name="idotless" format="2">
	<advance width="340"/>
	<unicode hex="0131"/>
	<anchor x="170" y="10" name="ogonek"/>
	<anchor x="184" y="402" name="top"/>
	<outline>
		<contour>
			<point x="217" y="47" type="line"/>
			<point x="217" y="422" type="line"/>
			<point x="33" y="345" type="line"/>
			<point x="35" y="337" type="line"/>
			<point x="144" y="345" type="line"/>
			<point x="144" y="47" type="line"/>
			<point x="34" y="8" type="line"/>
			<point x="36" y="0" type="line"/>
			<point x="325" y="0" type="line"/>
			<point x="327" y="8" type="line"/>
		</contour>
	</outline>
</glyph>
<glyph name="Lslash" format="2">
	<advance width="519"/>
	<unicode hex="0141"/>
	<outline>
		<contour>
			<point x="409" y="443" type="line"/>
			<point x="385" y="472" type="line"/>
			<point x="8" y="156" type="line"/>
			<point x="32" y="127" type="line"/>
		</contour>
		<component base="L" xOffset="7"/>
	</outline>
</glyph>
<glyph name="lslash" format="2">
  <advance width="298"/>
  <unicode hex="0142"/>
  <outline>
    <contour>
      <point x="-22" y="283" type="line"/>
      <point x="-4" y="251" type="line"/>
      <point x="307" y="415" type="line"/>
      <point x="289" y="448" type="line"/>
    </contour>
    <component base="l" xOffset="18"/>
  </outline>
</glyph>
<glyph name="OE" format="2">
  <advance width="742"/>
  <unicode hex="0152"/>
  <anchor x="359" y="0" name="bottom"/>
  <anchor x="359" y="600" name="top"/>
  <outline>
    <contour>
      <point x="111" y="327" type="curve" smooth="yes"/>
      <point x="111" y="471"/>
      <point x="163" y="572"/>
      <point x="250" y="572" type="curve" smooth="yes"/>
      <point x="282" y="572"/>
      <point x="309" y="561"/>
      <point x="332" y="540" type="curve"/>
      <point x="332" y="47" type="line"/>
      <point x="315" y="35"/>
      <point x="295" y="28"/>
      <point x="273" y="28" type="curve" smooth="yes"/>
      <point x="167" y="28"/>
      <point x="111" y="152"/>
    </contour>
    <contour>
      <point x="26" y="298" type="curve" smooth="yes"/>
      <point x="26" y="111"/>
      <point x="107" y="-20"/>
      <point x="250" y="-20" type="curve" smooth="yes"/>
      <point x="286" y="-20"/>
      <point x="317" y="-13"/>
      <point x="346" y="0" type="curve"/>
      <point x="694" y="0" type="line"/>
      <point x="673" y="219" type="line"/>
      <point x="665" y="217" type="line"/>
      <point x="617" y="43" type="line"/>
      <point x="411" y="33" type="line"/>
      <point x="411" y="275" type="line"/>
      <point x="504" y="273" type="line"/>
      <point x="564" y="151" type="line"/>
      <point x="572" y="153" type="line"/>
      <point x="553" y="293" type="line"/>
      <point x="570" y="435" type="line"/>
      <point x="562" y="437" type="line"/>
      <point x="504" y="315" type="line"/>
      <point x="411" y="313" type="line"/>
      <point x="411" y="570" type="line"/>
      <point x="613" y="564" type="line"/>
      <point x="644" y="403" type="line"/>
      <point x="652" y="401" type="line"/>
      <point x="691" y="612" type="line"/>
      <point x="354" y="604" type="line"/>
      <point x="329" y="614"/>
      <point x="303" y="620"/>
      <point x="272" y="620" type="curve" smooth="yes"/>
      <point x="116" y="620"/>
      <point x="26" y="488"/>
    </contour>
  </outline>
</glyph>
<glyph name="oe" format="2">
	<advance width="695"/>
	<unicode hex="0153"/>
	<outline>
		<contour>
			<point x="214" y="-20" type="curve" smooth="yes"/>
			<point x="295" y="-20"/>
			<point x="347" y="19"/>
			<point x="374" y="99" type="curve"/>
			<point x="346" y="99" type="line"/>
			<point x="372" y="21"/>
			<point x="427" y="-20"/>
			<point x="503" y="-20" type="curve" smooth="yes"/>
			<point x="564" y="-20"/>
			<point x="609" y="7"/>
			<point x="661" y="78" type="curve"/>
			<point x="649" y="86" type="line"/>
			<point x="607" y="41"/>
			<point x="563" y="17"/>
			<point x="522" y="17" type="curve" smooth="yes"/>
			<point x="446" y="17"/>
			<point x="392" y="106"/>
			<point x="392" y="230" type="curve" smooth="yes"/>
			<point x="392" y="330"/>
			<point x="430" y="386"/>
			<point x="497" y="386" type="curve" smooth="yes"/>
			<point x="556" y="386"/>
			<point x="581" y="344"/>
			<point x="583" y="243" type="curve"/>
			<point x="372" y="227" type="line"/>
			<point x="374" y="204" type="line"/>
			<point x="660" y="200" type="line"/>
			<point x="658" y="346"/>
			<point x="606" y="422"/>
			<point x="507" y="422" type="curve" smooth="yes"/>
			<point x="434" y="422"/>
			<point x="378" y="380"/>
			<point x="349" y="305" type="curve"/>
			<point x="376" y="305" type="line"/>
			<point x="351" y="383"/>
			<point x="296" y="422"/>
			<point x="214" y="422" type="curve" smooth="yes"/>
			<point x="98" y="422"/>
			<point x="29" y="339"/>
			<point x="29" y="199" type="curve" smooth="yes"/>
			<point x="29" y="61"/>
			<point x="97" y="-20"/>
		</contour>
		<contour>
			<point x="104" y="217" type="curve" smooth="yes"/>
			<point x="104" y="327"/>
			<point x="139" y="387"/>
			<point x="203" y="387" type="curve" smooth="yes"/>
			<point x="276" y="387"/>
			<point x="318" y="316"/>
			<point x="318" y="191" type="curve" smooth="yes"/>
			<point x="318" y="72"/>
			<point x="288" y="15"/>
			<point x="225" y="15" type="curve" smooth="yes"/>
			<point x="150" y="15"/>
			<point x="104" y="92"/>
		</contour>
	</outline>
</glyph>
<glyph name="Schwa" format="2">
	<advance width="530"/>
	<unicode hex="018F"/>
	<outline>
		<contour>
			<point x="438" y="276" type="line"/>
			<point x="435" y="299" type="line"/>
			<point x="26" y="304" type="line"/>
			<point x="28" y="89"/>
			<point x="106" y="-19"/>
			<point x="249" y="-19" type="curve" smooth="yes"/>
			<point x="402" y="-19"/>
			<point x="497" y="115"/>
			<point x="497" y="315" type="curve" smooth="yes"/>
			<point x="497" y="513"/>
			<point x="404" y="620"/>
			<point x="275" y="620" type="curve" smooth="yes"/>
			<point x="187" y="620"/>
			<point x="103" y="581"/>
			<point x="45" y="488" type="curve"/>
			<point x="63" y="477" type="line"/>
			<point x="107" y="546"/>
			<point x="180" y="572"/>
			<point x="237" y="572" type="curve" smooth="yes"/>
			<point x="343" y="572"/>
			<point x="412" y="448"/>
			<point x="412" y="279" type="curve" smooth="yes"/>
			<point x="412" y="127"/>
			<point x="354" y="29"/>
			<point x="262" y="29" type="curve" smooth="yes"/>
			<point x="179" y="29"/>
			<point x="127" y="104"/>
			<point x="125" y="259" type="curve"/>
		</contour>
	</outline>
</glyph>
<glyph name="florin" format="2">
  <advance width="331"/>
  <unicode hex="0192"/>
  <outline>
    <contour>
      <point x="168" y="23" type="curve" smooth="yes"/>
      <point x="184" y="369" type="line"/>
      <point x="278" y="367" type="line"/>
      <point x="296" y="275" type="line"/>
      <point x="304" y="273" type="line"/>
      <point x="346" y="401" type="line"/>
      <point x="186" y="402" type="line"/>
      <point x="191" y="504" type="line" smooth="yes"/>
      <point x="199" y="667"/>
      <point x="202" y="676"/>
      <point x="253" y="678" type="curve" smooth="yes"/>
      <point x="277" y="679"/>
      <point x="314" y="673"/>
      <point x="332" y="662" type="curve"/>
      <point x="347" y="559" type="line"/>
      <point x="355" y="557" type="line"/>
      <point x="389" y="675" type="line"/>
      <point x="354" y="698"/>
      <point x="299" y="712"/>
      <point x="251" y="712" type="curve" smooth="yes"/>
      <point x="157" y="712"/>
      <point x="123" y="658"/>
      <point x="115" y="446" type="curve" smooth="yes"/>
      <point x="113" y="405" type="line"/>
      <point x="3" y="375" type="line"/>
      <point x="5" y="365" type="line"/>
      <point x="111" y="365" type="line"/>
      <point x="92" y="-34" type="line" smooth="yes"/>
      <point x="84" y="-193"/>
      <point x="78" y="-209"/>
      <point x="29" y="-209" type="curve" smooth="yes"/>
      <point x="-28" y="-209"/>
      <point x="-72" y="-196"/>
      <point x="-121" y="-168" type="curve"/>
      <point x="-131" y="-180" type="line"/>
      <point x="-86" y="-214"/>
      <point x="-13" y="-242"/>
      <point x="31" y="-242" type="curve" smooth="yes"/>
      <point x="128" y="-242"/>
      <point x="159" y="-181"/>
    </contour>
  </outline>
</glyph>
<glyph name="jdotless" format="2">
	<advance width="264"/>
	<unicode hex="0237"/>
	<anchor x="153" y="412" name="top"/>
	<outline>
		<contour>
			<point x="12" y="355" type="line"/>
			<point x="14" y="347" type="line"/>
			<point x="123" y="355" type="line"/>
			<point x="123" y="9" type="line" smooth="yes"/>
			<point x="123" y="-149"/>
			<point x="86" y="-192"/>
			<point x="33" y="-239" type="curve"/>
			<point x="41" y="-251" type="line"/>
			<point x="127" y="-216"/>
			<point x="196" y="-133"/>
			<point x="196" y="9" type="curve" smooth="yes"/>
			<point x="196" y="432" type="line"/>
		</contour>
	</outline>
</glyph>
<glyph name="gravecomb" format="2">
	<advance width="266"/>
	<unicode hex="0300"/>
	<anchor x="135" y="403" name="_top"/>
	<outline>
		<contour>
			<point x="48" y="550" type="line"/>
			<point x="209" y="508" type="line"/>
			<point x="218" y="528" type="line"/>
			<point x="75" y="609" type="line"/>
		</contour>
	</outline>
</glyph>
<glyph name="circumflexcomb" format="2">
	<advance width="312"/>
	<unicode hex="0302"/>
	<anchor x="156" y="403" name="_top"/>
	<outline>
		<contour>
			<point x="156" y="628" type="line"/>
			<point x="46" y="533" type="line"/>
			<point x="59" y="516" type="line"/>
			<point x="156" y="563" type="line"/>
			<point x="252" y="516" type="line"/>
			<point x="266" y="533" type="line"/>
		</contour>
	</outline>
</glyph>
<glyph name="tildecomb" format="2">
	<advance width="332"/>
	<unicode hex="0303"/>
	<anchor x="166" y="402" name="_top"/>
	<outline>
		<contour>
			<point x="287" y="602" type="curve"/>
			<point x="269" y="606" type="line"/>
			<point x="260" y="580"/>
			<point x="240" y="564"/>
			<point x="219" y="564" type="curve" smooth="yes"/>
			<point x="183" y="564"/>
			<point x="174" y="608"/>
			<point x="131" y="608" type="curve" smooth="yes"/>
			<point x="95" y="608"/>
			<point x="52" y="579"/>
			<point x="44" y="513" type="curve"/>
			<point x="62" y="508" type="line"/>
			<point x="76" y="539"/>
			<point x="93" y="550"/>
			<point x="112" y="550" type="curve" smooth="yes"/>
			<point x="147" y="550"/>
			<point x="161" y="506"/>
			<point x="203" y="506" type="curve" smooth="yes"/>
			<point x="244" y="506"/>
			<point x="283" y="550"/>
		</contour>
	</outline>
</glyph>
<glyph name="macroncomb" format="2">
  <advance width="293"/>
  <unicode hex="0304"/>
  <anchor x="152" y="400" name="_top"/>
  <outline>
    <contour>
      <point x="48" y="586" type="line"/>
      <point x="48" y="539" type="line"/>
      <point x="245" y="539" type="line"/>
      <point x="245" y="586" type="line"/>
    </contour>
  </outline>
</glyph>
<glyph name="brevecomb" format="2">
  <advance width="286"/>
  <unicode hex="0306"/>
  <anchor x="144" y="402" name="_top"/>
  <outline>
    <contour>
      <point x="239" y="626" type="curve"/>
      <point x="207" y="626" type="line"/>
      <point x="203" y="580"/>
      <point x="186" y="552"/>
      <point x="144" y="552" type="curve" smooth="yes"/>
      <point x="103" y="552"/>
      <point x="83" y="576"/>
      <point x="79" y="626" type="curve"/>
      <point x="47" y="626" type="line"/>
      <point x="47" y="547"/>
      <point x="88" y="510"/>
      <point x="144" y="510" type="curve" smooth="yes"/>
      <point x="199" y="510"/>
      <point x="239" y="546"/>
    </contour>
  </outline>
</glyph>
<glyph name="dotaccentcomb" format="2">
	<advance width="161"/>
	<unicode hex="0307"/>
	<anchor x="80" y="403" name="_top"/>
	<outline>
		<contour>
			<point x="48" y="612" type="line"/>
			<point x="48" y="520" type="line"/>
			<point x="113" y="520" type="line"/>
			<point x="113" y="612" type="line"/>
		</contour>
	</outline>
</glyph>
<glyph name="dieresiscomb" format="2">
  <advance width="273"/>
  <unicode hex="0308"/>
  <anchor x="136" y="403" name="_top"/>
  <outline>
    <contour>
      <point x="48" y="613" type="line"/>
      <point x="48" y="522" type="line"/>
      <point x="113" y="522" type="line"/>
      <point x="113" y="613" type="line"/>
    </contour>
    <contour>
      <point x="160" y="613" type="line"/>
      <point x="160" y="522" type="line"/>
      <point x="225" y="522" type="line"/>
      <point x="225" y="613" type="line"/>
    </contour>
  </outline>
</glyph>
<glyph name="ringcomb" format="2">
  <advance width="267"/>
  <unicode hex="030A"/>
  <anchor x="134" y="402" name="_top"/>
  <outline>
    <contour>
      <point x="130" y="483" type="curve" smooth="yes"/>
      <point x="184" y="483"/>
      <point x="220" y="521"/>
      <point x="220" y="578" type="curve" smooth="yes"/>
      <point x="220" y="630"/>
      <point x="186" y="664"/>
      <point x="138" y="664" type="curve" smooth="yes"/>
      <point x="83" y="664"/>
      <point x="47" y="628"/>
      <point x="47" y="571" type="curve" smooth="yes"/>
      <point x="47" y="518"/>
      <point x="80" y="483"/>
    </contour>
    <contour>
      <point x="139" y="518" type="curve" smooth="yes"/>
      <point x="111" y="518"/>
      <point x="97" y="537"/>
      <point x="97" y="577" type="curve" smooth="yes"/>
      <point x="97" y="612"/>
      <point x="107" y="629"/>
      <point x="129" y="629" type="curve" smooth="yes"/>
      <point x="157" y="629"/>
      <point x="170" y="610"/>
      <point x="170" y="571" type="curve" smooth="yes"/>
      <point x="170" y="537"/>
      <point x="160" y="518"/>
    </contour>
  </outline>
</glyph>
<glyph name="hungarumlautcomb" format="2">
  <advance width="374"/>
  <unicode hex="030B"/>
  <anchor x="156" y="403" name="_top"/>
  <outline>
    <contour>
      <point x="326" y="540" type="line"/>
      <point x="299" y="597" type="line"/>
      <point x="157" y="517" type="line"/>
      <point x="166" y="498" type="line"/>
    </contour>
    <contour>
      <point x="208" y="578" type="line"/>
      <point x="167" y="627" type="line"/>
      <point x="48" y="515" type="line"/>
      <point x="62" y="500" type="line"/>
    </contour>
  </outline>
</glyph>
<glyph name="cedillacomb" format="2">
	<advance width="270"/>
	<unicode hex="0327"/>
	<anchor x="164" y="0" name="_bottom"/>
	<outline>
		<contour>
			<point x="144" y="0" type="line"/>
			<point x="95" y="-86" type="line"/>
			<point x="117" y="-99" type="line"/>
			<point x="124" y="-97"/>
			<point x="128" y="-96"/>
			<point x="137" y="-96" type="curve" smooth="yes"/>
			<point x="152" y="-96"/>
			<point x="163" y="-106"/>
			<point x="163" y="-130" type="curve" smooth="yes"/>
			<point x="163" y="-161"/>
			<point x="143" y="-176"/>
			<point x="121" y="-176" type="curve" smooth="yes"/>
			<point x="103" y="-176"/>
			<point x="82" y="-169"/>
			<point x="59" y="-159" type="curve"/>
			<point x="48" y="-169" type="line"/>
			<point x="74" y="-189"/>
			<point x="110" y="-204"/>
			<point x="136" y="-204" type="curve" smooth="yes"/>
			<point x="191" y="-204"/>
			<point x="222" y="-169"/>
			<point x="222" y="-129" type="curve" smooth="yes"/>
			<point x="222" y="-98"/>
			<point x="199" y="-74"/>
			<point x="166" y="-74" type="curve" smooth="yes"/>
			<point x="154" y="-74"/>
			<point x="142" y="-77"/>
			<point x="129" y="-82" type="curve"/>
			<point x="133" y="-85" type="line"/>
			<point x="184" y="0" type="line"/>
		</contour>
	</outline>
</glyph>
<glyph name="ogonekcomb" format="2">
  <advance width="313"/>
  <unicode hex="0328"/>
  <anchor x="187" y="0" name="_ogonek"/>
  <outline>
    <contour>
      <point x="305" y="-84" type="curve"/>
      <point x="296" y="-79" type="line"/>
      <point x="268" y="-121"/>
      <point x="233" y="-145"/>
      <point x="205" y="-145" type="curve" smooth="yes"/>
      <point x="154" y="-145"/>
      <point x="167" y="-66"/>
      <point x="220" y="7" type="curve"/>
      <point x="188" y="7" type="line"/>
      <point x="148" y="-40"/>
      <point x="121" y="-99"/>
      <point x="121" y="-141" type="curve" smooth="yes"/>
      <point x="121" y="-182"/>
      <point x="145" y="-204"/>
      <point x="188" y="-204" type="curve" smooth="yes"/>
      <point x="231" y="-204"/>
      <point x="280" y="-155"/>
    </contour>
  </outline>
</glyph>
<glyph name="strokeshortcomb" format="2">
	<advance width="380"/>
	<unicode hex="0335"/>
	<anchor x="196" y="241" name="_bar"/>
	<outline>
		<contour>
			<point x="70" y="250" type="line"/>
			<point x="70" y="235" type="line"/>
			<point x="310" y="215" type="line"/>
			<point x="310" y="269" type="line"/>
		</contour>
	</outline>
</glyph>
<glyph name="mu" format="2">
  <advance width="497"/>
  <unicode hex="03BC"/>
  <outline>
    <contour>
      <point x="89" y="204" type="line"/>
      <point x="89" y="-242" type="line"/>
      <point x="162" y="-242" type="line"/>
      <point x="162" y="204" type="line"/>
    </contour>
    <contour>
      <point x="-22" y="345" type="line"/>
      <point x="-20" y="337" type="line"/>
      <point x="89" y="345" type="line"/>
      <point x="89" y="138" type="line" smooth="yes"/>
      <point x="89" y="31"/>
      <point x="124" y="-20"/>
      <point x="199" y="-20" type="curve" smooth="yes"/>
      <point x="247" y="-20"/>
      <point x="299" y="3"/>
      <point x="342" y="41" type="curve"/>
      <point x="342" y="-20" type="line"/>
      <point x="514" y="56" type="line"/>
      <point x="512" y="64" type="line"/>
      <point x="415" y="53" type="line"/>
      <point x="415" y="422" type="line"/>
      <point x="231" y="345" type="line"/>
      <point x="233" y="337" type="line"/>
      <point x="342" y="345" type="line"/>
      <point x="342" y="77" type="line"/>
      <point x="310" y="50"/>
      <point x="274" y="32"/>
      <point x="237" y="32" type="curve" smooth="yes"/>
      <point x="184" y="32"/>
      <point x="162" y="68"/>
      <point x="162" y="149" type="curve" smooth="yes"/>
      <point x="162" y="422" type="line"/>
    </contour>
  </outline>
</glyph>
<glyph name="Germandbls" format="2">
	<advance width="574"/>
	<unicode hex="1E9E"/>
	<outline>
		<contour>
			<point x="503" y="585" type="line"/>
			<point x="468" y="611" type="line"/>
			<point x="10" y="600" type="line"/>
			<point x="8" y="592" type="line"/>
			<point x="118" y="555" type="line"/>
			<point x="118" y="45" type="line"/>
			<point x="8" y="8" type="line"/>
			<point x="10" y="0" type="line"/>
			<point x="196" y="0" type="line"/>
			<point x="197" y="570" type="line"/>
			<point x="443" y="560" type="line"/>
			<point x="435" y="596" type="line"/>
			<point x="273" y="317" type="line"/>
			<point x="307" y="289" type="line"/>
			<point x="397" y="332"/>
			<point x="484" y="272"/>
			<point x="482" y="156" type="curve" smooth="yes"/>
			<point x="481" y="71"/>
			<point x="449" y="26"/>
			<point x="378" y="26" type="curve" smooth="yes"/>
			<point x="352" y="26"/>
			<point x="336" y="29"/>
			<point x="313" y="42" type="curve"/>
			<point x="295" y="201" type="line"/>
			<point x="287" y="203" type="line"/>
			<point x="235" y="17" type="line"/>
			<point x="256" y="-2"/>
			<point x="322" y="-20"/>
			<point x="377" y="-20" type="curve" smooth="yes"/>
			<point x="472" y="-20"/>
			<point x="551" y="75"/>
			<point x="551" y="191" type="curve" smooth="yes"/>
			<point x="551" y="309"/>
			<point x="452" y="371"/>
			<point x="339" y="336" type="curve"/>
			<point x="343" y="315" type="line"/>
		</contour>
	</outline>
</glyph>
<glyph name="endash" format="2">
  <advance width="390"/>
  <unicode hex="2013"/>
  <outline>
    <contour>
      <point x="38" y="265" type="line"/>
      <point x="38" y="216" type="line"/>
      <point x="352" y="216" type="line"/>
      <point x="352" y="265" type="line"/>
    </contour>
  </outline>
</glyph>
<glyph name="emdash" format="2">
	<advance width="599"/>
	<unicode hex="2014"/>
	<outline>
		<contour>
			<point x="38" y="265" type="line"/>
			<point x="38" y="216" type="line"/>
			<point x="561" y="216" type="line"/>
			<point x="561" y="265" type="line"/>
		</contour>
	</outline>
</glyph>
<glyph name="dagger" format="2">
	<advance width="357"/>
	<unicode hex="2020"/>
	<outline>
		<contour>
			<point x="220" y="390" type="line"/>
			<point x="189" y="-240" type="line"/>
			<point x="169" y="-240" type="line"/>
			<point x="137" y="390" type="line"/>
			<point x="164" y="530" type="line"/>
			<point x="140" y="644" type="line"/>
			<point x="63" y="682" type="line"/>
			<point x="65" y="690" type="line"/>
			<point x="293" y="690" type="line"/>
			<point x="295" y="682" type="line"/>
			<point x="217" y="644" type="line"/>
			<point x="194" y="530" type="line"/>
		</contour>
		<contour>
			<point x="56" y="560" type="line"/>
			<point x="179" y="544" type="line"/>
			<point x="301" y="559" type="line"/>
			<point x="301" y="511" type="line"/>
			<point x="179" y="528" type="line"/>
			<point x="56" y="513" type="line"/>
		</contour>
	</outline>
</glyph>
<glyph name="daggerdbl" format="2">
  <advance width="357"/>
  <unicode hex="2021"/>
  <outline>
    <contour>
      <point x="217" y="60" type="line"/>
      <point x="191" y="-80" type="line"/>
      <point x="215" y="-195" type="line"/>
      <point x="292" y="-232" type="line"/>
      <point x="290" y="-240" type="line"/>
      <point x="62" y="-240" type="line"/>
      <point x="60" y="-232" type="line"/>
      <point x="138" y="-195" type="line"/>
      <point x="161" y="-80" type="line"/>
      <point x="135" y="60" type="line"/>
      <point x="161" y="225" type="line"/>
      <point x="135" y="390" type="line"/>
      <point x="161" y="530" type="line"/>
      <point x="138" y="646" type="line"/>
      <point x="60" y="682" type="line"/>
      <point x="62" y="690" type="line"/>
      <point x="290" y="690" type="line"/>
      <point x="292" y="682" type="line"/>
      <point x="215" y="646" type="line"/>
      <point x="191" y="530" type="line"/>
      <point x="217" y="390" type="line"/>
      <point x="191" y="225" type="line"/>
    </contour>
    <contour>
      <point x="56" y="-111" type="line"/>
      <point x="56" y="-64" type="line"/>
      <point x="179" y="-79" type="line"/>
      <point x="301" y="-64" type="line"/>
      <point x="301" y="-112" type="line"/>
      <point x="179" y="-95" type="line"/>
    </contour>
    <contour>
      <point x="56" y="561" type="line"/>
      <point x="179" y="545" type="line"/>
      <point x="301" y="560" type="line"/>
      <point x="301" y="512" type="line"/>
      <point x="179" y="529" type="line"/>
      <point x="56" y="513" type="line"/>
    </contour>
  </outline>
</glyph>
<glyph name="bullet" format="2">
	<advance width="312"/>
	<unicode hex="2022"/>
	<outline>
		<contour>
			<point x="156" y="92" type="curve" smooth="yes"/>
			<point x="211" y="92"/>
			<point x="247" y="138"/>
			<point x="247" y="208" type="curve" smooth="yes"/>
			<point x="247" y="276"/>
			<point x="211" y="322"/>
			<point x="156" y="322" type="curve" smooth="yes"/>
			<point x="101" y="322"/>
			<point x="65" y="276"/>
			<point x="65" y="208" type="curve" smooth="yes"/>
			<point x="65" y="138"/>
			<point x="101" y="92"/>
		</contour>
	</outline>
</glyph>
<glyph name="perthousand" format="2">
  <advance width="912"/>
  <unicode hex="2030"/>
  <outline>
    <contour>
      <point x="486" y="-4" type="curve" smooth="yes"/>
      <point x="543" y="-4"/>
      <point x="589" y="56"/>
      <point x="589" y="131" type="curve" smooth="yes"/>
      <point x="589" y="205"/>
      <point x="544" y="263"/>
      <point x="486" y="263" type="curve" smooth="yes"/>
      <point x="429" y="263"/>
      <point x="382" y="205"/>
      <point x="382" y="131" type="curve" smooth="yes"/>
      <point x="382" y="56"/>
      <point x="429" y="-4"/>
    </contour>
    <contour>
      <point x="486" y="37" type="curve" smooth="yes"/>
      <point x="453" y="37"/>
      <point x="434" y="71"/>
      <point x="434" y="131" type="curve" smooth="yes"/>
      <point x="434" y="189"/>
      <point x="452" y="222"/>
      <point x="486" y="222" type="curve" smooth="yes"/>
      <point x="519" y="222"/>
      <point x="537" y="189"/>
      <point x="537" y="131" type="curve" smooth="yes"/>
      <point x="537" y="71"/>
      <point x="518" y="37"/>
    </contour>
    <contour>
      <point x="320" y="314" type="line"/>
      <point x="335" y="312" type="line"/>
      <point x="499" y="600" type="line"/>
      <point x="401" y="600" type="line"/>
    </contour>
    <contour>
      <point x="159" y="333" type="curve" smooth="yes"/>
      <point x="216" y="333"/>
      <point x="262" y="393"/>
      <point x="262" y="468" type="curve" smooth="yes"/>
      <point x="262" y="542"/>
      <point x="217" y="600"/>
      <point x="159" y="600" type="curve" smooth="yes"/>
      <point x="102" y="600"/>
      <point x="55" y="542"/>
      <point x="55" y="468" type="curve" smooth="yes"/>
      <point x="55" y="393"/>
      <point x="102" y="333"/>
    </contour>
    <contour>
      <point x="159" y="374" type="curve" smooth="yes"/>
      <point x="126" y="374"/>
      <point x="107" y="408"/>
      <point x="107" y="468" type="curve" smooth="yes"/>
      <point x="107" y="526"/>
      <point x="125" y="559"/>
      <point x="159" y="559" type="curve" smooth="yes"/>
      <point x="192" y="559"/>
      <point x="210" y="526"/>
      <point x="210" y="468" type="curve" smooth="yes"/>
      <point x="210" y="408"/>
      <point x="191" y="374"/>
    </contour>
    <contour>
      <point x="324" y="286" type="line"/>
      <point x="309" y="288" type="line"/>
      <point x="145" y="0" type="line"/>
      <point x="243" y="0" type="line"/>
    </contour>
    <contour>
      <point x="751" y="-4" type="curve" smooth="yes"/>
      <point x="808" y="-4"/>
      <point x="854" y="56"/>
      <point x="854" y="131" type="curve" smooth="yes"/>
      <point x="854" y="205"/>
      <point x="809" y="263"/>
      <point x="751" y="263" type="curve" smooth="yes"/>
      <point x="694" y="263"/>
      <point x="647" y="205"/>
      <point x="647" y="131" type="curve" smooth="yes"/>
      <point x="647" y="56"/>
      <point x="694" y="-4"/>
    </contour>
    <contour>
      <point x="751" y="37" type="curve" smooth="yes"/>
      <point x="718" y="37"/>
      <point x="699" y="71"/>
      <point x="699" y="131" type="curve" smooth="yes"/>
      <point x="699" y="189"/>
      <point x="717" y="222"/>
      <point x="751" y="222" type="curve" smooth="yes"/>
      <point x="784" y="222"/>
      <point x="802" y="189"/>
      <point x="802" y="131" type="curve" smooth="yes"/>
      <point x="802" y="71"/>
      <point x="783" y="37"/>
    </contour>
  </outline>
</glyph>
<glyph name="guilsinglleft" format="2">
  <advance width="203"/>
  <unicode hex="2039"/>
  <outline>
    <contour>
      <point x="184" y="396" type="line"/>
      <point x="28" y="202" type="line"/>
      <point x="184" y="10" type="line"/>
      <point x="195" y="17" type="line"/>
      <point x="107" y="202" type="line"/>
      <point x="195" y="389" type="line"/>
    </contour>
  </outline>
</glyph>
<glyph name="fraction" format="2">
  <advance width="363"/>
  <unicode hex="2044"/>
  <outline>
    <contour>
      <point x="84" y="0" type="line"/>
      <point x="313" y="611" type="line"/>
      <point x="278" y="624" type="line"/>
      <point x="50" y="13" type="line"/>
    </contour>
  </outline>
</glyph>
<glyph name="zerosuperior" format="2">
  <advance width="324"/>
  <unicode hex="2070"/>
  <outline>
    <contour>
      <point x="156" y="236" type="curve" smooth="yes"/>
      <point x="233" y="236"/>
      <point x="288" y="307"/>
      <point x="288" y="440" type="curve" smooth="yes"/>
      <point x="288" y="558"/>
      <point x="237" y="620"/>
      <point x="172" y="620" type="curve" smooth="yes"/>
      <point x="89" y="620"/>
      <point x="35" y="552"/>
      <point x="35" y="423" type="curve" smooth="yes"/>
      <point x="35" y="301"/>
      <point x="85" y="236"/>
    </contour>
    <contour>
      <point x="164" y="267" type="curve" smooth="yes"/>
      <point x="120" y="267"/>
      <point x="95" y="322"/>
      <point x="95" y="439" type="curve" smooth="yes"/>
      <point x="95" y="542"/>
      <point x="120" y="590"/>
      <point x="167" y="590" type="curve" smooth="yes"/>
      <point x="206" y="590"/>
      <point x="228" y="537"/>
      <point x="228" y="425" type="curve" smooth="yes"/>
      <point x="228" y="318"/>
      <point x="205" y="267"/>
    </contour>
  </outline>
</glyph>
<glyph name="euro" format="2">
  <advance width="496"/>
  <unicode hex="20AC"/>
  <outline>
    <contour>
      <point x="26" y="283" type="line"/>
      <point x="26" y="246" type="line"/>
      <point x="326" y="246" type="line"/>
      <point x="339" y="283" type="line"/>
    </contour>
    <contour>
      <point x="26" y="361" type="line"/>
      <point x="26" y="324" type="line"/>
      <point x="354" y="324" type="line"/>
      <point x="367" y="361" type="line"/>
    </contour>
    <contour>
      <point x="304" y="576" type="curve" smooth="yes"/>
      <point x="343" y="577"/>
      <point x="362" y="567"/>
      <point x="381" y="556" type="curve"/>
      <point x="401" y="389" type="line"/>
      <point x="409" y="387" type="line"/>
      <point x="457" y="592" type="line"/>
      <point x="406" y="612"/>
      <point x="362" y="621"/>
      <point x="318" y="621" type="curve" smooth="yes"/>
      <point x="176" y="621"/>
      <point x="97" y="492"/>
      <point x="97" y="288" type="curve" smooth="yes"/>
      <point x="97" y="109"/>
      <point x="171" y="-20"/>
      <point x="288" y="-20" type="curve" smooth="yes"/>
      <point x="352" y="-20"/>
      <point x="401" y="11"/>
      <point x="458" y="94" type="curve"/>
      <point x="446" y="109" type="line"/>
      <point x="400" y="56"/>
      <point x="367" y="37"/>
      <point x="322" y="37" type="curve" smooth="yes"/>
      <point x="229" y="37"/>
      <point x="181" y="151"/>
      <point x="181" y="306" type="curve" smooth="yes"/>
      <point x="181" y="474"/>
      <point x="222" y="576"/>
    </contour>
  </outline>
</glyph>
<glyph name="trademark" format="2">
	<advance width="619"/>
	<unicode hex="2122"/>
	<outline>
		<contour>
			<point x="68" y="613" type="line"/>
			<point x="91" y="534" type="line"/>
			<point x="92" y="534" type="line"/>
			<point x="107" y="590" type="line"/>
			<point x="146" y="592" type="line"/>
			<point x="146" y="424" type="line"/>
			<point x="108" y="405" type="line"/>
			<point x="109" y="402" type="line"/>
			<point x="221" y="402" type="line"/>
			<point x="223" y="405" type="line"/>
			<point x="185" y="424" type="line"/>
			<point x="185" y="592" type="line"/>
			<point x="224" y="590" type="line"/>
			<point x="237" y="534" type="line"/>
			<point x="238" y="534" type="line"/>
			<point x="262" y="613" type="line"/>
			<point x="165" y="609" type="line"/>
		</contour>
		<contour>
			<point x="243" y="405" type="line"/>
			<point x="244" y="402" type="line"/>
			<point x="349" y="402" type="line"/>
			<point x="350" y="405" type="line"/>
			<point x="310" y="423" type="line"/>
			<point x="334" y="594" type="line"/>
			<point x="327" y="592" type="line"/>
			<point x="373" y="402" type="line"/>
			<point x="408" y="402" type="line"/>
			<point x="455" y="606" type="line"/>
			<point x="446" y="610" type="line"/>
			<point x="467" y="423" type="line"/>
			<point x="429" y="405" type="line"/>
			<point x="429" y="402" type="line"/>
			<point x="550" y="402" type="line"/>
			<point x="551" y="405" type="line"/>
			<point x="511" y="423" type="line"/>
			<point x="486" y="592" type="line"/>
			<point x="525" y="610" type="line"/>
			<point x="524" y="613" type="line"/>
			<point x="429" y="613" type="line"/>
			<point x="385" y="415" type="line"/>
			<point x="410" y="425" type="line"/>
			<point x="362" y="613" type="line"/>
			<point x="269" y="613" type="line"/>
			<point x="268" y="610" type="line"/>
			<point x="307" y="591" type="line"/>
			<point x="282" y="423" type="line"/>
		</contour>
	</outline>
</glyph>
<glyph name="minus" format="2">
	<advance width="487"/>
	<unicode hex="2212"/>
	<outline>
		<contour>
			<point x="58" y="306" type="line"/>
			<point x="58" y="255" type="line"/>
			<point x="429" y="253" type="line"/>
			<point x="429" y="306" type="line"/>
		</contour>
	</outline>
</glyph>
<glyph name="notequal" format="2">
  <advance width="488"/>
  <unicode hex="2260"/>
  <outline>
    <contour>
      <point x="132" y="112" type="line"/>
      <point x="182" y="112" type="line"/>
      <point x="355" y="448" type="line"/>
      <point x="305" y="448" type="line"/>
    </contour>
    <component base="equal"/>
  </outline>
</glyph>
<glyph name="lessequal" format="2">
	<advance width="487"/>
	<unicode hex="2264"/>
	<outline>
		<contour>
			<point x="423" y="121" type="line"/>
			<point x="423" y="181" type="line"/>
			<point x="82" y="310" type="line"/>
			<point x="82" y="271" type="line"/>
			<point x="423" y="400" type="line"/>
			<point x="423" y="461" type="line"/>
			<point x="62" y="321" type="line"/>
			<point x="62" y="259" type="line"/>
		</contour>
		<contour>
			<point x="58" y="89" type="line"/>
			<point x="58" y="39" type="line"/>
			<point x="429" y="37" type="line"/>
			<point x="429" y="89" type="line"/>
		</contour>
	</outline>
</glyph>
<glyph name="greaterequal" format="2">
	<advance width="487"/>
	<unicode hex="2265"/>
	<outline>
		<contour>
			<point x="62" y="121" type="line"/>
			<point x="423" y="259" type="line"/>
			<point x="423" y="321" type="line"/>
			<point x="62" y="461" type="line"/>
			<point x="62" y="400" type="line"/>
			<point x="403" y="271" type="line"/>
			<point x="403" y="310" type="line"/>
			<point x="62" y="181" type="line"/>
		</contour>
		<contour>
			<point x="58" y="89" type="line"/>
			<point x="58" y="39" type="line"/>
			<point x="429" y="37" type="line"/>
			<point x="429" y="89" type="line"/>
		</contour>
	</outline>
</glyph>
<glyph name="T_b.liga" format="2">
	<advance width="845"/>
	<outline>
		<contour>
			<point x="469" y="561" type="line"/>
			<point x="469" y="37" type="line"/>
			<point x="505" y="4"/>
			<point x="564" y="-20"/>
			<point x="624" y="-20" type="curve" smooth="yes"/>
			<point x="729" y="-20"/>
			<point x="811" y="82"/>
			<point x="811" y="216" type="curve" smooth="yes"/>
			<point x="811" y="339"/>
			<point x="749" y="422"/>
			<point x="656" y="422" type="curve" smooth="yes"/>
			<point x="609" y="422"/>
			<point x="574" y="402"/>
			<point x="543" y="357" type="curve"/>
			<point x="543" y="650" type="line"/>
			<point x="447" y="612" type="line"/>
			<point x="250" y="600" type="line"/>
			<point x="23" y="612" type="line"/>
			<point x="62" y="401" type="line"/>
			<point x="70" y="403" type="line"/>
			<point x="101" y="564" type="line"/>
			<point x="210" y="571" type="line"/>
			<point x="210" y="45" type="line"/>
			<point x="100" y="8" type="line"/>
			<point x="102" y="0" type="line"/>
			<point x="398" y="0" type="line"/>
			<point x="400" y="8" type="line"/>
			<point x="290" y="45" type="line"/>
			<point x="290" y="571" type="line"/>
		</contour>
		<contour>
			<point x="543" y="53" type="curve"/>
			<point x="543" y="311" type="line"/>
			<point x="569" y="354"/>
			<point x="597" y="375"/>
			<point x="631" y="375" type="curve" smooth="yes"/>
			<point x="695" y="375"/>
			<point x="737" y="299"/>
			<point x="737" y="188" type="curve" smooth="yes"/>
			<point x="737" y="84"/>
			<point x="698" y="20"/>
			<point x="629" y="20" type="curve" smooth="yes"/>
			<point x="596" y="20"/>
			<point x="563" y="34"/>
		</contour>
	</outline>
</glyph>
<glyph name="T_h.liga" format="2">
	<advance width="938"/>
	<anchor x="263" y="0" name="bottom"/>
	<anchor x="244" y="300" name="center"/>
	<anchor x="245" y="600" name="top"/>
	<outline>
		<contour>
			<point x="23" y="612" type="line"/>
			<point x="62" y="401" type="line"/>
			<point x="70" y="403" type="line"/>
			<point x="101" y="564" type="line"/>
			<point x="210" y="571" type="line"/>
			<point x="210" y="45" type="line"/>
			<point x="100" y="8" type="line"/>
			<point x="102" y="0" type="line"/>
			<point x="398" y="0" type="line"/>
			<point x="400" y="8" type="line"/>
			<point x="290" y="45" type="line"/>
			<point x="290" y="571" type="line"/>
			<point x="499" y="561" type="line"/>
			<point x="499" y="45" type="line"/>
			<point x="426" y="8" type="line"/>
			<point x="428" y="0" type="line"/>
			<point x="643" y="0" type="line"/>
			<point x="645" y="8" type="line"/>
			<point x="573" y="45" type="line"/>
			<point x="573" y="650" type="line"/>
			<point x="477" y="612" type="line"/>
			<point x="250" y="600" type="line"/>
		</contour>
		<contour>
			<point x="550" y="312" type="curve"/>
			<point x="550" y="276" type="line"/>
			<point x="597" y="340"/>
			<point x="638" y="370"/>
			<point x="678" y="370" type="curve" smooth="yes"/>
			<point x="728" y="370"/>
			<point x="756" y="327"/>
			<point x="756" y="253" type="curve" smooth="yes"/>
			<point x="756" y="45" type="line"/>
			<point x="676" y="8" type="line"/>
			<point x="678" y="0" type="line"/>
			<point x="928" y="1" type="line"/>
			<point x="930" y="9" type="line"/>
			<point x="829" y="44" type="line"/>
			<point x="829" y="264" type="line" smooth="yes"/>
			<point x="829" y="362"/>
			<point x="791" y="422"/>
			<point x="717" y="422" type="curve" smooth="yes"/>
			<point x="663" y="422"/>
			<point x="610" y="389"/>
		</contour>
	</outline>
</glyph>
<glyph name="T_k.liga" format="2">
	<advance width="886"/>
	<anchor x="251" y="0" name="bottom"/>
	<anchor x="245" y="300" name="center"/>
	<anchor x="245" y="600" name="top"/>
	<outline>
		<contour>
			<point x="552" y="118" type="line"/>
			<point x="737" y="357" type="line"/>
			<point x="845" y="394" type="line"/>
			<point x="843" y="402" type="line"/>
			<point x="612" y="402" type="line"/>
			<point x="610" y="394" type="line"/>
			<point x="690" y="357" type="line"/>
			<point x="531" y="146" type="line"/>
		</contour>
		<contour>
			<point x="657" y="259" type="line"/>
			<point x="607" y="218" type="line"/>
			<point x="734" y="35" type="line"/>
			<point x="673" y="8" type="line"/>
			<point x="675" y="0" type="line"/>
			<point x="895" y="0" type="line"/>
			<point x="897" y="8" type="line"/>
			<point x="811" y="41" type="line"/>
		</contour>
		<contour>
			<point x="23" y="612" type="line"/>
			<point x="62" y="401" type="line"/>
			<point x="70" y="403" type="line"/>
			<point x="101" y="564" type="line"/>
			<point x="210" y="571" type="line"/>
			<point x="210" y="45" type="line"/>
			<point x="100" y="8" type="line"/>
			<point x="102" y="0" type="line"/>
			<point x="398" y="0" type="line"/>
			<point x="400" y="8" type="line"/>
			<point x="290" y="45" type="line"/>
			<point x="290" y="571" type="line"/>
			<point x="499" y="561" type="line"/>
			<point x="499" y="45" type="line"/>
			<point x="426" y="8" type="line"/>
			<point x="428" y="0" type="line"/>
			<point x="643" y="0" type="line"/>
			<point x="645" y="8" type="line"/>
			<point x="573" y="45" type="line"/>
			<point x="573" y="650" type="line"/>
			<point x="477" y="612" type="line"/>
			<point x="250" y="600" type="line"/>
		</contour>
	</outline>
</glyph>
<glyph name="T_l.liga" format="2">
  <advance width="632"/>
  <outline>
    <contour>
      <point x="23" y="612" type="line"/>
      <point x="62" y="401" type="line"/>
      <point x="70" y="403" type="line"/>
      <point x="101" y="564" type="line"/>
      <point x="210" y="571" type="line"/>
      <point x="210" y="45" type="line"/>
      <point x="100" y="8" type="line"/>
      <point x="102" y="0" type="line"/>
      <point x="398" y="0" type="line"/>
      <point x="400" y="8" type="line"/>
      <point x="290" y="45" type="line"/>
      <point x="290" y="571" type="line"/>
      <point x="499" y="561" type="line"/>
      <point x="499" y="45" type="line"/>
      <point x="426" y="8" type="line"/>
      <point x="428" y="0" type="line"/>
      <point x="643" y="0" type="line"/>
      <point x="645" y="8" type="line"/>
      <point x="573" y="45" type="line"/>
      <point x="573" y="650" type="line"/>
      <point x="477" y="612" type="line"/>
      <point x="250" y="600" type="line"/>
    </contour>
  </outline>
</glyph>
<glyph name=".notdef" format="2">
  <advance width="395"/>
  <outline>
    <contour>
      <point x="191" y="482" type="curve" smooth="yes"/>
      <point x="216" y="482"/>
      <point x="238" y="504"/>
      <point x="238" y="530" type="curve" smooth="yes"/>
      <point x="238" y="554"/>
      <point x="216" y="576"/>
      <point x="191" y="576" type="curve" smooth="yes"/>
      <point x="166" y="576"/>
      <point x="144" y="554"/>
      <point x="144" y="530" type="curve" smooth="yes"/>
      <point x="144" y="504"/>
      <point x="166" y="482"/>
    </contour>
    <contour>
      <point x="191" y="504" type="curve" smooth="yes"/>
      <point x="177" y="504"/>
      <point x="166" y="516"/>
      <point x="166" y="530" type="curve" smooth="yes"/>
      <point x="166" y="543"/>
      <point x="177" y="554"/>
      <point x="191" y="554" type="curve" smooth="yes"/>
      <point x="204" y="554"/>
      <point x="216" y="543"/>
      <point x="216" y="530" type="curve" smooth="yes"/>
      <point x="216" y="516"/>
      <point x="204" y="504"/>
    </contour>
    <contour>
      <point x="193" y="42" type="curve"/>
      <point x="174" y="-6"/>
      <point x="126" y="-71"/>
      <point x="96" y="-70" type="curve"/>
      <point x="119" y="58"/>
      <point x="74" y="117"/>
      <point x="156" y="176" type="curve"/>
      <point x="120" y="288"/>
      <point x="109" y="366"/>
      <point x="109" y="432" type="curve" smooth="yes"/>
      <point x="109" y="545"/>
      <point x="156" y="671"/>
      <point x="193" y="671" type="curve" smooth="yes"/>
      <point x="231" y="671"/>
      <point x="278" y="545"/>
      <point x="278" y="432" type="curve" smooth="yes"/>
      <point x="278" y="360"/>
      <point x="259" y="284"/>
      <point x="225" y="176" type="curve"/>
      <point x="307" y="117"/>
      <point x="268" y="55"/>
      <point x="290" y="-70" type="curve"/>
      <point x="260" y="-71"/>
      <point x="211" y="-4"/>
    </contour>
  </outline>
</glyph>
<glyph name="brevecomb.case" format="2">
  <advance width="326"/>
  <anchor x="164" y="600" name="_top"/>
  <outline>
    <contour>
      <point x="278" y="775" type="curve"/>
      <point x="243" y="775" type="line"/>
      <point x="243" y="731"/>
      <point x="210" y="719"/>
      <point x="164" y="719" type="curve" smooth="yes"/>
      <point x="118" y="719"/>
      <point x="89" y="731"/>
      <point x="83" y="775" type="curve"/>
      <point x="48" y="775" type="line"/>
      <point x="55" y="706"/>
      <point x="104" y="666"/>
      <point x="164" y="666" type="curve" smooth="yes"/>
      <point x="230" y="666"/>
      <point x="278" y="706"/>
    </contour>
  </outline>
</glyph>
<glyph name="caroncomb.alt" format="2">
	<advance width="164"/>
	<anchor x="50" y="693" name="_topright"/>
	<outline>
		<contour>
			<point x="118" y="697" type="line"/>
			<point x="50" y="713" type="line"/>
			<point x="50" y="497" type="line"/>
			<point x="66" y="493" type="line"/>
		</contour>
	</outline>
</glyph>
<glyph name="circumflexcomb.case" format="2">
  <advance width="352"/>
  <anchor x="178" y="600" name="_top"/>
  <outline>
    <contour>
      <point x="177" y="787" type="line"/>
      <point x="48" y="690" type="line"/>
      <point x="60" y="670" type="line"/>
      <point x="177" y="717" type="line"/>
      <point x="292" y="670" type="line"/>
      <point x="304" y="690" type="line"/>
    </contour>
  </outline>
</glyph>
<glyph name="dieresiscomb.case" format="2">
	<advance width="263"/>
	<anchor x="132" y="600" name="_top"/>
	<outline>
		<contour>
			<point x="29" y="773" type="line"/>
			<point x="29" y="680" type="line"/>
			<point x="104" y="680" type="line"/>
			<point x="104" y="773" type="line"/>
		</contour>
		<contour>
			<point x="159" y="773" type="line"/>
			<point x="159" y="680" type="line"/>
			<point x="234" y="680" type="line"/>
			<point x="234" y="773" type="line"/>
		</contour>
	</outline>
</glyph>
<glyph name="dotaccentcomb.case" format="2">
  <advance width="171"/>
  <anchor x="85" y="600" name="_top"/>
  <outline>
    <contour>
      <point x="48" y="773" type="line"/>
      <point x="48" y="680" type="line"/>
      <point x="123" y="680" type="line"/>
      <point x="123" y="773" type="line"/>
    </contour>
  </outline>
</glyph>
<glyph name="f_b.liga" format="2">
	<advance width="783"/>
	<outline>
		<contour>
			<point x="408" y="624" type="curve"/>
			<point x="408" y="37" type="line"/>
			<point x="447" y="1"/>
			<point x="508" y="-20"/>
			<point x="562" y="-20" type="curve" smooth="yes"/>
			<point x="668" y="-20"/>
			<point x="749" y="83"/>
			<point x="749" y="216" type="curve" smooth="yes"/>
			<point x="749" y="338"/>
			<point x="687" y="422"/>
			<point x="594" y="422" type="curve" smooth="yes"/>
			<point x="546" y="422"/>
			<point x="511" y="401"/>
			<point x="481" y="357" type="curve"/>
			<point x="481" y="712" type="line"/>
			<point x="412" y="681" type="line"/>
			<point x="370" y="698"/>
			<point x="293" y="712"/>
			<point x="248" y="712" type="curve" smooth="yes"/>
			<point x="142" y="712"/>
			<point x="98" y="634"/>
			<point x="98" y="448" type="curve" smooth="yes"/>
			<point x="98" y="405" type="line"/>
			<point x="-12" y="375" type="line"/>
			<point x="-10" y="365" type="line"/>
			<point x="98" y="365" type="line"/>
			<point x="99" y="51" type="line"/>
			<point x="-23" y="8" type="line"/>
			<point x="-21" y="0" type="line"/>
			<point x="284" y="0" type="line"/>
			<point x="286" y="8" type="line"/>
			<point x="171" y="50" type="line"/>
			<point x="171" y="368" type="line"/>
			<point x="263" y="367" type="line"/>
			<point x="281" y="275" type="line"/>
			<point x="289" y="273" type="line"/>
			<point x="330" y="401" type="line"/>
			<point x="171" y="402" type="line"/>
			<point x="171" y="504" type="line" smooth="yes"/>
			<point x="171" y="627"/>
			<point x="188" y="676"/>
			<point x="248" y="678" type="curve" smooth="yes"/>
			<point x="309" y="680"/>
			<point x="391" y="650"/>
		</contour>
		<contour>
			<point x="481" y="53" type="curve"/>
			<point x="481" y="311" type="line"/>
			<point x="508" y="356"/>
			<point x="536" y="375"/>
			<point x="569" y="375" type="curve" smooth="yes"/>
			<point x="633" y="375"/>
			<point x="676" y="301"/>
			<point x="676" y="188" type="curve" smooth="yes"/>
			<point x="676" y="82"/>
			<point x="636" y="20"/>
			<point x="568" y="20" type="curve" smooth="yes"/>
			<point x="535" y="20"/>
			<point x="500" y="34"/>
		</contour>
	</outline>
</glyph>
<glyph name="f_f" format="2">
	<advance width="653"/>
	<outline>
		<contour>
			<point x="407" y="448" type="curve" smooth="yes"/>
			<point x="407" y="401" type="line"/>
			<point x="171" y="402" type="line"/>
			<point x="171" y="504" type="line" smooth="yes"/>
			<point x="171" y="603"/>
			<point x="201" y="649"/>
			<point x="260" y="649" type="curve" smooth="yes"/>
			<point x="306" y="649"/>
			<point x="373" y="625"/>
			<point x="412" y="572" type="curve"/>
			<point x="409" y="546"/>
			<point x="407" y="494"/>
		</contour>
		<contour>
			<point x="539" y="678" type="curve" smooth="yes"/>
			<point x="562" y="679"/>
			<point x="599" y="673"/>
			<point x="618" y="662" type="curve"/>
			<point x="633" y="559" type="line"/>
			<point x="641" y="557" type="line"/>
			<point x="675" y="685" type="line"/>
			<point x="639" y="698"/>
			<point x="586" y="712"/>
			<point x="537" y="712" type="curve" smooth="yes"/>
			<point x="487" y="712"/>
			<point x="453" y="685"/>
			<point x="433" y="635" type="curve"/>
			<point x="361" y="665"/>
			<point x="328" y="682"/>
			<point x="258" y="682" type="curve" smooth="yes"/>
			<point x="152" y="682"/>
			<point x="98" y="604"/>
			<point x="98" y="448" type="curve" smooth="yes"/>
			<point x="98" y="405" type="line"/>
			<point x="-12" y="375" type="line"/>
			<point x="-10" y="365" type="line"/>
			<point x="98" y="365" type="line"/>
			<point x="99" y="51" type="line"/>
			<point x="-23" y="8" type="line"/>
			<point x="-21" y="0" type="line"/>
			<point x="274" y="0" type="line"/>
			<point x="276" y="8" type="line"/>
			<point x="171" y="50" type="line"/>
			<point x="171" y="368" type="line"/>
			<point x="407" y="367" type="line"/>
			<point x="409" y="51" type="line"/>
			<point x="299" y="8" type="line"/>
			<point x="301" y="0" type="line"/>
			<point x="630" y="0" type="line"/>
			<point x="632" y="8" type="line"/>
			<point x="480" y="50" type="line"/>
			<point x="480" y="368" type="line"/>
			<point x="572" y="367" type="line"/>
			<point x="590" y="275" type="line"/>
			<point x="598" y="273" type="line"/>
			<point x="639" y="401" type="line"/>
			<point x="480" y="402" type="line"/>
			<point x="480" y="504" type="line" smooth="yes"/>
			<point x="480" y="665"/>
			<point x="487" y="676"/>
		</contour>
	</outline>
</glyph>
<glyph name="f_f_b.liga" format="2">
  <advance width="1092"/>
  <outline>
    <contour>
      <point x="718" y="624" type="curve"/>
      <point x="718" y="37" type="line"/>
      <point x="752" y="5"/>
      <point x="812" y="-20"/>
      <point x="872" y="-20" type="curve" smooth="yes"/>
      <point x="977" y="-20"/>
      <point x="1058" y="82"/>
      <point x="1058" y="216" type="curve" smooth="yes"/>
      <point x="1058" y="339"/>
      <point x="996" y="422"/>
      <point x="903" y="422" type="curve" smooth="yes"/>
      <point x="858" y="422"/>
      <point x="822" y="403"/>
      <point x="790" y="357" type="curve"/>
      <point x="790" y="712" type="line"/>
      <point x="722" y="681" type="line"/>
      <point x="691" y="694"/>
      <point x="617" y="712"/>
      <point x="558" y="712" type="curve" smooth="yes"/>
      <point x="501" y="712"/>
      <point x="461" y="690"/>
      <point x="436" y="639" type="curve"/>
      <point x="350" y="674"/>
      <point x="312" y="682"/>
      <point x="258" y="682" type="curve" smooth="yes"/>
      <point x="152" y="682"/>
      <point x="98" y="604"/>
      <point x="98" y="448" type="curve" smooth="yes"/>
      <point x="98" y="405" type="line"/>
      <point x="-12" y="375" type="line"/>
      <point x="-10" y="365" type="line"/>
      <point x="98" y="365" type="line"/>
      <point x="99" y="51" type="line"/>
      <point x="-23" y="8" type="line"/>
      <point x="-21" y="0" type="line"/>
      <point x="274" y="0" type="line"/>
      <point x="276" y="8" type="line"/>
      <point x="171" y="50" type="line"/>
      <point x="171" y="368" type="line"/>
      <point x="408" y="367" type="line"/>
      <point x="409" y="51" type="line"/>
      <point x="299" y="8" type="line"/>
      <point x="301" y="0" type="line"/>
      <point x="594" y="0" type="line"/>
      <point x="596" y="8" type="line"/>
      <point x="480" y="50" type="line"/>
      <point x="480" y="368" type="line"/>
      <point x="566" y="367" type="line"/>
      <point x="584" y="275" type="line"/>
      <point x="592" y="273" type="line"/>
      <point x="633" y="401" type="line"/>
      <point x="480" y="402" type="line"/>
      <point x="480" y="504" type="line" smooth="yes"/>
      <point x="480" y="631"/>
      <point x="500" y="676"/>
      <point x="557" y="678" type="curve" smooth="yes"/>
      <point x="611" y="680"/>
      <point x="675" y="656"/>
    </contour>
    <contour>
      <point x="171" y="402" type="line"/>
      <point x="171" y="504" type="line" smooth="yes"/>
      <point x="171" y="603"/>
      <point x="201" y="649"/>
      <point x="260" y="649" type="curve" smooth="yes"/>
      <point x="309" y="649"/>
      <point x="364" y="629"/>
      <point x="418" y="588" type="curve"/>
      <point x="411" y="544"/>
      <point x="408" y="501"/>
      <point x="408" y="448" type="curve" smooth="yes"/>
      <point x="408" y="401" type="line"/>
    </contour>
    <contour>
      <point x="790" y="53" type="curve"/>
      <point x="790" y="311" type="line"/>
      <point x="818" y="356"/>
      <point x="846" y="375"/>
      <point x="879" y="375" type="curve" smooth="yes"/>
      <point x="943" y="375"/>
      <point x="986" y="300"/>
      <point x="986" y="188" type="curve" smooth="yes"/>
      <point x="986" y="83"/>
      <point x="946" y="20"/>
      <point x="878" y="20" type="curve" smooth="yes"/>
      <point x="846" y="20"/>
      <point x="811" y="33"/>
    </contour>
  </outline>
</glyph>
<glyph name="f_f_k.liga" format="2">
  <advance width="1091"/>
  <outline>
    <contour>
      <point x="718" y="624" type="curve"/>
      <point x="718" y="45" type="line"/>
      <point x="605" y="6" type="line"/>
      <point x="607" y="0" type="line"/>
      <point x="862" y="0" type="line"/>
      <point x="864" y="8" type="line"/>
      <point x="790" y="45" type="line"/>
      <point x="790" y="712" type="line"/>
      <point x="722" y="681" type="line"/>
      <point x="691" y="694"/>
      <point x="617" y="712"/>
      <point x="558" y="712" type="curve" smooth="yes"/>
      <point x="501" y="712"/>
      <point x="461" y="690"/>
      <point x="436" y="639" type="curve"/>
      <point x="350" y="674"/>
      <point x="312" y="682"/>
      <point x="258" y="682" type="curve" smooth="yes"/>
      <point x="152" y="682"/>
      <point x="98" y="604"/>
      <point x="98" y="448" type="curve" smooth="yes"/>
      <point x="98" y="405" type="line"/>
      <point x="-12" y="375" type="line"/>
      <point x="-10" y="365" type="line"/>
      <point x="98" y="365" type="line"/>
      <point x="99" y="51" type="line"/>
      <point x="-23" y="8" type="line"/>
      <point x="-21" y="0" type="line"/>
      <point x="274" y="0" type="line"/>
      <point x="276" y="8" type="line"/>
      <point x="171" y="50" type="line"/>
      <point x="171" y="368" type="line"/>
      <point x="408" y="367" type="line"/>
      <point x="409" y="51" type="line"/>
      <point x="299" y="8" type="line"/>
      <point x="301" y="0" type="line"/>
      <point x="594" y="0" type="line"/>
      <point x="596" y="8" type="line"/>
      <point x="480" y="50" type="line"/>
      <point x="480" y="368" type="line"/>
      <point x="566" y="367" type="line"/>
      <point x="584" y="275" type="line"/>
      <point x="592" y="273" type="line"/>
      <point x="633" y="401" type="line"/>
      <point x="480" y="402" type="line"/>
      <point x="480" y="504" type="line" smooth="yes"/>
      <point x="480" y="631"/>
      <point x="500" y="676"/>
      <point x="557" y="678" type="curve" smooth="yes"/>
      <point x="611" y="680"/>
      <point x="675" y="656"/>
    </contour>
    <contour>
      <point x="408" y="448" type="curve" smooth="yes"/>
      <point x="408" y="401" type="line"/>
      <point x="171" y="402" type="line"/>
      <point x="171" y="504" type="line" smooth="yes"/>
      <point x="171" y="603"/>
      <point x="201" y="649"/>
      <point x="260" y="649" type="curve" smooth="yes"/>
      <point x="309" y="649"/>
      <point x="364" y="629"/>
      <point x="418" y="588" type="curve"/>
      <point x="411" y="544"/>
      <point x="408" y="501"/>
    </contour>
    <contour>
      <point x="770" y="118" type="line"/>
      <point x="955" y="357" type="line"/>
      <point x="1063" y="394" type="line"/>
      <point x="1061" y="402" type="line"/>
      <point x="830" y="402" type="line"/>
      <point x="828" y="394" type="line"/>
      <point x="908" y="357" type="line"/>
      <point x="749" y="146" type="line"/>
    </contour>
    <contour>
      <point x="863" y="259" type="line"/>
      <point x="813" y="218" type="line"/>
      <point x="940" y="35" type="line"/>
      <point x="879" y="8" type="line"/>
      <point x="881" y="0" type="line"/>
      <point x="1100" y="0" type="line"/>
      <point x="1102" y="8" type="line"/>
      <point x="1015" y="41" type="line"/>
    </contour>
  </outline>
</glyph>
<glyph name="f_h.liga" format="2">
	<advance width="833"/>
	<outline>
		<contour>
			<point x="98" y="448" type="curve" smooth="yes"/>
			<point x="98" y="405" type="line"/>
			<point x="-12" y="375" type="line"/>
			<point x="-10" y="365" type="line"/>
			<point x="98" y="365" type="line"/>
			<point x="99" y="51" type="line"/>
			<point x="-23" y="8" type="line"/>
			<point x="-21" y="0" type="line"/>
			<point x="284" y="0" type="line"/>
			<point x="286" y="8" type="line"/>
			<point x="171" y="50" type="line"/>
			<point x="171" y="368" type="line"/>
			<point x="263" y="367" type="line"/>
			<point x="281" y="275" type="line"/>
			<point x="289" y="273" type="line"/>
			<point x="330" y="401" type="line"/>
			<point x="171" y="402" type="line"/>
			<point x="171" y="504" type="line" smooth="yes"/>
			<point x="171" y="634"/>
			<point x="186" y="673"/>
			<point x="237" y="675" type="curve" smooth="yes"/>
			<point x="289" y="677"/>
			<point x="385" y="647"/>
			<point x="396" y="624" type="curve"/>
			<point x="396" y="47" type="line"/>
			<point x="296" y="8" type="line"/>
			<point x="298" y="0" type="line"/>
			<point x="552" y="0" type="line"/>
			<point x="554" y="8" type="line"/>
			<point x="468" y="47" type="line"/>
			<point x="468" y="712" type="line"/>
			<point x="400" y="681" type="line"/>
			<point x="361" y="695"/>
			<point x="286" y="712"/>
			<point x="236" y="712" type="curve" smooth="yes"/>
			<point x="135" y="712"/>
			<point x="98" y="642"/>
		</contour>
		<contour>
			<point x="446" y="312" type="curve"/>
			<point x="446" y="276" type="line"/>
			<point x="495" y="342"/>
			<point x="536" y="371"/>
			<point x="575" y="371" type="curve" smooth="yes"/>
			<point x="623" y="371"/>
			<point x="652" y="329"/>
			<point x="652" y="253" type="curve" smooth="yes"/>
			<point x="652" y="45" type="line"/>
			<point x="573" y="8" type="line"/>
			<point x="575" y="0" type="line"/>
			<point x="823" y="1" type="line"/>
			<point x="825" y="9" type="line"/>
			<point x="724" y="44" type="line"/>
			<point x="724" y="264" type="line" smooth="yes"/>
			<point x="724" y="365"/>
			<point x="684" y="422"/>
			<point x="613" y="422" type="curve" smooth="yes"/>
			<point x="558" y="422"/>
			<point x="505" y="388"/>
		</contour>
	</outline>
</glyph>
